<svg xmlns="http://www.w3.org/2000/svg" xmlns:xlink="http://www.w3.org/1999/xlink" width="500" zoomAndPan="magnify" viewBox="0 0 375 374.999991" height="500" preserveAspectRatio="xMidYMid meet" version="1.0"><defs><g/><clipPath id="ff6c6c454d"><path d="M 146 37.5 L 153 37.5 L 153 41 L 146 41 Z M 146 37.5 " clip-rule="nonzero"/></clipPath><clipPath id="07ad479836"><path d="M 267 205 L 269.679688 205 L 269.679688 209 L 267 209 Z M 267 205 " clip-rule="nonzero"/></clipPath></defs><rect x="-37.5" width="450" fill="#ffffff" y="-37.499999" height="449.999989" fill-opacity="1"/><rect x="-37.5" width="450" fill="#ffffff" y="-37.499999" height="449.999989" fill-opacity="1"/><path fill="#312f30" d="M 122.15625 239.097656 C 119.976562 236.859375 116.160156 233.171875 114.589844 232.179688 C 114.503906 232.136719 114.378906 232.101562 114.28125 232.101562 C 114.308594 233.164062 124.226562 242.75 125.335938 242.789062 C 125.304688 242.402344 123.589844 240.570312 122.15625 239.097656 " fill-opacity="1" fill-rule="nonzero"/><path fill="#312f30" d="M 135.035156 248.386719 C 132.742188 246.433594 128.589844 243.234375 126.539062 242.441406 C 126.386719 242.402344 126.160156 242.339844 126.082031 242.410156 C 125.683594 242.769531 128.289062 245.21875 130.96875 247.28125 C 134.410156 249.925781 137.542969 251.851562 138.105469 251.660156 C 138.289062 251.246094 136.261719 249.429688 135.035156 248.386719 " fill-opacity="1" fill-rule="nonzero"/><path fill="#312f30" d="M 92.175781 198.414062 C 92.125 198.363281 92.035156 198.3125 91.964844 198.308594 C 91.945312 199.699219 98.566406 212.34375 99.347656 212.402344 C 99.355469 211.84375 98.03125 209.074219 97.242188 207.476562 C 95.863281 204.679688 93.269531 199.746094 92.175781 198.414062 " fill-opacity="1" fill-rule="nonzero"/><path fill="#312f30" d="M 100.417969 211.984375 C 100.28125 211.917969 100.109375 211.839844 100.023438 211.925781 C 99.164062 212.800781 106.941406 224.277344 108.78125 224.851562 C 109.496094 225.074219 108.71875 223.167969 106.894531 220.21875 C 105.191406 217.460938 102.054688 213.082031 100.417969 211.984375 " fill-opacity="1" fill-rule="nonzero"/><path fill="#312f30" d="M 118.523438 231.59375 C 116.640625 229.082031 113.011719 225.148438 110.835938 224.257812 C 110.652344 224.210938 110.40625 224.148438 110.265625 224.246094 C 108.765625 225.28125 117.53125 235.523438 120.242188 235.902344 C 121.238281 236.042969 120.535156 234.269531 118.523438 231.59375 " fill-opacity="1" fill-rule="nonzero"/><path fill="#312f30" d="M 86.332031 183.664062 C 86.417969 183.9375 86.550781 184.335938 86.71875 184.824219 C 86.585938 184.429688 86.453125 184.03125 86.328125 183.65625 L 86.332031 183.664062 " fill-opacity="1" fill-rule="nonzero"/><path fill="#312f30" d="M 95.980469 203.085938 C 97.019531 203.671875 96.839844 201.335938 95.554688 197.644531 C 94.449219 194.460938 92.144531 189.449219 90.492188 188.273438 C 90.394531 188.230469 90.253906 188.164062 90.148438 188.183594 C 88.425781 188.511719 93.605469 201.742188 95.980469 203.085938 " fill-opacity="1" fill-rule="nonzero"/><path fill="#312f30" d="M 105.660156 216.070312 C 107.082031 216.539062 106.980469 214.300781 105.421875 210.867188 C 104.074219 207.894531 101.148438 203.273438 98.875 202.289062 C 98.675781 202.246094 98.410156 202.183594 98.210938 202.308594 C 96.21875 203.554688 102.414062 215 105.660156 216.070312 " fill-opacity="1" fill-rule="nonzero"/><path fill="#312f30" d="M 117.027344 227.625 C 119.101562 228.304688 119.261719 226.128906 117.386719 222.769531 C 115.613281 219.597656 112.109375 215.742188 109.546875 215.054688 C 109.300781 215.027344 108.960938 214.988281 108.699219 215.125 C 106.25 216.417969 112.789062 226.230469 117.027344 227.625 " fill-opacity="1" fill-rule="nonzero"/><path fill="#312f30" d="M 84.660156 173.234375 C 84.605469 173.183594 84.523438 173.128906 84.453125 173.109375 C 83.417969 173.753906 87.492188 188.589844 88.816406 188.980469 C 89.34375 188.65625 88.378906 184.480469 88.070312 183.210938 C 87.316406 180.089844 85.722656 174.625 84.660156 173.234375 " fill-opacity="1" fill-rule="nonzero"/><path fill="#312f30" d="M 95.089844 192.640625 C 96.765625 193.566406 97.378906 190.894531 96.449219 186.683594 C 95.714844 183.335938 93.664062 178.160156 91.421875 177.148438 C 91.273438 177.113281 91.0625 177.070312 90.910156 177.105469 C 88.027344 177.734375 91.503906 190.660156 95.089844 192.640625 " fill-opacity="1" fill-rule="nonzero"/><path fill="#312f30" d="M 104.53125 205.945312 C 106.929688 207.160156 107.871094 204.53125 106.550781 200.324219 C 105.550781 197.132812 102.832031 192.269531 99.917969 191.445312 C 99.722656 191.425781 99.453125 191.398438 99.265625 191.445312 C 95.847656 192.253906 99.984375 203.636719 104.53125 205.945312 " fill-opacity="1" fill-rule="nonzero"/><path fill="#312f30" d="M 115.964844 217.945312 C 119.117188 219.394531 120.4375 216.878906 118.734375 212.667969 C 117.53125 209.683594 114.289062 205.21875 110.863281 204.632812 C 110.546875 204.625 110.121094 204.609375 109.738281 204.789062 C 106.539062 206.304688 110.960938 215.644531 115.964844 217.945312 " fill-opacity="1" fill-rule="nonzero"/><path fill="#312f30" d="M 87.738281 178.035156 C 88.921875 179.089844 89.464844 176.457031 88.945312 172.164062 C 88.535156 168.808594 87.253906 163.558594 85.683594 162.386719 C 85.578125 162.34375 85.425781 162.285156 85.316406 162.304688 C 83.179688 162.683594 85.191406 175.769531 87.738281 178.035156 " fill-opacity="1" fill-rule="nonzero"/><path fill="#312f30" d="M 99.957031 174.84375 C 99.589844 171.46875 97.800781 166.339844 94.980469 165.515625 C 94.78125 165.496094 94.503906 165.476562 94.308594 165.519531 C 90.824219 166.332031 92.289062 177.773438 96.269531 180.820312 C 98.703125 182.6875 100.496094 179.78125 99.957031 174.84375 " fill-opacity="1" fill-rule="nonzero"/><path fill="#312f30" d="M 110.09375 188.527344 C 109.417969 185.15625 106.933594 180.128906 103.519531 179.511719 C 103.277344 179.503906 102.941406 179.503906 102.707031 179.566406 C 98.742188 180.582031 100.832031 191.113281 105.648438 194.390625 C 108.929688 196.628906 111.132812 193.722656 110.09375 188.527344 " fill-opacity="1" fill-rule="nonzero"/><path fill="#312f30" d="M 122.253906 201.25 C 121.351562 198.035156 118.335938 193.324219 114.453125 192.925781 C 114.179688 192.9375 113.804688 192.953125 113.539062 193.03125 C 109.195312 194.269531 112.042969 204.253906 117.550781 207.085938 C 121.289062 209.007812 123.617188 206.117188 122.253906 201.25 " fill-opacity="1" fill-rule="nonzero"/><path fill="#312f30" d="M 89.386719 166.625 C 91.070312 168.070312 92.488281 165.292969 92.417969 160.679688 C 92.371094 157.324219 91.351562 152.152344 89.242188 151.164062 C 89.089844 151.132812 88.875 151.09375 88.71875 151.125 C 85.710938 151.75 86.234375 163.917969 89.386719 166.625 " fill-opacity="1" fill-rule="nonzero"/><path fill="#312f30" d="M 105.777344 162.484375 C 105.710938 159.09375 104.15625 154.050781 100.910156 153.441406 C 100.789062 153.441406 100.625 153.425781 100.5 153.4375 C 96.191406 153.742188 95.710938 164.066406 99.8125 168.160156 C 102.765625 171.109375 105.886719 168.140625 105.777344 162.484375 " fill-opacity="1" fill-rule="nonzero"/><path fill="#312f30" d="M 115.683594 175.769531 C 115.320312 172.367188 113.105469 167.390625 109.324219 166.980469 C 109.183594 166.988281 108.992188 166.984375 108.851562 167 C 103.980469 167.582031 104.371094 177.984375 109.410156 181.84375 C 113.003906 184.59375 116.289062 181.414062 115.683594 175.769531 " fill-opacity="1" fill-rule="nonzero"/><path fill="#312f30" d="M 127.683594 188.554688 C 127.054688 185.15625 124.261719 180.285156 120.023438 180.082031 C 119.867188 180.09375 119.65625 180.101562 119.5 180.125 C 114.492188 180.914062 115.222656 190.574219 120.582031 194.480469 C 124.921875 197.640625 128.769531 194.425781 127.683594 188.554688 " fill-opacity="1" fill-rule="nonzero"/><path fill="#312f30" d="M 93.125 154.46875 C 95.265625 156.9375 97.855469 154.078125 98.257812 148.804688 C 98.511719 145.464844 97.695312 140.40625 95.09375 139.613281 C 94.996094 139.605469 94.863281 139.582031 94.765625 139.585938 C 91.152344 139.648438 89.925781 150.773438 93.125 154.46875 " fill-opacity="1" fill-rule="nonzero"/><path fill="#312f30" d="M 105.707031 155.589844 C 108.75 159.03125 112.851562 155.925781 113.144531 149.957031 C 113.3125 146.578125 111.964844 141.648438 108.449219 141.246094 C 103.183594 141.472656 102.082031 151.496094 105.707031 155.589844 " fill-opacity="1" fill-rule="nonzero"/><path fill="#312f30" d="M 122.839844 162.78125 C 122.710938 159.371094 120.710938 154.472656 116.660156 154.261719 C 110.742188 154.777344 110.5 164.925781 114.992188 168.851562 C 118.734375 172.125 123.0625 168.773438 122.839844 162.78125 " fill-opacity="1" fill-rule="nonzero"/><path fill="#312f30" d="M 125.867188 181.210938 C 130.347656 185.066406 135.332031 181.640625 134.605469 175.203125 C 134.21875 171.78125 131.648438 166.949219 127.140625 166.933594 C 121.003906 167.691406 121.042969 177.066406 125.867188 181.210938 " fill-opacity="1" fill-rule="nonzero"/><path fill="#312f30" d="M 105.816406 136.835938 C 106.300781 133.527344 105.664062 128.609375 102.738281 128.03125 C 98.074219 127.972656 96.164062 138.707031 99.167969 142.4375 C 101.519531 145.359375 105 142.425781 105.816406 136.835938 " fill-opacity="1" fill-rule="nonzero"/><path fill="#312f30" d="M 143.832031 238.246094 C 147.503906 239.175781 148.964844 236.859375 146.949219 233.292969 C 145.523438 230.769531 141.703125 227.152344 137.667969 227.007812 C 137.121094 227.050781 136.550781 227.09375 136 227.476562 C 132.878906 229.644531 138.078125 236.792969 143.832031 238.246094 " fill-opacity="1" fill-rule="nonzero"/><path fill="#312f30" d="M 150.539062 222.855469 C 149.398438 220.066406 145.769531 216.15625 141.28125 216.183594 C 140.863281 216.230469 140.292969 216.296875 139.757812 216.550781 C 135.660156 218.484375 138.886719 225.925781 144.835938 228.257812 C 149.421875 230.054688 152.355469 227.277344 150.539062 222.855469 " fill-opacity="1" fill-rule="nonzero"/><path fill="#312f30" d="M 155.96875 211.050781 C 155.070312 208.015625 151.609375 203.828125 146.734375 204.03125 C 146.554688 204.058594 146.3125 204.082031 146.136719 204.121094 C 140.769531 205.253906 141.753906 213.203125 147.691406 216.632812 C 152.949219 219.667969 157.59375 216.539062 155.96875 211.050781 " fill-opacity="1" fill-rule="nonzero"/><path fill="#312f30" d="M 153.710938 190.609375 C 153.519531 190.644531 153.261719 190.679688 153.074219 190.726562 C 147.273438 192.125 147.601562 200.746094 153.589844 204.292969 C 158.859375 207.417969 164.167969 203.796875 162.90625 197.945312 C 162.203125 194.679688 158.882812 190.242188 153.710938 190.609375 " fill-opacity="1" fill-rule="nonzero"/><path fill="#312f30" d="M 144.714844 246.65625 C 147.234375 246.984375 147.542969 245.085938 145.421875 242.332031 C 143.6875 240.078125 139.65625 236.769531 136.140625 236.460938 C 135.671875 236.472656 135.183594 236.488281 134.78125 236.796875 C 132.292969 238.714844 139.628906 245.996094 144.714844 246.65625 " fill-opacity="1" fill-rule="nonzero"/><path fill="#312f30" d="M 147.464844 253.554688 C 148.871094 253.523438 148.328125 252.078125 146.117188 249.96875 C 144.183594 248.121094 139.964844 245.019531 136.859375 244.546875 C 136.472656 244.53125 136.074219 244.511719 135.824219 244.75 C 134.1875 246.316406 143.871094 253.644531 147.464844 253.554688 " fill-opacity="1" fill-rule="nonzero"/><path fill="#312f30" d="M 130.484375 218.5 C 135.222656 220.824219 138.3125 217.757812 136.492188 212.53125 C 135.355469 209.265625 131.675781 204.574219 127.058594 204.382812 C 126.730469 204.410156 126.289062 204.449219 125.972656 204.546875 C 121.109375 206 124.144531 215.390625 130.484375 218.5 " fill-opacity="1" fill-rule="nonzero"/><path fill="#312f30" d="M 129.628906 229.132812 C 133.359375 230.402344 134.90625 227.734375 132.875 223.542969 C 131.417969 220.539062 127.515625 216.140625 123.390625 215.757812 C 123.011719 215.765625 122.496094 215.78125 122.039062 215.996094 C 118.121094 217.820312 123.4375 227.027344 129.628906 229.132812 " fill-opacity="1" fill-rule="nonzero"/><path fill="#312f30" d="M 88.042969 146.402344 C 88.347656 142.816406 88.074219 137.222656 86.511719 136.023438 C 86.394531 135.980469 86.226562 135.925781 86.101562 135.945312 C 83.460938 136.402344 82.707031 150.40625 85.195312 152.78125 C 86.375 153.90625 87.652344 151.046875 88.042969 146.402344 " fill-opacity="1" fill-rule="nonzero"/><path fill="#312f30" d="M 82.804688 146.757812 C 82.738281 146.707031 82.636719 146.625 82.550781 146.632812 C 80.964844 146.808594 81.683594 162.042969 83.359375 163.792969 C 84.070312 164.535156 84.539062 161.820312 84.449219 157.480469 C 84.375 153.863281 83.816406 148.148438 82.804688 146.757812 " fill-opacity="1" fill-rule="nonzero"/><path fill="#312f30" d="M 141.410156 200.191406 C 140.613281 196.945312 137.410156 192.378906 132.785156 192.382812 C 132.453125 192.425781 132 192.484375 131.679688 192.589844 C 126.804688 194.199219 128.273438 202.820312 133.996094 206.160156 C 138.746094 208.933594 142.765625 205.699219 141.410156 200.191406 " fill-opacity="1" fill-rule="nonzero"/><path fill="#312f30" d="M 139.300781 192.945312 C 144.28125 196.480469 149.457031 192.882812 148.382812 186.628906 C 147.792969 183.210938 144.761719 178.480469 139.867188 178.664062 C 139.683594 178.691406 139.441406 178.71875 139.261719 178.757812 C 133.703125 179.972656 133.730469 188.984375 139.300781 192.945312 " fill-opacity="1" fill-rule="nonzero"/><path fill="#312f30" d="M 130.339844 237.753906 C 132.730469 238.257812 132.996094 236.226562 130.949219 233.128906 C 129.289062 230.621094 125.472656 226.855469 122.191406 226.328125 C 121.757812 226.3125 121.308594 226.296875 120.933594 226.601562 C 118.695312 228.445312 125.730469 236.78125 130.339844 237.753906 " fill-opacity="1" fill-rule="nonzero"/><path fill="#312f30" d="M 133.234375 245.382812 C 134.480469 245.433594 133.871094 243.800781 131.75 241.414062 C 129.753906 239.160156 125.742188 235.6875 123.078125 235.007812 C 122.730469 234.964844 122.398438 234.921875 122.207031 235.164062 C 120.941406 236.757812 130.113281 245.257812 133.234375 245.382812 " fill-opacity="1" fill-rule="nonzero"/><path fill="#312f30" d="M 82.457031 132.378906 C 82.445312 132.34375 82.425781 132.300781 82.414062 132.269531 C 82.378906 132.265625 82.335938 132.265625 82.304688 132.261719 C 81.476562 133.652344 80.675781 146.359375 81.320312 147.890625 C 81.355469 147.890625 81.398438 147.894531 81.429688 147.894531 C 81.792969 147.230469 82.097656 144.066406 82.246094 142.238281 C 82.496094 139.167969 82.773438 133.773438 82.457031 132.378906 " fill-opacity="1" fill-rule="nonzero"/><path fill="#312f30" d="M 85.808594 131.714844 C 86.417969 128.484375 86.929688 123.398438 86.152344 122.21875 C 86.089844 122.171875 85.988281 122.109375 85.910156 122.117188 C 84.203125 122.304688 82.011719 135.890625 83.445312 137.417969 C 84.054688 138.0625 85.070312 135.613281 85.808594 131.714844 " fill-opacity="1" fill-rule="nonzero"/><path fill="#312f30" d="M 91.585938 120.976562 C 92.496094 117.804688 93.234375 112.886719 92.03125 111.886719 C 91.976562 111.867188 91.910156 111.835938 91.855469 111.824219 C 89.503906 111.4375 86.019531 123.613281 87.664062 126.464844 C 88.515625 127.9375 90.3125 125.421875 91.585938 120.976562 " fill-opacity="1" fill-rule="nonzero"/><path fill="#312f30" d="M 94.023438 115.472656 C 95.035156 117.316406 97.535156 114.746094 99.273438 110.082031 C 100.425781 106.988281 101.34375 102.269531 99.78125 101.464844 C 96.859375 100.945312 92.226562 112.203125 94.023438 115.472656 " fill-opacity="1" fill-rule="nonzero"/><path fill="#312f30" d="M 93.601562 134.703125 C 94.1875 131.433594 94.160156 126.414062 92.277344 125.5 C 92.203125 125.488281 92.101562 125.457031 92.027344 125.453125 C 88.980469 125.292969 86.742188 136.957031 89.175781 140.3125 C 90.585938 142.261719 92.738281 139.53125 93.601562 134.703125 " fill-opacity="1" fill-rule="nonzero"/><path fill="#312f30" d="M 95.457031 128.640625 C 97.074219 131.015625 100.058594 128.226562 101.367188 123.113281 C 102.191406 119.902344 102.332031 115.054688 100.058594 114.339844 C 96 114.015625 93.167969 125.277344 95.457031 128.640625 " fill-opacity="1" fill-rule="nonzero"/><path fill="#312f30" d="M 122.261719 136.375 C 122.605469 133.042969 121.425781 128.269531 117.734375 128.066406 C 112.554688 128.539062 110.542969 137.769531 113.632812 141.882812 C 116.617188 145.855469 121.621094 142.664062 122.261719 136.375 " fill-opacity="1" fill-rule="nonzero"/><path fill="#312f30" d="M 131.738281 148.640625 C 131.789062 145.257812 129.957031 140.480469 125.734375 140.460938 C 119.804688 141.210938 118.582031 150.511719 122.601562 154.625 C 126.351562 158.460938 131.648438 154.996094 131.738281 148.640625 " fill-opacity="1" fill-rule="nonzero"/><path fill="#312f30" d="M 133.730469 167.023438 C 138.128906 170.683594 143.667969 166.96875 143.289062 160.605469 C 143.082031 157.183594 140.683594 152.441406 135.992188 152.609375 C 129.53125 153.621094 128.960938 163.050781 133.730469 167.023438 " fill-opacity="1" fill-rule="nonzero"/><path fill="#312f30" d="M 148.207031 164.429688 C 141.773438 165.613281 141.324219 174.429688 146.074219 178.511719 C 150.992188 182.738281 157.363281 178.902344 156.566406 172.195312 C 156.152344 168.757812 153.289062 164.074219 148.207031 164.429688 " fill-opacity="1" fill-rule="nonzero"/><path fill="#312f30" d="M 112.230469 115.566406 C 107.457031 115.800781 104.753906 125.574219 107.375 129.394531 C 109.679688 132.753906 113.964844 129.730469 115.144531 123.910156 C 115.804688 120.667969 115.335938 115.933594 112.230469 115.566406 " fill-opacity="1" fill-rule="nonzero"/><path fill="#312f30" d="M 103.527344 116.757812 C 105.195312 119.523438 108.882812 116.707031 110.574219 111.375 C 111.570312 108.242188 111.847656 103.597656 109.355469 103.089844 C 105.066406 103.078125 101.414062 113.253906 103.527344 116.757812 " fill-opacity="1" fill-rule="nonzero"/><path fill="#312f30" d="M 115.96875 181.238281 L 115.917969 181.324219 L 115.929688 181.332031 Z M 115.96875 181.238281 " fill-opacity="1" fill-rule="nonzero"/><path fill="#312f30" d="M 119.136719 194.140625 L 119.234375 194.230469 L 119.148438 194.140625 C 119.144531 194.140625 119.140625 194.140625 119.136719 194.140625 " fill-opacity="1" fill-rule="nonzero"/><path fill="#312f30" d="M 159.246094 236.367188 C 163.980469 238.21875 167.253906 235.671875 165.394531 231.582031 C 164.296875 229.167969 160.78125 225.859375 156.40625 226.050781 C 155.949219 226.121094 155.382812 226.207031 154.839844 226.480469 C 151.1875 228.328125 153.824219 234.242188 159.246094 236.367188 " fill-opacity="1" fill-rule="nonzero"/><path fill="#312f30" d="M 158.542969 245.894531 C 162.140625 246.589844 163.617188 244.433594 161.644531 241.375 C 160.367188 239.398438 156.824219 236.285156 152.75 236.328125 C 152.480469 236.347656 151.65625 236.402344 151.019531 236.863281 C 148.152344 238.929688 153.070312 244.835938 158.542969 245.894531 " fill-opacity="1" fill-rule="nonzero"/><path fill="#312f30" d="M 140.75 134.929688 C 140.921875 131.753906 139.328125 127.339844 135.234375 127.460938 C 130.242188 127.984375 127.792969 136.023438 131.320312 140.300781 C 134.683594 144.371094 140.410156 141.109375 140.75 134.929688 " fill-opacity="1" fill-rule="nonzero"/><path fill="#312f30" d="M 127.390625 115.738281 C 122.460938 116.382812 120.167969 124.730469 122.867188 128.441406 C 125.523438 132.09375 130.507812 129.226562 131.464844 123.488281 C 131.992188 120.320312 131.078125 115.820312 127.390625 115.738281 " fill-opacity="1" fill-rule="nonzero"/><path fill="#312f30" d="M 84.5625 122.097656 C 85.121094 121.800781 86.109375 118.734375 86.648438 116.933594 C 86.859375 116.21875 88.71875 109.929688 88.445312 108.398438 C 88.421875 108.351562 88.375 108.292969 88.324219 108.273438 C 88.300781 108.285156 88.261719 108.296875 88.238281 108.3125 C 86.964844 109.167969 83.597656 121.796875 84.5625 122.097656 " fill-opacity="1" fill-rule="nonzero"/><path fill="#312f30" d="M 170.707031 220.1875 C 169.828125 217.714844 166.777344 214.171875 161.960938 214.542969 C 161.597656 214.609375 161.113281 214.699219 160.765625 214.824219 C 156.265625 216.421875 157.578125 222.914062 162.925781 225.507812 C 167.535156 227.746094 172.511719 225.28125 170.707031 220.1875 " fill-opacity="1" fill-rule="nonzero"/><path fill="#312f30" d="M 151.261719 258.664062 C 151.925781 258.554688 150.429688 257.28125 148.808594 256.125 C 146.964844 254.816406 142.835938 252.179688 140.402344 251.582031 C 140.109375 251.542969 139.859375 251.507812 139.792969 251.671875 C 139.335938 252.820312 149.410156 258.964844 151.261719 258.664062 " fill-opacity="1" fill-rule="nonzero"/><path fill="#312f30" d="M 159.085938 253.527344 C 161.617188 253.703125 161.957031 252.144531 159.902344 249.824219 C 158.554688 248.304688 154.996094 245.394531 151.191406 245.28125 C 150.683594 245.316406 150.203125 245.347656 149.800781 245.648438 C 147.476562 247.382812 154.332031 253.199219 159.085938 253.527344 " fill-opacity="1" fill-rule="nonzero"/><path fill="#312f30" d="M 116.894531 116.476562 C 118.742188 119.195312 123.054688 117.117188 124.480469 111.644531 C 125.003906 109.640625 125.578125 104.378906 122.019531 104.128906 C 117.515625 104.550781 114.628906 113.144531 116.894531 116.476562 " fill-opacity="1" fill-rule="nonzero"/><path fill="#312f30" d="M 92.425781 106.988281 C 93.375 104.660156 95.003906 99.964844 94.371094 98.863281 C 94.339844 98.839844 94.300781 98.804688 94.265625 98.792969 C 92.8125 98.292969 88.214844 109.792969 89.082031 111.746094 C 89.507812 112.699219 90.914062 110.699219 92.425781 106.988281 " fill-opacity="1" fill-rule="nonzero"/><path fill="#312f30" d="M 145.355469 139.195312 C 139.269531 140.3125 138.714844 148.472656 142.085938 151.984375 C 145.707031 155.753906 152.109375 153.101562 151.945312 146.40625 C 151.839844 142.011719 148.882812 138.773438 145.355469 139.195312 " fill-opacity="1" fill-rule="nonzero"/><path fill="#312f30" d="M 170.464844 183.339844 C 169.941406 180.34375 167.292969 176.074219 162.136719 176.582031 C 156.03125 177.546875 155.933594 185.976562 160.660156 189.484375 C 165.183594 192.839844 171.601562 189.839844 170.464844 183.339844 " fill-opacity="1" fill-rule="nonzero"/><path fill="#312f30" d="M 168.375 213.082031 C 173.359375 216.199219 178.871094 212.972656 177.589844 207.691406 C 176.691406 203.980469 172.683594 201.203125 169.011719 201.746094 C 168.824219 201.785156 168.574219 201.824219 168.390625 201.875 C 163.332031 203.21875 163.324219 209.921875 168.375 213.082031 " fill-opacity="1" fill-rule="nonzero"/><path fill="#312f30" d="M 108.894531 91.496094 C 105.714844 91.296875 101.378906 100.742188 102.585938 103.511719 C 103.457031 105.519531 106.335938 103.28125 108.285156 99.082031 C 109.476562 96.511719 110.695312 92.179688 108.894531 91.496094 " fill-opacity="1" fill-rule="nonzero"/><path fill="#312f30" d="M 161.511719 259.652344 C 162.75 259.546875 162.328125 258.398438 160.492188 256.859375 C 157.988281 254.765625 153.960938 252.851562 151.867188 252.765625 C 151.484375 252.773438 151.121094 252.78125 150.882812 253 C 149.3125 254.476562 158.050781 259.945312 161.511719 259.652344 " fill-opacity="1" fill-rule="nonzero"/><path fill="#312f30" d="M 119.234375 92.589844 C 115.667969 92.824219 111.65625 100.613281 113.273438 104.167969 C 114.5625 107 118.460938 104.367188 120.226562 99.46875 C 121.183594 96.804688 121.511719 92.910156 119.234375 92.589844 " fill-opacity="1" fill-rule="nonzero"/><path fill="#312f30" d="M 95.765625 101.394531 C 96.234375 102.640625 98.304688 100.429688 100.199219 96.664062 C 101.460938 94.148438 102.949219 90.074219 102.128906 89.3125 C 102.125 89.3125 102.117188 89.308594 102.113281 89.304688 C 100.203125 88.566406 94.804688 98.847656 95.765625 101.394531 " fill-opacity="1" fill-rule="nonzero"/><path fill="#312f30" d="M 157.429688 150.699219 C 151.960938 151.558594 150.394531 159.53125 154.929688 163.433594 C 159.375 167.265625 165.40625 163.644531 164.855469 157.476562 C 164.582031 154.398438 162.09375 150.257812 157.429688 150.699219 " fill-opacity="1" fill-rule="nonzero"/><path fill="#312f30" d="M 180.132812 239.519531 C 178.988281 236.761719 174.929688 234.515625 171.785156 234.894531 C 171.496094 234.945312 171.109375 235.019531 170.832031 235.117188 C 167.34375 236.359375 168.214844 241.054688 173.558594 243.316406 C 178.332031 245.335938 181.5 242.816406 180.132812 239.519531 " fill-opacity="1" fill-rule="nonzero"/><path fill="#312f30" d="M 176.292969 248.5625 C 175.101562 246.746094 171.570312 244.320312 168.027344 244.484375 C 167.390625 244.550781 166.867188 244.726562 166.472656 245.011719 C 163.972656 246.824219 167.804688 251.242188 172.777344 252.285156 C 176.601562 253.082031 177.824219 250.898438 176.292969 248.5625 " fill-opacity="1" fill-rule="nonzero"/><path fill="#312f30" d="M 144.984375 114.5625 C 140.863281 115.101562 137.878906 122.089844 141.15625 126.101562 C 144.179688 129.800781 149.453125 126.898438 149.972656 121.242188 C 150.242188 118.308594 148.660156 114.355469 144.984375 114.5625 " fill-opacity="1" fill-rule="nonzero"/><path fill="#312f30" d="M 140.992188 110.144531 C 141.636719 106.46875 139.878906 103.316406 137.308594 103.527344 C 132.996094 104.25 130.28125 111.425781 132.972656 114.984375 C 135.542969 118.386719 140.160156 114.914062 140.992188 110.144531 " fill-opacity="1" fill-rule="nonzero"/><path fill="#312f30" d="M 95.816406 93.648438 C 96.347656 92.660156 99.007812 87.667969 98.910156 86.425781 C 98.898438 86.402344 98.886719 86.367188 98.867188 86.351562 C 98.03125 85.734375 92.441406 96.328125 92.882812 97.683594 C 93.058594 98.21875 94.179688 96.671875 95.816406 93.648438 " fill-opacity="1" fill-rule="nonzero"/><path fill="#312f30" d="M 127.019531 103.484375 C 128.648438 106.308594 133.003906 104.160156 134.347656 98.816406 C 134.960938 96.390625 134.867188 92.757812 132.105469 92.707031 C 128.097656 93.246094 125.257812 100.417969 127.019531 103.484375 " fill-opacity="1" fill-rule="nonzero"/><path fill="#312f30" d="M 154.941406 125.660156 C 150.121094 126.414062 148.1875 133.898438 151.898438 137.433594 C 155.5 140.867188 161.089844 137.457031 160.960938 131.90625 C 160.898438 129.277344 159.210938 125.257812 154.941406 125.660156 " fill-opacity="1" fill-rule="nonzero"/><path fill="#312f30" d="M 185.398438 228.5 C 184.25 225.542969 180.675781 223.523438 177.425781 224.003906 C 177.105469 224.066406 176.679688 224.15625 176.371094 224.265625 C 172.300781 225.726562 173.195312 231.015625 177.894531 233.25 C 182.605469 235.492188 187.027344 232.695312 185.398438 228.5 " fill-opacity="1" fill-rule="nonzero"/><path fill="#312f30" d="M 174.417969 256.214844 C 172.414062 254.148438 168.824219 252.578125 166.414062 252.707031 C 166.015625 252.75 165.34375 252.820312 164.964844 253.21875 C 163.359375 254.90625 169.335938 259.136719 173.492188 259.25 C 175.800781 259.316406 176.191406 258.039062 174.417969 256.214844 " fill-opacity="1" fill-rule="nonzero"/><path fill="#312f30" d="M 118.984375 81.554688 C 116.335938 81.3125 111.410156 89.167969 112.398438 92.066406 C 113.085938 94.09375 116.140625 92.441406 118.433594 87.902344 C 119.453125 85.886719 120.878906 81.96875 118.984375 81.554688 " fill-opacity="1" fill-rule="nonzero"/><path fill="#312f30" d="M 165.332031 264.285156 C 165.917969 264.167969 165.035156 263.386719 162.972656 262.203125 C 162.464844 261.914062 157.925781 259.34375 155.058594 258.9375 C 154.757812 258.917969 154.472656 258.902344 154.375 259.046875 C 153.722656 260.019531 163.449219 264.667969 165.332031 264.285156 " fill-opacity="1" fill-rule="nonzero"/><path fill="#312f30" d="M 192.378906 216.675781 C 191.808594 214.363281 189.246094 211.148438 184.519531 211.769531 C 184.519531 211.773438 184.515625 211.773438 184.515625 211.773438 C 184.515625 211.773438 184.511719 211.773438 184.511719 211.773438 C 184.511719 211.773438 184.511719 211.773438 184.507812 211.773438 C 184.507812 211.773438 184.503906 211.773438 184.503906 211.773438 C 183.78125 211.9375 182.277344 212.285156 181.257812 213.664062 C 178.824219 216.949219 182.117188 223.242188 188.476562 222.402344 C 188.476562 222.402344 188.476562 222.402344 188.480469 222.402344 C 188.480469 222.398438 188.480469 222.398438 188.480469 222.398438 C 188.480469 222.398438 188.480469 222.398438 188.484375 222.398438 C 188.488281 222.398438 188.488281 222.398438 188.488281 222.398438 C 188.492188 222.398438 188.492188 222.398438 188.492188 222.398438 C 193.367188 221.277344 192.496094 217.144531 192.378906 216.675781 " fill-opacity="1" fill-rule="nonzero"/><path fill="#312f30" d="M 185.382812 193.945312 C 184.921875 191.292969 182.292969 187.3125 177.210938 187.929688 C 171.292969 189.3125 171.320312 196.546875 175.941406 199.578125 C 180.675781 202.679688 186.324219 199.3125 185.382812 193.945312 " fill-opacity="1" fill-rule="nonzero"/><path fill="#312f30" d="M 171.171875 162.101562 C 165.707031 163.109375 164.554688 170.953125 169.355469 174.441406 C 173.960938 177.785156 179.75 174.015625 178.886719 168.238281 C 178.382812 164.863281 175.507812 161.5625 171.171875 162.101562 " fill-opacity="1" fill-rule="nonzero"/><path fill="#312f30" d="M 89.972656 102.820312 C 90.773438 100.910156 92.65625 96.339844 92.894531 95.203125 C 92.898438 95.175781 92.894531 95.136719 92.898438 95.109375 C 92.878906 95.109375 92.851562 95.109375 92.832031 95.109375 C 92.042969 96.078125 87.628906 106.507812 88 107.148438 C 88.117188 106.988281 88.390625 106.605469 89.972656 102.820312 " fill-opacity="1" fill-rule="nonzero"/><path fill="#312f30" d="M 153.835938 260.886719 C 148.625 258.191406 147.140625 257.539062 146.371094 257.261719 C 146.371094 257.261719 146.371094 257.261719 146.371094 257.257812 C 146.367188 257.257812 146.367188 257.257812 146.367188 257.257812 C 146.363281 257.257812 146.363281 257.257812 146.363281 257.257812 C 146.289062 257.234375 146.1875 257.207031 146.113281 257.195312 C 146.109375 257.214844 146.101562 257.238281 146.097656 257.257812 C 147.179688 258.277344 156.28125 262.671875 157.359375 262.835938 C 157.316406 262.746094 157.285156 262.671875 153.835938 260.886719 " fill-opacity="1" fill-rule="nonzero"/><path fill="#312f30" d="M 104.28125 90.734375 C 104.667969 92.085938 106.789062 90.753906 109.222656 86.683594 C 109.359375 86.449219 112.632812 80.933594 111.21875 80.0625 C 108.789062 79.679688 103.667969 88.566406 104.28125 90.734375 " fill-opacity="1" fill-rule="nonzero"/><path fill="#312f30" d="M 175.371094 264.578125 C 175.371094 264.578125 175.375 264.578125 175.375 264.578125 C 175.378906 264.578125 175.378906 264.578125 175.378906 264.578125 C 175.460938 264.574219 175.574219 264.570312 175.65625 264.5625 C 176.820312 264.425781 176.503906 263.578125 174.847656 262.398438 C 172.507812 260.726562 168.988281 259.382812 167.007812 259.40625 C 166.652344 259.433594 166.289062 259.453125 166.058594 259.644531 C 164.796875 260.6875 171.214844 264.496094 175.371094 264.578125 " fill-opacity="1" fill-rule="nonzero"/><path fill="#312f30" d="M 129.507812 82.035156 C 129.109375 82.078125 128.507812 82.140625 127.496094 82.964844 C 123.859375 85.914062 121.8125 92.914062 125.25 93.160156 C 125.25 93.160156 125.253906 93.160156 125.253906 93.160156 C 125.253906 93.160156 125.253906 93.160156 125.257812 93.160156 C 128.097656 92.871094 129.957031 88.664062 130.15625 88.1875 C 131.414062 85.21875 131.449219 82.039062 129.507812 82.035156 " fill-opacity="1" fill-rule="nonzero"/><path fill="#312f30" d="M 106.675781 77.652344 C 105.773438 77.441406 98.972656 86.433594 99.886719 88.277344 C 99.886719 88.277344 99.886719 88.277344 99.886719 88.28125 C 99.886719 88.28125 99.890625 88.28125 99.890625 88.28125 C 100.675781 88.734375 103.421875 84.574219 103.730469 84.097656 C 104.710938 82.597656 107.167969 78.519531 106.765625 77.699219 C 106.738281 77.6875 106.707031 77.660156 106.675781 77.652344 " fill-opacity="1" fill-rule="nonzero"/><path fill="#312f30" d="M 166.921875 136.644531 C 161.058594 138.019531 160.945312 145.347656 164.417969 148.277344 C 168.023438 151.324219 174.058594 148.574219 173.65625 142.734375 C 173.386719 138.777344 170.367188 136.046875 166.921875 136.644531 " fill-opacity="1" fill-rule="nonzero"/><path fill="#312f30" d="M 180.546875 147.425781 C 175.679688 148.6875 174.273438 154.929688 178.082031 158.371094 C 182.464844 162.335938 188.132812 158.390625 187.683594 153.226562 C 187.441406 150.410156 184.824219 146.832031 180.546875 147.425781 " fill-opacity="1" fill-rule="nonzero"/><path fill="#312f30" d="M 193.84375 178.96875 C 193.34375 175.28125 189.585938 172.4375 186.105469 173.117188 C 181.105469 174.4375 179.914062 180.941406 184.046875 184.347656 C 188.925781 188.363281 194.5625 184.308594 193.84375 178.96875 " fill-opacity="1" fill-rule="nonzero"/><path fill="#312f30" d="M 200.347656 203.234375 C 199.742188 200.039062 196.050781 197.640625 192.75 198.292969 C 187.839844 199.574219 186.898438 205.367188 191.121094 208.292969 C 195.949219 211.632812 201.226562 207.886719 200.347656 203.234375 " fill-opacity="1" fill-rule="nonzero"/><path fill="#312f30" d="M 114.226562 80.351562 C 114.464844 82.082031 117.273438 79.820312 119.402344 76.753906 C 120.933594 74.554688 122.488281 71.28125 121.433594 70.859375 C 119.191406 70.78125 113.871094 77.792969 114.226562 80.351562 " fill-opacity="1" fill-rule="nonzero"/><path fill="#312f30" d="M 194.199219 246.128906 C 193.292969 243.90625 189.703125 242.121094 186.953125 242.527344 C 186.695312 242.578125 186.351562 242.652344 186.105469 242.742188 C 183.1875 243.804688 183.582031 247.414062 187.804688 249.253906 C 192.121094 251.132812 195.351562 248.960938 194.199219 246.128906 " fill-opacity="1" fill-rule="nonzero"/><path fill="#312f30" d="M 160.546875 263.644531 C 160.46875 263.632812 160.363281 263.621094 160.289062 263.621094 C 160.277344 263.640625 160.265625 263.667969 160.257812 263.6875 C 161.179688 264.59375 169.210938 267.398438 171.035156 267.675781 C 171.054688 267.660156 171.078125 267.636719 171.09375 267.625 C 170.789062 267.429688 169.722656 266.96875 167.921875 266.253906 C 167.355469 266.03125 162.34375 264.054688 160.546875 263.644531 " fill-opacity="1" fill-rule="nonzero"/><path fill="#312f30" d="M 123.164062 81.0625 C 123.765625 82.941406 126.722656 80.980469 128.8125 77.320312 C 129.949219 75.328125 131.148438 72.066406 129.523438 71.785156 C 126.875 71.972656 122.359375 78.5625 123.164062 81.0625 " fill-opacity="1" fill-rule="nonzero"/><path fill="#312f30" d="M 179.410156 268.390625 C 179.855469 268.132812 177.949219 267.21875 177.351562 266.941406 C 175.054688 265.882812 171.570312 264.695312 169.945312 264.625 C 169.6875 264.628906 169.421875 264.632812 169.339844 264.765625 C 168.765625 265.714844 178.175781 269.101562 179.410156 268.390625 " fill-opacity="1" fill-rule="nonzero"/><path fill="#312f30" d="M 154.574219 101.90625 C 150.507812 102.8125 148.496094 109.039062 151.265625 112.15625 C 153.960938 115.191406 158.675781 112.378906 159.027344 107.527344 C 159.269531 104.214844 157.144531 101.539062 154.574219 101.90625 " fill-opacity="1" fill-rule="nonzero"/><path fill="#312f30" d="M 147.0625 91.644531 C 143.429688 92.371094 140.988281 98.300781 143.039062 101.410156 C 145.0625 104.476562 149.472656 101.941406 150.296875 97.238281 C 150.855469 94.054688 149.3125 91.386719 147.0625 91.644531 " fill-opacity="1" fill-rule="nonzero"/><path fill="#312f30" d="M 186.613281 257.472656 C 190.179688 258.214844 191.59375 256.425781 190.25 254.441406 C 188.964844 252.542969 185.546875 251.082031 183.085938 251.378906 C 182.621094 251.460938 182.179688 251.535156 181.726562 251.847656 C 179.558594 253.335938 182.390625 256.589844 186.613281 257.472656 " fill-opacity="1" fill-rule="nonzero"/><path fill="#312f30" d="M 108.589844 78.527344 C 108.75 79.46875 110.640625 77.921875 112.894531 75 C 112.933594 74.949219 116.71875 70.027344 116.003906 69.234375 C 114.507812 68.828125 108.273438 76.640625 108.589844 78.527344 " fill-opacity="1" fill-rule="nonzero"/><path fill="#312f30" d="M 187.382812 263.6875 C 189.394531 263.660156 189.761719 262.636719 188.261719 261.25 C 187.070312 260.152344 184.25 258.578125 181.355469 258.742188 C 181.007812 258.78125 180.375 258.886719 180.050781 259.210938 C 178.613281 260.640625 183.6875 263.734375 187.382812 263.6875 " fill-opacity="1" fill-rule="nonzero"/><path fill="#312f30" d="M 142.035156 81.632812 C 138.886719 81.945312 135.839844 88.242188 137.511719 90.988281 C 138.882812 93.25 142.679688 91.339844 143.910156 86.921875 C 144.511719 84.765625 144.507812 81.582031 142.035156 81.632812 " fill-opacity="1" fill-rule="nonzero"/><path fill="#312f30" d="M 164.40625 112.324219 C 160.164062 113.085938 158.441406 119.550781 161.652344 122.648438 C 164.574219 125.46875 169.914062 122.988281 169.769531 117.710938 C 169.703125 115.292969 168.21875 111.863281 164.40625 112.324219 " fill-opacity="1" fill-rule="nonzero"/><path fill="#312f30" d="M 199.664062 235.941406 C 199.0625 234.246094 196.632812 231.761719 192.667969 232.296875 C 192.386719 232.347656 191.960938 232.449219 191.535156 232.628906 C 188.203125 234.027344 188.851562 238.214844 192.675781 239.972656 C 196.714844 241.832031 200.894531 239.421875 199.664062 235.941406 " fill-opacity="1" fill-rule="nonzero"/><path fill="#312f30" d="M 101.582031 80.914062 C 103.1875 78.578125 105.160156 75.613281 105.421875 74.734375 C 105.414062 74.707031 105.398438 74.671875 105.386719 74.644531 C 104.445312 74.964844 98.777344 83.472656 99.007812 84.226562 C 99.113281 84.1875 99.394531 84.09375 101.582031 80.914062 " fill-opacity="1" fill-rule="nonzero"/><path fill="#312f30" d="M 109.539062 72.449219 C 109.578125 72.402344 113.445312 67.75 113.449219 66.871094 C 113.4375 66.859375 113.425781 66.839844 113.414062 66.828125 C 112.316406 66.777344 105.703125 74.941406 106.265625 75.652344 C 106.75 75.691406 108.523438 73.660156 109.539062 72.449219 " fill-opacity="1" fill-rule="nonzero"/><path fill="#312f30" d="M 175.300781 268.402344 C 175.046875 268.386719 175.046875 268.386719 174.976562 268.449219 C 175.578125 269.035156 184.050781 271.125 184.835938 270.878906 C 184.730469 270.824219 184.558594 270.726562 182.160156 270.0625 C 178.714844 269.105469 176.402344 268.546875 175.300781 268.402344 " fill-opacity="1" fill-rule="nonzero"/><path fill="#312f30" d="M 195.398438 158.132812 C 190.753906 159.207031 189.554688 165.460938 193.394531 168.582031 C 197.519531 171.9375 203.171875 168.613281 202.421875 163.273438 C 202.0625 160.703125 199.644531 157.40625 195.398438 158.132812 " fill-opacity="1" fill-rule="nonzero"/><path fill="#312f30" d="M 203.105469 229.558594 C 203.109375 229.558594 203.109375 229.558594 203.109375 229.558594 C 203.113281 229.558594 203.113281 229.558594 203.113281 229.558594 C 203.117188 229.554688 203.117188 229.554688 203.117188 229.554688 C 203.117188 229.554688 203.121094 229.554688 203.121094 229.554688 C 203.121094 229.554688 203.125 229.554688 203.125 229.554688 C 203.125 229.554688 203.128906 229.554688 203.128906 229.554688 C 203.128906 229.554688 203.128906 229.554688 203.132812 229.554688 C 207.46875 228.472656 206.789062 224.984375 206.695312 224.589844 C 206.246094 222.664062 204.054688 220.035156 199.871094 220.691406 C 198.222656 221.03125 197.339844 221.902344 196.960938 222.390625 C 194.5625 225.476562 197.890625 230.355469 203.105469 229.558594 " fill-opacity="1" fill-rule="nonzero"/><path fill="#312f30" d="M 139.644531 71.851562 C 137.09375 72.027344 133.589844 77.71875 134.4375 80.308594 C 135.144531 82.464844 138.394531 80.933594 140.164062 76.804688 C 140.972656 74.921875 141.546875 71.910156 139.644531 71.851562 " fill-opacity="1" fill-rule="nonzero"/><path fill="#312f30" d="M 118.761719 69.082031 C 118.730469 70.167969 120.84375 68.699219 123.289062 65.941406 C 124.546875 64.523438 126.941406 61.441406 126.332031 60.984375 C 124.761719 60.824219 118.816406 67.183594 118.761719 69.082031 " fill-opacity="1" fill-rule="nonzero"/><path fill="#312f30" d="M 189.464844 268.089844 C 190.195312 267.867188 189.753906 267.210938 188.339844 266.410156 C 187.152344 265.738281 184.261719 264.480469 181.835938 264.535156 C 181.835938 264.535156 181.832031 264.535156 181.832031 264.535156 C 181.832031 264.535156 181.828125 264.539062 181.828125 264.539062 C 181.828125 264.539062 181.824219 264.539062 181.824219 264.539062 C 181.824219 264.539062 181.820312 264.539062 181.820312 264.539062 C 181.53125 264.566406 181.050781 264.617188 180.890625 264.859375 C 180.074219 266.082031 187.207031 268.769531 189.464844 268.089844 " fill-opacity="1" fill-rule="nonzero"/><path fill="#312f30" d="M 176.246094 122.671875 C 176.246094 122.671875 176.246094 122.671875 176.242188 122.671875 C 176.242188 122.671875 176.242188 122.671875 176.238281 122.671875 C 176.234375 122.671875 176.234375 122.671875 176.234375 122.675781 C 176.230469 122.675781 176.230469 122.675781 176.230469 122.675781 C 176.226562 122.675781 176.226562 122.675781 176.226562 122.675781 C 176.226562 122.675781 176.222656 122.675781 176.222656 122.675781 C 176.222656 122.675781 176.21875 122.675781 176.21875 122.675781 C 171.027344 124.074219 171.070312 130.660156 174.222656 133.070312 C 177.804688 135.804688 182.703125 132.625 182.28125 127.832031 C 182.082031 125.523438 180.265625 122.082031 176.246094 122.671875 " fill-opacity="1" fill-rule="nonzero"/><path fill="#312f30" d="M 169.589844 267.425781 L 169.921875 267.523438 C 169.675781 267.449219 169.421875 267.375 169.183594 267.300781 L 169.589844 267.425781 " fill-opacity="1" fill-rule="nonzero"/><path fill="#312f30" d="M 208.824219 188.613281 C 208.210938 185.34375 204.964844 183.1875 201.734375 183.898438 C 196.503906 185.363281 196.277344 191.59375 200.207031 194.132812 C 204.417969 196.851562 209.730469 193.445312 208.824219 188.613281 " fill-opacity="1" fill-rule="nonzero"/><path fill="#312f30" d="M 125.226562 70.304688 C 125.492188 71.601562 127.984375 69.90625 130.261719 66.882812 C 131.339844 65.449219 133.21875 62.394531 132.128906 62.101562 C 130.410156 61.953125 124.769531 68.066406 125.226562 70.304688 " fill-opacity="1" fill-rule="nonzero"/><path fill="#312f30" d="M 214.863281 211.921875 C 214.574219 209.457031 211.773438 207.128906 208.214844 207.738281 C 204.101562 208.878906 202.929688 213.390625 206.085938 215.921875 C 210.082031 219.132812 215.335938 216.007812 214.863281 211.921875 " fill-opacity="1" fill-rule="nonzero"/><path fill="#312f30" d="M 192.734375 271.085938 C 193.078125 270.894531 191.53125 270.335938 191.050781 270.171875 C 189.082031 269.492188 185.949219 268.742188 184.605469 268.761719 C 184.40625 268.769531 184.078125 268.789062 184.078125 268.945312 C 184.070312 269.722656 191.757812 271.625 192.734375 271.085938 " fill-opacity="1" fill-rule="nonzero"/><path fill="#312f30" d="M 189.804688 132.851562 C 189.804688 132.851562 189.800781 132.851562 189.800781 132.851562 C 189.800781 132.851562 189.800781 132.851562 189.796875 132.851562 C 189.796875 132.851562 189.796875 132.851562 189.792969 132.851562 C 189.789062 132.851562 189.789062 132.851562 189.789062 132.851562 C 189.789062 132.855469 189.785156 132.855469 189.785156 132.855469 C 189.785156 132.855469 189.78125 132.855469 189.78125 132.855469 C 189.78125 132.855469 189.78125 132.855469 189.777344 132.855469 C 185.25 134.171875 184.304688 140.363281 188.226562 143.050781 C 192.332031 145.871094 196.824219 141.988281 196.179688 137.589844 C 195.832031 135.234375 193.425781 132.273438 189.804688 132.851562 " fill-opacity="1" fill-rule="nonzero"/><path fill="#312f30" d="M 134.191406 70.335938 C 134.632812 71.835938 137.269531 70.082031 139.140625 67.050781 C 140.007812 65.640625 141.339844 62.679688 139.921875 62.503906 C 137.597656 62.789062 133.585938 68.277344 134.191406 70.335938 " fill-opacity="1" fill-rule="nonzero"/><path fill="#312f30" d="M 115.332031 67.058594 C 115.332031 67.058594 115.332031 67.058594 115.335938 67.058594 C 115.335938 67.058594 115.335938 67.058594 115.335938 67.0625 C 115.894531 67.292969 118.460938 64.714844 119.234375 63.917969 C 119.390625 63.757812 123.066406 59.964844 122.886719 59.308594 C 122.871094 59.300781 122.84375 59.285156 122.824219 59.28125 C 122.066406 59.152344 114.808594 65.757812 115.332031 67.058594 " fill-opacity="1" fill-rule="nonzero"/><path fill="#312f30" d="M 207.144531 251.523438 C 206.546875 250.238281 204.355469 248.617188 201.351562 249.027344 C 200.929688 249.105469 200.503906 249.25 200.183594 249.421875 C 197.945312 250.621094 198.921875 253.324219 201.992188 254.402344 C 205.257812 255.554688 208.246094 253.886719 207.144531 251.523438 " fill-opacity="1" fill-rule="nonzero"/><path fill="#312f30" d="M 160.957031 98.363281 C 163.335938 100.933594 167.386719 98.28125 167.425781 94.125 C 167.445312 92.121094 166.265625 89.4375 163.582031 89.746094 C 160.285156 90.359375 158.617188 95.835938 160.957031 98.363281 " fill-opacity="1" fill-rule="nonzero"/><path fill="#312f30" d="M 199.832031 261.585938 C 202.628906 262.089844 204.3125 260.890625 203.167969 259.207031 C 202.167969 257.738281 199.457031 256.722656 197.363281 257.027344 C 197.027344 257.09375 196.460938 257.203125 196.03125 257.542969 C 194.523438 258.742188 196.652344 261.007812 199.832031 261.585938 " fill-opacity="1" fill-rule="nonzero"/><path fill="#312f30" d="M 156.210938 80.332031 C 152.898438 81.0625 151.328125 86.574219 153.167969 88.679688 C 154.871094 90.625 158.445312 88.683594 158.96875 84.703125 C 159.277344 82.367188 158.3125 80.03125 156.210938 80.332031 " fill-opacity="1" fill-rule="nonzero"/><path fill="#312f30" d="M 212.871094 242.21875 C 212.40625 240.84375 210.507812 238.992188 207.195312 239.53125 C 207.035156 239.566406 206.691406 239.660156 206.6875 239.660156 C 203.3125 240.683594 203.695312 244.097656 206.492188 245.550781 C 209.902344 247.324219 213.894531 245.238281 212.871094 242.21875 " fill-opacity="1" fill-rule="nonzero"/><path fill="#312f30" d="M 151.378906 71.125 C 148.835938 71.449219 146.332031 76.628906 147.660156 78.820312 C 148.769531 80.652344 151.878906 79.070312 152.90625 75.460938 C 153.417969 73.660156 153.4375 71.015625 151.378906 71.125 " fill-opacity="1" fill-rule="nonzero"/><path fill="#312f30" d="M 173.285156 99.386719 C 169.050781 100.492188 168.824219 106.097656 171.265625 108.199219 C 173.792969 110.375 178.136719 108.199219 177.933594 103.875 C 177.796875 100.925781 175.710938 98.914062 173.285156 99.386719 " fill-opacity="1" fill-rule="nonzero"/><path fill="#312f30" d="M 200.296875 266.90625 C 201.890625 266.804688 202.203125 266.066406 201.0625 265.109375 C 199.867188 264.105469 197.453125 263.210938 195.480469 263.449219 C 195.175781 263.5 194.667969 263.582031 194.386719 263.847656 C 193.210938 264.949219 197.351562 267.09375 200.296875 266.90625 " fill-opacity="1" fill-rule="nonzero"/><path fill="#312f30" d="M 201.945312 270.421875 C 202.515625 270.25 202.210938 269.835938 201.152344 269.347656 C 200.019531 268.824219 197.660156 268.089844 195.792969 268.210938 C 195.503906 268.238281 195.140625 268.308594 195.023438 268.484375 C 194.46875 269.328125 200.226562 270.941406 201.945312 270.421875 " fill-opacity="1" fill-rule="nonzero"/><path fill="#312f30" d="M 136.589844 60.613281 C 136.796875 61.53125 138.871094 60.160156 140.859375 57.789062 C 142.425781 55.925781 143.574219 53.886719 142.792969 53.820312 C 140.957031 53.980469 136.261719 59.125 136.589844 60.613281 " fill-opacity="1" fill-rule="nonzero"/><path fill="#312f30" d="M 189.835938 271.464844 C 189.617188 271.460938 189.617188 271.460938 189.566406 271.507812 C 190.132812 271.863281 197.414062 272.828125 197.945312 272.617188 C 197.757812 272.570312 197.507812 272.53125 195.570312 272.238281 C 192.511719 271.773438 190.824219 271.515625 189.835938 271.464844 " fill-opacity="1" fill-rule="nonzero"/><path fill="#312f30" d="M 149.542969 66.246094 C 150.433594 64.269531 150.523438 62.132812 149.226562 62.230469 C 146.929688 62.652344 144.0625 67.4375 144.964844 69.347656 C 145.695312 70.890625 148.222656 69.183594 149.542969 66.246094 " fill-opacity="1" fill-rule="nonzero"/><path fill="#312f30" d="M 125.792969 58.582031 C 125.679688 59.214844 127.382812 58.109375 129.753906 56.019531 C 129.792969 55.984375 133.710938 52.496094 133.425781 52.03125 C 132.375 51.839844 126.027344 57.289062 125.792969 58.582031 " fill-opacity="1" fill-rule="nonzero"/><path fill="#312f30" d="M 211.007812 168.6875 C 206.070312 170.171875 206.269531 175.871094 209.183594 178.210938 C 212.589844 180.945312 218.210938 178.433594 217.484375 173.316406 C 217.011719 170.003906 214.105469 167.925781 211.007812 168.6875 " fill-opacity="1" fill-rule="nonzero"/><path fill="#312f30" d="M 137.160156 53.214844 C 135.644531 53.1875 129.871094 58.664062 129.980469 60.03125 C 130.035156 60.742188 131.734375 59.84375 134.386719 57.160156 C 134.527344 57.011719 137.902344 53.582031 137.160156 53.214844 " fill-opacity="1" fill-rule="nonzero"/><path fill="#312f30" d="M 217.320312 193.796875 C 212.882812 194.921875 212.355469 200.160156 215.496094 202.378906 C 219.007812 204.859375 224.082031 201.90625 223.484375 197.730469 C 223.207031 195.789062 221.285156 193.003906 217.320312 193.796875 " fill-opacity="1" fill-rule="nonzero"/><path fill="#312f30" d="M 113.570312 63.996094 C 113.582031 63.976562 113.578125 63.941406 113.582031 63.917969 C 112.867188 64.234375 107.125 71.019531 107.113281 71.558594 C 107.273438 71.457031 107.703125 71.003906 109.582031 68.816406 C 112.664062 65.230469 113.324219 64.40625 113.570312 63.996094 " fill-opacity="1" fill-rule="nonzero"/><path fill="#312f30" d="M 204.597656 143.09375 C 199.625 144.605469 200.035156 150.527344 203.242188 152.65625 C 206.949219 155.117188 211.570312 151.984375 210.847656 147.5 C 210.351562 144.40625 207.488281 142.390625 204.597656 143.09375 " fill-opacity="1" fill-rule="nonzero"/><path fill="#312f30" d="M 185.035156 108.984375 C 180.878906 110.171875 180.527344 115.667969 183.558594 117.863281 C 186.730469 120.160156 190.882812 117.230469 190.289062 113.113281 C 190.015625 111.226562 188.347656 108.4375 185.035156 108.984375 " fill-opacity="1" fill-rule="nonzero"/><path fill="#312f30" d="M 220.101562 231.554688 C 219.71875 229.679688 217.636719 227.992188 214.523438 228.5625 C 210.691406 229.449219 210.285156 233.246094 212.914062 235.054688 C 216.089844 237.242188 220.792969 234.953125 220.101562 231.554688 " fill-opacity="1" fill-rule="nonzero"/><path fill="#312f30" d="M 117.746094 61.367188 C 117.785156 61.332031 121.578125 57.6875 121.828125 57.046875 C 121.828125 57.046875 121.828125 57.046875 121.816406 57.011719 C 121 56.980469 114.542969 63.265625 114.691406 63.945312 C 114.980469 63.972656 116.730469 62.34375 117.746094 61.367188 " fill-opacity="1" fill-rule="nonzero"/><path fill="#312f30" d="M 197.421875 127.238281 C 200.992188 129.570312 204.703125 126.21875 204.035156 122.5 C 203.683594 120.5625 201.683594 117.980469 198.496094 118.582031 C 195.035156 119.460938 193.800781 124.871094 197.421875 127.238281 " fill-opacity="1" fill-rule="nonzero"/><path fill="#312f30" d="M 228.378906 219.363281 C 228.121094 217.40625 226 215.671875 223.027344 216.261719 C 219.816406 217.070312 218.171875 220.949219 221.058594 223.101562 C 224.371094 225.578125 228.820312 222.703125 228.378906 219.363281 " fill-opacity="1" fill-rule="nonzero"/><path fill="#312f30" d="M 198.488281 271.355469 C 198.171875 271.382812 198.082031 271.410156 198.054688 271.492188 C 198.351562 272.074219 204.222656 272.714844 204.976562 272.429688 C 204.980469 272.414062 204.980469 272.394531 204.984375 272.378906 C 204.921875 272.335938 204.761719 272.214844 203.328125 271.929688 C 202.792969 271.824219 200.042969 271.300781 198.488281 271.355469 " fill-opacity="1" fill-rule="nonzero"/><path fill="#312f30" d="M 144.9375 60.035156 C 145.140625 61.226562 147.144531 60.164062 148.914062 57.449219 C 150.039062 55.722656 150.671875 53.875 149.734375 53.90625 C 148.027344 54.164062 144.667969 58.460938 144.9375 60.035156 " fill-opacity="1" fill-rule="nonzero"/><path fill="#312f30" d="M 127.421875 54.171875 C 128.882812 52.992188 131.351562 50.949219 131.460938 50.492188 C 131.011719 50.089844 124.300781 55.503906 124.207031 56.34375 C 124.261719 56.398438 124.4375 56.578125 127.421875 54.171875 " fill-opacity="1" fill-rule="nonzero"/><path fill="#312f30" d="M 169.882812 85.113281 C 171.699219 86.851562 174.886719 85.125 174.792969 81.679688 C 174.753906 80.339844 174.042969 77.886719 171.613281 78.234375 C 168.824219 78.824219 168.066406 83.367188 169.882812 85.113281 " fill-opacity="1" fill-rule="nonzero"/><path fill="#312f30" d="M 214.492188 254.417969 C 214.3125 254.457031 214.070312 254.515625 213.898438 254.578125 C 211.71875 255.359375 212.203125 257.367188 214.140625 258.242188 C 216.363281 259.238281 219.519531 258.191406 218.796875 256.207031 C 218.449219 255.261719 217.019531 254.003906 214.492188 254.417969 " fill-opacity="1" fill-rule="nonzero"/><path fill="#312f30" d="M 166.652344 73.085938 C 166.847656 71.183594 166.0625 69.378906 164.402344 69.652344 C 161.839844 70.273438 160.75 74.53125 162.207031 76.195312 C 163.574219 77.757812 166.324219 76.242188 166.652344 73.085938 " fill-opacity="1" fill-rule="nonzero"/><path fill="#312f30" d="M 211.605469 264.632812 C 213.679688 265.011719 215.515625 264.242188 214.628906 262.894531 C 213.90625 261.800781 212.019531 261.175781 210.335938 261.46875 C 210.0625 261.527344 209.605469 261.625 209.257812 261.875 C 208.089844 262.699219 209.386719 264.222656 211.605469 264.632812 " fill-opacity="1" fill-rule="nonzero"/><path fill="#312f30" d="M 224.726562 247.703125 C 224.46875 246.640625 223.113281 245.242188 220.449219 245.738281 C 217.292969 246.574219 217.453125 249.175781 219.339844 250.265625 C 221.828125 251.710938 225.300781 250.054688 224.726562 247.703125 " fill-opacity="1" fill-rule="nonzero"/><path fill="#312f30" d="M 220.1875 153.214844 C 215.863281 154.417969 216.066406 159.742188 218.773438 161.75 C 221.835938 164.027344 226.75 161.464844 225.886719 156.984375 C 225.566406 155.3125 223.960938 152.375 220.1875 153.214844 " fill-opacity="1" fill-rule="nonzero"/><path fill="#312f30" d="M 148.097656 45.964844 C 146.789062 46.039062 141.71875 50.335938 141.714844 51.378906 C 141.710938 51.898438 143.082031 51.210938 145.386719 49.15625 C 145.417969 49.125 148.699219 46.183594 148.097656 45.964844 " fill-opacity="1" fill-rule="nonzero"/><path fill="#312f30" d="M 137.367188 50.582031 C 137.324219 51.019531 138.789062 50.167969 141.015625 48.460938 C 141.371094 48.1875 144.488281 45.78125 144.53125 45.300781 C 144.519531 45.292969 144.507812 45.28125 144.496094 45.269531 C 143.511719 45.207031 137.449219 49.726562 137.367188 50.582031 " fill-opacity="1" fill-rule="nonzero"/><path fill="#312f30" d="M 225.078125 187.128906 C 228.027344 189.285156 232.921875 186.90625 232.3125 182.613281 C 232.074219 180.949219 230.605469 178.03125 226.734375 178.898438 C 222.027344 180.433594 222.746094 185.421875 225.078125 187.128906 " fill-opacity="1" fill-rule="nonzero"/><path fill="#312f30" d="M 179.917969 94.058594 C 182.300781 96.015625 185.550781 93.679688 185.113281 90.328125 C 184.914062 88.816406 183.671875 86.566406 181.191406 86.980469 C 178.382812 87.632812 177.574219 92.128906 179.917969 94.058594 " fill-opacity="1" fill-rule="nonzero"/><path fill="#312f30" d="M 237.269531 205.730469 C 236.972656 203.582031 234.601562 202.179688 232.304688 202.789062 C 228.886719 203.898438 227.789062 207.792969 230.34375 209.742188 C 233.460938 212.117188 237.734375 209.039062 237.269531 205.730469 " fill-opacity="1" fill-rule="nonzero"/><path fill="#312f30" d="M 212.023438 269.007812 C 213.011719 268.839844 213.148438 268.324219 212.351562 267.757812 C 211.695312 267.289062 210.003906 266.628906 208.253906 266.84375 C 207.679688 266.933594 207.4375 267.105469 207.335938 267.238281 C 206.652344 268.121094 209.9375 269.359375 212.023438 269.007812 " fill-opacity="1" fill-rule="nonzero"/><path fill="#312f30" d="M 157.011719 67.300781 C 157.910156 68.847656 160.242188 67.316406 160.972656 64.707031 C 161.457031 62.96875 161.078125 61.152344 159.761719 61.328125 C 157.761719 61.789062 156.015625 65.585938 157.011719 67.300781 " fill-opacity="1" fill-rule="nonzero"/><path fill="#312f30" d="M 227.949219 235.5 C 225.320312 236.28125 224.289062 238.871094 226.019531 240.359375 C 228.453125 242.457031 232.347656 240.398438 232.167969 237.816406 C 232.054688 236.160156 229.964844 235.011719 227.949219 235.5 " fill-opacity="1" fill-rule="nonzero"/><path fill="#312f30" d="M 194.761719 103.511719 C 194.761719 103.511719 194.765625 103.511719 194.765625 103.511719 C 194.769531 103.511719 194.769531 103.511719 194.769531 103.511719 C 194.769531 103.511719 194.769531 103.511719 194.773438 103.511719 C 194.773438 103.511719 194.773438 103.507812 194.773438 103.507812 C 197.015625 102.785156 197.519531 100.527344 197.308594 99.191406 C 196.96875 96.980469 194.800781 95.339844 192.851562 95.808594 C 192.457031 95.933594 191.636719 96.195312 190.953125 97.257812 C 189.058594 100.210938 191.441406 104.128906 194.761719 103.511719 " fill-opacity="1" fill-rule="nonzero"/><path fill="#312f30" d="M 212.082031 136.050781 C 215.523438 138.644531 219.351562 135.496094 218.671875 131.820312 C 218.265625 129.625 216.085938 127.613281 213.277344 128.191406 C 209.871094 129.3125 209.179688 133.871094 212.082031 136.050781 " fill-opacity="1" fill-rule="nonzero"/><path fill="#312f30" d="M 135.0625 49.167969 C 135.371094 49.265625 137.523438 47.828125 138.433594 47.207031 C 138.472656 47.179688 142.246094 44.597656 142.351562 44.195312 C 141.621094 44.015625 135.011719 48.523438 135.0625 49.167969 " fill-opacity="1" fill-rule="nonzero"/><path fill="#312f30" d="M 157.828125 53.417969 C 156.320312 53.75 154.011719 57.238281 154.605469 58.792969 C 155.128906 60.175781 157.195312 58.390625 158.097656 56.226562 C 158.679688 54.832031 158.6875 53.332031 157.828125 53.417969 " fill-opacity="1" fill-rule="nonzero"/><path fill="#312f30" d="M 152.933594 46.199219 C 151.890625 46.226562 147.703125 50.160156 147.730469 51.4375 C 147.746094 52.25 149.617188 50.875 151.15625 49.195312 C 152.070312 48.199219 153.527344 46.296875 152.933594 46.199219 " fill-opacity="1" fill-rule="nonzero"/><path fill="#312f30" d="M 212.355469 270.996094 C 211.328125 270.664062 209.421875 270.382812 208.40625 270.503906 C 208.21875 270.535156 207.90625 270.585938 207.859375 270.734375 C 207.644531 271.421875 212.195312 271.949219 213.03125 271.570312 C 213.367188 271.417969 212.902344 271.171875 212.355469 270.996094 " fill-opacity="1" fill-rule="nonzero"/><path fill="#312f30" d="M 123 54.375 C 123.007812 54.359375 123.019531 54.339844 123.027344 54.324219 C 122.59375 54.515625 117.214844 59.433594 116.933594 60.035156 C 117.035156 59.964844 117.035156 59.964844 119.253906 57.902344 C 122.097656 55.261719 122.769531 54.636719 123 54.375 " fill-opacity="1" fill-rule="nonzero"/><path fill="#312f30" d="M 127.457031 51.683594 C 130.953125 49.023438 131.214844 48.714844 131.40625 48.492188 C 131.035156 48.289062 125.023438 52.878906 124.976562 53.402344 C 125.035156 53.410156 125.175781 53.417969 127.457031 51.683594 " fill-opacity="1" fill-rule="nonzero"/><path fill="#312f30" d="M 149.503906 43.105469 C 149.652344 43.289062 150.574219 42.78125 152.796875 41.296875 C 153.269531 40.984375 155.621094 39.402344 155.730469 39.105469 C 155.722656 39.097656 155.714844 39.089844 155.707031 39.085938 C 155.265625 39.027344 149.589844 42.347656 149.503906 43.105469 " fill-opacity="1" fill-rule="nonzero"/><path fill="#312f30" d="M 240.535156 226.425781 C 240.535156 226.390625 240.359375 223.019531 236.625 224.023438 C 232.328125 225.335938 234.1875 228.769531 234.59375 229.183594 C 235.984375 230.605469 240.339844 229.847656 240.535156 226.425781 " fill-opacity="1" fill-rule="nonzero"/><path fill="#312f30" d="M 158.546875 46.152344 C 157.402344 46.378906 154.820312 49.59375 154.957031 50.617188 C 155.0625 51.390625 156.535156 50.546875 157.773438 48.734375 C 158.070312 48.292969 159.515625 46.101562 158.546875 46.152344 " fill-opacity="1" fill-rule="nonzero"/><path fill="#312f30" d="M 214.457031 272.484375 C 212.542969 272.40625 211.683594 272.394531 211.054688 272.445312 C 210.730469 272.476562 210.71875 272.5 210.699219 272.535156 C 211.125 272.78125 215.136719 272.71875 215.71875 272.574219 C 215.683594 272.546875 215.667969 272.539062 214.457031 272.484375 " fill-opacity="1" fill-rule="nonzero"/><path fill="#312f30" d="M 240.25 195.007812 C 240.824219 195.4375 242.398438 196.28125 244.648438 194.804688 C 245.382812 194.320312 246.570312 193.1875 246.265625 191.050781 C 245.867188 188.25 243.609375 187.867188 241.800781 188.394531 C 238.148438 189.675781 238.523438 193.714844 240.25 195.007812 " fill-opacity="1" fill-rule="nonzero"/><path fill="#312f30" d="M 234.59375 170.675781 C 236.382812 172.15625 241.375 171.3125 240.875 166.515625 C 240.871094 166.472656 240.230469 162.171875 236.035156 163.238281 C 231.558594 164.582031 233.09375 169.433594 234.59375 170.675781 " fill-opacity="1" fill-rule="nonzero"/><path fill="#312f30" d="M 227.980469 144.96875 C 228.324219 145.203125 230.148438 146.300781 232.230469 144.863281 C 233.136719 144.234375 234.128906 143.054688 233.691406 141.019531 C 233.117188 138.375 231.222656 137.171875 228.738281 137.886719 C 225.097656 139.1875 225.917969 143.566406 227.980469 144.96875 " fill-opacity="1" fill-rule="nonzero"/><path fill="#312f30" d="M 205.796875 111.574219 C 207.871094 112.78125 211.585938 111.664062 210.785156 107.941406 C 210.367188 106.015625 208.730469 104.328125 206.402344 104.828125 C 202.746094 105.851562 203.699219 110.351562 205.796875 111.574219 " fill-opacity="1" fill-rule="nonzero"/><path fill="#312f30" d="M 141.363281 42.929688 C 141.363281 42.921875 141.351562 42.910156 141.347656 42.902344 C 140.746094 42.921875 135.578125 46.066406 134.863281 47.003906 C 135.175781 46.960938 135.914062 46.546875 137.796875 45.355469 C 140.46875 43.667969 141.269531 43.125 141.363281 42.929688 " fill-opacity="1" fill-rule="nonzero"/><path fill="#312f30" d="M 221.445312 264.78125 C 221.246094 264.832031 220.910156 264.910156 220.667969 265.078125 C 220.0625 265.503906 220.269531 266.382812 221.796875 266.734375 C 223.101562 267.03125 224.886719 266.550781 224.28125 265.574219 C 223.910156 264.972656 222.890625 264.496094 221.445312 264.78125 " fill-opacity="1" fill-rule="nonzero"/><path fill="#312f30" d="M 153.375 43.535156 C 153.863281 43.359375 154.53125 43.019531 156.105469 41.765625 C 157.390625 40.734375 158.863281 39.496094 158.566406 39.421875 C 158.5625 39.421875 158.5625 39.421875 158.558594 39.421875 C 157.914062 39.460938 152.828125 43.007812 153.375 43.535156 " fill-opacity="1" fill-rule="nonzero"/><path fill="#312f30" d="M 147.074219 42.324219 C 147.617188 42.175781 148.488281 41.726562 150.40625 40.601562 C 153.640625 38.710938 153.679688 38.601562 153.714844 38.5 C 153.238281 38.433594 147.453125 41.574219 147.074219 42.324219 " fill-opacity="1" fill-rule="nonzero"/><path fill="#312f30" d="M 225.8125 258.75 C 225.714844 258.769531 225.613281 258.796875 225.515625 258.828125 C 224.222656 259.226562 223.550781 260.546875 225.191406 261.347656 C 226.636719 262.054688 229.078125 261.203125 228.636719 259.820312 C 228.554688 259.566406 228.03125 258.3125 225.8125 258.75 " fill-opacity="1" fill-rule="nonzero"/><path fill="#312f30" d="M 169.921875 64.492188 C 170.636719 65.414062 172.785156 65.125 173.035156 62.21875 C 173.039062 62.191406 173.023438 59.621094 171.316406 59.863281 C 169.367188 60.28125 169.105469 63.441406 169.921875 64.492188 " fill-opacity="1" fill-rule="nonzero"/><path fill="#312f30" d="M 177.472656 72.523438 C 177.484375 72.53125 178.578125 73.4375 179.609375 72.714844 C 179.976562 72.457031 180.957031 71.765625 180.851562 70.148438 C 180.84375 70.027344 180.625 67.152344 178.390625 67.53125 C 176.207031 68.042969 176.15625 71.410156 177.472656 72.523438 " fill-opacity="1" fill-rule="nonzero"/><path fill="#312f30" d="M 231.925781 251.074219 C 229.75 251.683594 229.65625 253.382812 230.746094 254.167969 C 231.96875 255.050781 234.972656 254.25 234.726562 252.335938 C 234.574219 251.167969 233.5 250.683594 231.925781 251.074219 " fill-opacity="1" fill-rule="nonzero"/><path fill="#312f30" d="M 220.597656 120.007812 C 222.273438 121.070312 225.988281 120.363281 225.347656 116.566406 C 225.242188 115.945312 224.0625 112.964844 221 113.847656 C 217.46875 115.058594 219.136719 119.078125 220.597656 120.007812 " fill-opacity="1" fill-rule="nonzero"/><path fill="#312f30" d="M 246.097656 211.144531 C 242.523438 212.34375 243.4375 215.425781 244.003906 216.144531 C 245.335938 217.835938 249.441406 216.796875 249.65625 213.410156 C 249.6875 212.886719 249.175781 210.25 246.097656 211.144531 " fill-opacity="1" fill-rule="nonzero"/><path fill="#312f30" d="M 130.003906 48.5 C 132.84375 46.414062 132.84375 46.414062 133.015625 46.261719 C 133.035156 46.246094 133.058594 46.222656 133.066406 46.203125 C 132.613281 46.394531 128.527344 49.433594 128.207031 49.816406 C 128.84375 49.425781 129.40625 48.941406 130.003906 48.5 " fill-opacity="1" fill-rule="nonzero"/><g clip-path="url(#ff6c6c454d)"><path fill="#312f30" d="M 152.4375 37.773438 C 152.222656 37.652344 147.027344 40.191406 146.414062 40.863281 C 146.578125 40.914062 147.375 40.523438 149.214844 39.566406 C 151.792969 38.230469 152.363281 37.910156 152.4375 37.773438 " fill-opacity="1" fill-rule="nonzero"/></g><path fill="#312f30" d="M 221.347656 270.160156 C 222.210938 270.039062 222.378906 269.816406 221.886719 269.457031 C 221.875 269.449219 220.796875 268.78125 219.25 269.054688 C 219.066406 269.089844 218.679688 269.167969 218.558594 269.332031 C 218.265625 269.726562 219.835938 270.371094 221.347656 270.160156 " fill-opacity="1" fill-rule="nonzero"/><path fill="#312f30" d="M 167.699219 54.714844 C 167.886719 53.683594 167.886719 52.476562 166.828125 52.601562 C 165.214844 52.910156 164.574219 55.980469 165.160156 56.738281 C 165.710938 57.449219 167.300781 56.9375 167.699219 54.714844 " fill-opacity="1" fill-rule="nonzero"/><path fill="#312f30" d="M 242.300781 243.199219 C 242.273438 242.429688 241.898438 241.214844 239.695312 241.746094 C 236.480469 242.734375 237.800781 244.964844 238.09375 245.230469 C 239.164062 246.195312 242.371094 245.304688 242.300781 243.199219 " fill-opacity="1" fill-rule="nonzero"/><path fill="#312f30" d="M 160.59375 41.480469 C 160.65625 41.414062 160.738281 41.332031 160.800781 41.265625 C 162.28125 39.734375 162.191406 39.5625 161.996094 39.566406 C 161.234375 39.683594 158.285156 42.410156 158.242188 43.035156 C 158.222656 43.316406 158.785156 43.316406 160.59375 41.480469 " fill-opacity="1" fill-rule="nonzero"/><path fill="#312f30" d="M 187.386719 80.609375 C 188.773438 81.527344 191.414062 80.65625 190.84375 77.894531 C 190.542969 76.453125 189.601562 75.066406 187.859375 75.492188 C 185.207031 76.28125 186.125 79.777344 187.386719 80.609375 " fill-opacity="1" fill-rule="nonzero"/><path fill="#312f30" d="M 199.300781 88.578125 C 200.964844 89.550781 203.492188 88.347656 202.730469 85.792969 C 202.421875 84.757812 201.59375 83.089844 199.496094 83.566406 C 196.785156 84.320312 197.941406 87.78125 199.300781 88.578125 " fill-opacity="1" fill-rule="nonzero"/><path fill="#312f30" d="M 243.71875 153.234375 C 245.210938 154.597656 249.027344 154.144531 248.695312 149.863281 C 248.605469 148.652344 247.136719 147.667969 247.121094 147.660156 C 246.183594 147.074219 245.296875 147.316406 244.816406 147.449219 C 241.53125 148.527344 242.460938 152.082031 243.71875 153.234375 " fill-opacity="1" fill-rule="nonzero"/><path fill="#312f30" d="M 219.296875 271.488281 C 219.164062 271.511719 218.890625 271.558594 218.898438 271.628906 C 218.910156 271.726562 219.535156 271.835938 220.53125 271.84375 C 221.019531 271.847656 222.164062 271.78125 222.21875 271.652344 C 222.1875 271.625 222.132812 271.597656 221.75 271.535156 C 221.738281 271.53125 220.355469 271.328125 219.296875 271.488281 " fill-opacity="1" fill-rule="nonzero"/><path fill="#312f30" d="M 163.039062 49.15625 C 163.105469 49.347656 163.324219 49.734375 163.925781 49.292969 C 164.261719 49.046875 164.75 48.601562 165.160156 47.589844 C 165.453125 46.863281 165.832031 45.660156 165.078125 45.714844 C 164.074219 45.875 162.753906 48.355469 163.039062 49.15625 " fill-opacity="1" fill-rule="nonzero"/><path fill="#312f30" d="M 250.210938 178.835938 C 251.035156 179.40625 252.671875 179.433594 253.246094 179.035156 C 253.78125 178.664062 255.414062 177.527344 255.082031 175.445312 C 254.8125 173.773438 253.574219 172.390625 251.417969 173.078125 C 248.007812 174.332031 248.992188 177.980469 250.210938 178.835938 " fill-opacity="1" fill-rule="nonzero"/><path fill="#312f30" d="M 138.753906 43.207031 C 138.78125 43.191406 141.46875 41.628906 141.769531 41.34375 C 141.769531 41.335938 141.769531 41.324219 141.769531 41.316406 C 141.328125 41.390625 137.261719 43.742188 136.722656 44.304688 C 136.726562 44.3125 136.726562 44.324219 136.730469 44.328125 C 136.898438 44.28125 137.390625 44 138.753906 43.207031 " fill-opacity="1" fill-rule="nonzero"/><path fill="#312f30" d="M 256.019531 197.230469 C 253.480469 198.066406 253.246094 200.679688 254.445312 201.878906 C 255.777344 203.214844 258.949219 201.789062 258.90625 199.335938 C 258.898438 198.847656 258.71875 196.464844 256.019531 197.230469 " fill-opacity="1" fill-rule="nonzero"/><path fill="#312f30" d="M 250.9375 232.429688 C 250.941406 231.800781 250.726562 230.394531 248.617188 230.949219 C 246.15625 231.691406 246.21875 233.777344 246.90625 234.5 C 247.953125 235.597656 250.917969 234.394531 250.9375 232.429688 " fill-opacity="1" fill-rule="nonzero"/><path fill="#312f30" d="M 236.363281 128.066406 C 238.09375 129.164062 241.082031 127.816406 240.328125 125.105469 C 240.136719 124.40625 239.300781 122.171875 236.742188 122.886719 C 233.855469 123.839844 234.9375 127.164062 236.363281 128.066406 " fill-opacity="1" fill-rule="nonzero"/><path fill="#312f30" d="M 212.804688 96.332031 C 214.050781 97.121094 216.761719 96.625 216.105469 93.871094 C 216.101562 93.84375 215.332031 91.105469 212.886719 91.820312 C 210.195312 92.738281 211.84375 95.722656 212.804688 96.332031 " fill-opacity="1" fill-rule="nonzero"/><path fill="#312f30" d="M 165.429688 41.019531 C 165.546875 40.859375 166.546875 39.480469 166.058594 39.480469 C 165.335938 39.632812 163.820312 41.699219 163.847656 42.15625 C 163.847656 42.164062 164.0625 42.875 165.429688 41.019531 " fill-opacity="1" fill-rule="nonzero"/><path fill="#312f30" d="M 230.433594 267.078125 C 230.359375 267.09375 230.28125 267.117188 230.207031 267.140625 C 229.519531 267.371094 229.691406 267.726562 230.027344 267.894531 C 230.570312 268.167969 231.910156 267.945312 231.71875 267.363281 C 231.71875 267.359375 231.433594 266.875 230.433594 267.078125 " fill-opacity="1" fill-rule="nonzero"/><path fill="#312f30" d="M 258.199219 218.902344 C 256.890625 219.382812 255.96875 221.003906 256.820312 222.007812 C 257.683594 223.027344 260.019531 222.078125 260.1875 220.242188 C 260.316406 218.84375 259.28125 218.5625 258.199219 218.902344 " fill-opacity="1" fill-rule="nonzero"/><path fill="#312f30" d="M 227.820312 103.960938 C 229.402344 104.746094 231.175781 103.503906 230.433594 101.585938 C 229.953125 100.339844 228.84375 99.75 227.675781 100.121094 C 225.550781 100.921875 226.667969 103.394531 227.820312 103.960938 " fill-opacity="1" fill-rule="nonzero"/><path fill="#312f30" d="M 234.957031 262.207031 C 233.941406 262.464844 233.78125 263.097656 234.117188 263.425781 C 234.695312 263.992188 236.300781 263.492188 236.261719 262.757812 C 236.246094 262.449219 235.953125 261.988281 234.957031 262.207031 " fill-opacity="1" fill-rule="nonzero"/><path fill="#312f30" d="M 259.878906 161.375 C 260.871094 162.113281 263.207031 161.269531 262.867188 159.128906 C 262.695312 158.058594 262.140625 156.894531 260.464844 157.410156 C 258.285156 158.1875 258.945312 160.675781 259.878906 161.375 " fill-opacity="1" fill-rule="nonzero"/><path fill="#312f30" d="M 265.804688 182.527344 C 263.707031 183.273438 264.191406 185.558594 264.90625 186.070312 C 264.914062 186.078125 265.820312 186.6875 266.941406 185.863281 C 267.1875 185.679688 267.953125 185.117188 267.832031 183.910156 C 267.761719 183.179688 267.402344 182.027344 265.804688 182.527344 " fill-opacity="1" fill-rule="nonzero"/><path fill="#312f30" d="M 241.238281 255.628906 C 239.679688 256.09375 240.289062 257.148438 240.296875 257.15625 C 240.695312 257.660156 242.417969 257.273438 242.511719 256.253906 C 242.539062 255.957031 242.472656 255.300781 241.238281 255.628906 " fill-opacity="1" fill-rule="nonzero"/><path fill="#312f30" d="M 193.136719 67.855469 C 193.828125 68.246094 195.273438 67.851562 194.789062 66.347656 C 194.636719 65.871094 194.160156 64.785156 193.050781 65.082031 C 191.546875 65.566406 192.472656 67.476562 193.136719 67.855469 " fill-opacity="1" fill-rule="nonzero"/><path fill="#312f30" d="M 229.1875 270.148438 C 229.058594 270.085938 228.683594 269.957031 228.023438 270.089844 C 227.917969 270.109375 227.699219 270.160156 227.660156 270.234375 C 227.558594 270.421875 228.566406 270.53125 229.132812 270.339844 C 229.3125 270.277344 229.328125 270.214844 229.1875 270.148438 " fill-opacity="1" fill-rule="nonzero"/><path fill="#312f30" d="M 183.394531 60.722656 C 183.890625 61.140625 185.257812 61.09375 185.0625 59.453125 C 185.0625 59.433594 184.792969 57.828125 183.585938 58.113281 C 182.402344 58.472656 182.824219 60.238281 183.394531 60.722656 " fill-opacity="1" fill-rule="nonzero"/><path fill="#312f30" d="M 172.738281 46.246094 C 172.800781 45.867188 172.875 44.988281 172.289062 45.070312 C 171.53125 45.234375 171.351562 46.78125 171.648438 47.125 C 171.917969 47.441406 172.578125 47.242188 172.738281 46.246094 " fill-opacity="1" fill-rule="nonzero"/><path fill="#312f30" d="M 176.234375 53.832031 C 176.382812 53.957031 176.78125 54.207031 177.246094 53.785156 C 177.445312 53.605469 177.667969 53.253906 177.613281 52.582031 C 177.589844 52.257812 177.441406 51.214844 176.625 51.390625 C 175.558594 51.695312 175.769531 53.441406 176.234375 53.832031 " fill-opacity="1" fill-rule="nonzero"/><path fill="#312f30" d="M 252.554688 135.84375 C 253.410156 136.347656 255.710938 135.957031 255.199219 133.601562 C 255.195312 133.582031 254.671875 131.582031 252.796875 132.152344 C 250.667969 132.914062 251.679688 135.324219 252.554688 135.84375 " fill-opacity="1" fill-rule="nonzero"/><path fill="#312f30" d="M 205.007812 74.886719 C 205.824219 75.191406 206.042969 74.953125 206.316406 74.644531 C 206.453125 74.496094 206.738281 74.0625 206.425781 73.316406 C 206.082031 72.492188 205.335938 72.066406 204.605469 72.277344 C 204.570312 72.289062 204.523438 72.304688 204.488281 72.316406 C 203.519531 72.730469 203.867188 74.457031 205.007812 74.886719 " fill-opacity="1" fill-rule="nonzero"/><path fill="#312f30" d="M 249.21875 247.253906 C 248.128906 247.585938 247.789062 248.484375 248.097656 248.929688 C 248.386719 249.351562 249.25 249.136719 249.257812 249.132812 C 249.265625 249.128906 250.175781 248.648438 250.304688 248.035156 C 250.367188 247.742188 250.300781 246.972656 249.21875 247.253906 " fill-opacity="1" fill-rule="nonzero"/><path fill="#312f30" d="M 258.265625 237.402344 C 257.15625 237.792969 257.234375 238.738281 257.382812 238.9375 C 257.691406 239.347656 258.941406 238.964844 259.132812 238.082031 C 259.171875 237.910156 259.300781 237.070312 258.265625 237.402344 " fill-opacity="1" fill-rule="nonzero"/><g clip-path="url(#07ad479836)"><path fill="#312f30" d="M 268.308594 205.707031 C 267.183594 206.105469 266.949219 207.449219 267.453125 208.003906 C 268.007812 208.617188 269.605469 207.832031 269.65625 206.660156 C 269.675781 206.132812 269.53125 205.3125 268.308594 205.707031 " fill-opacity="1" fill-rule="nonzero"/></g><path fill="#312f30" d="M 243.574219 111.265625 C 244.382812 111.667969 245.84375 111.03125 245.3125 109.667969 C 245.109375 109.140625 244.605469 108.304688 243.535156 108.632812 C 241.964844 109.195312 242.882812 110.917969 243.574219 111.265625 " fill-opacity="1" fill-rule="nonzero"/><path fill="#312f30" d="M 218.4375 81.695312 C 218.496094 81.71875 219.011719 81.90625 219.359375 81.574219 C 219.640625 81.304688 219.707031 80.984375 219.558594 80.621094 C 219.554688 80.609375 219.097656 79.523438 218.160156 79.777344 C 218.113281 79.792969 218.070312 79.808594 218.023438 79.828125 C 217.148438 80.238281 217.78125 81.4375 218.4375 81.695312 " fill-opacity="1" fill-rule="nonzero"/><g fill="#312f30" fill-opacity="1"><g transform="translate(4.432421, 308.103796)"><g><path d="M 7.328125 -19.328125 L 7.328125 -12.359375 L 18.375 -12.359375 L 18.375 -8.765625 L 7.328125 -8.765625 L 7.328125 0 L 3.078125 0 L 3.078125 -22.890625 L 19.78125 -22.890625 L 19.78125 -19.328125 Z M 7.328125 -19.328125 "/></g></g></g><g fill="#312f30" fill-opacity="1"><g transform="translate(32.447474, 308.103796)"><g><path d="M 3.078125 -22.890625 L 7.328125 -22.890625 L 7.328125 0 L 3.078125 0 Z M 3.078125 -22.890625 "/></g></g></g><g fill="#312f30" fill-opacity="1"><g transform="translate(50.068102, 308.103796)"><g><path d="M 23.421875 -22.890625 L 23.421875 0 L 19.921875 0 L 7.296875 -15.5 L 7.296875 0 L 3.078125 0 L 3.078125 -22.890625 L 6.578125 -22.890625 L 19.203125 -7.390625 L 19.203125 -22.890625 Z M 23.421875 -22.890625 "/></g></g></g><g fill="#312f30" fill-opacity="1"><g transform="translate(83.737962, 308.103796)"><g><path d="M 17.921875 -5.296875 L 6.46875 -5.296875 L 4.21875 0 L -0.15625 0 L 10.140625 -22.890625 L 14.328125 -22.890625 L 24.65625 0 L 20.203125 0 Z M 16.515625 -8.640625 L 12.203125 -18.640625 L 7.921875 -8.640625 Z M 16.515625 -8.640625 "/></g></g></g><g fill="#312f30" fill-opacity="1"><g transform="translate(115.41394, 308.103796)"><g><path d="M 23.421875 -22.890625 L 23.421875 0 L 19.921875 0 L 7.296875 -15.5 L 7.296875 0 L 3.078125 0 L 3.078125 -22.890625 L 6.578125 -22.890625 L 19.203125 -7.390625 L 19.203125 -22.890625 Z M 23.421875 -22.890625 "/></g></g></g><g fill="#312f30" fill-opacity="1"><g transform="translate(149.083805, 308.103796)"><g><path d="M 13.671875 0.328125 C 11.359375 0.328125 9.269531 -0.175781 7.40625 -1.1875 C 5.539062 -2.207031 4.078125 -3.609375 3.015625 -5.390625 C 1.960938 -7.179688 1.4375 -9.203125 1.4375 -11.453125 C 1.4375 -13.691406 1.96875 -15.703125 3.03125 -17.484375 C 4.101562 -19.273438 5.570312 -20.675781 7.4375 -21.6875 C 9.300781 -22.707031 11.390625 -23.21875 13.703125 -23.21875 C 15.578125 -23.21875 17.285156 -22.890625 18.828125 -22.234375 C 20.378906 -21.578125 21.691406 -20.628906 22.765625 -19.390625 L 20.015625 -16.8125 C 18.359375 -18.59375 16.320312 -19.484375 13.90625 -19.484375 C 12.332031 -19.484375 10.921875 -19.140625 9.671875 -18.453125 C 8.429688 -17.773438 7.460938 -16.820312 6.765625 -15.59375 C 6.066406 -14.375 5.71875 -12.992188 5.71875 -11.453125 C 5.71875 -9.898438 6.066406 -8.515625 6.765625 -7.296875 C 7.460938 -6.078125 8.429688 -5.125 9.671875 -4.4375 C 10.921875 -3.75 12.332031 -3.40625 13.90625 -3.40625 C 16.320312 -3.40625 18.359375 -4.304688 20.015625 -6.109375 L 22.765625 -3.5 C 21.691406 -2.257812 20.375 -1.3125 18.8125 -0.65625 C 17.257812 0 15.546875 0.328125 13.671875 0.328125 Z M 13.671875 0.328125 "/></g></g></g><g fill="#312f30" fill-opacity="1"><g transform="translate(180.040669, 308.103796)"><g><path d="M 3.078125 -22.890625 L 7.328125 -22.890625 L 7.328125 0 L 3.078125 0 Z M 3.078125 -22.890625 "/></g></g></g><g fill="#312f30" fill-opacity="1"><g transform="translate(197.661295, 308.103796)"><g><path d="M 17.921875 -5.296875 L 6.46875 -5.296875 L 4.21875 0 L -0.15625 0 L 10.140625 -22.890625 L 14.328125 -22.890625 L 24.65625 0 L 20.203125 0 Z M 16.515625 -8.640625 L 12.203125 -18.640625 L 7.921875 -8.640625 Z M 16.515625 -8.640625 "/></g></g></g><g fill="#312f30" fill-opacity="1"><g transform="translate(229.337272, 308.103796)"><g><path d="M 3.078125 -22.890625 L 7.328125 -22.890625 L 7.328125 -3.59375 L 19.296875 -3.59375 L 19.296875 0 L 3.078125 0 Z M 3.078125 -22.890625 "/></g></g></g><g fill="#312f30" fill-opacity="1"><g transform="translate(258.997313, 311.189256)"><g><path d="M 13.671875 -16.4375 C 16.253906 -16.113281 18.222656 -15.234375 19.578125 -13.796875 C 20.941406 -12.359375 21.625 -10.554688 21.625 -8.390625 C 21.625 -6.765625 21.210938 -5.285156 20.390625 -3.953125 C 19.566406 -2.617188 18.320312 -1.554688 16.65625 -0.765625 C 14.988281 0.015625 12.957031 0.40625 10.5625 0.40625 C 8.5625 0.40625 6.632812 0.117188 4.78125 -0.453125 C 2.925781 -1.023438 1.347656 -1.820312 0.046875 -2.84375 L 2.28125 -6.875 C 3.289062 -6.019531 4.519531 -5.347656 5.96875 -4.859375 C 7.425781 -4.367188 8.925781 -4.125 10.46875 -4.125 C 12.3125 -4.125 13.757812 -4.5 14.8125 -5.25 C 15.863281 -6.007812 16.390625 -7.046875 16.390625 -8.359375 C 16.390625 -9.660156 15.890625 -10.675781 14.890625 -11.40625 C 13.890625 -12.144531 12.363281 -12.515625 10.3125 -12.515625 L 7.75 -12.515625 L 7.75 -16.078125 L 14.109375 -23.625 L 1.40625 -23.625 L 1.40625 -27.984375 L 20.46875 -27.984375 L 20.46875 -24.515625 Z M 13.671875 -16.4375 "/></g></g></g><g fill="#312f30" fill-opacity="1"><g transform="translate(288.346897, 311.189256)"><g><path d="M 14.46875 -17.265625 C 16.3125 -17.265625 17.960938 -16.910156 19.421875 -16.203125 C 20.890625 -15.503906 22.035156 -14.5 22.859375 -13.1875 C 23.691406 -11.882812 24.109375 -10.378906 24.109375 -8.671875 C 24.109375 -6.859375 23.65625 -5.265625 22.75 -3.890625 C 21.84375 -2.523438 20.613281 -1.46875 19.0625 -0.71875 C 17.519531 0.03125 15.789062 0.40625 13.875 0.40625 C 10.03125 0.40625 7.050781 -0.789062 4.9375 -3.1875 C 2.820312 -5.59375 1.765625 -9.035156 1.765625 -13.515625 C 1.765625 -16.660156 2.335938 -19.34375 3.484375 -21.5625 C 4.628906 -23.789062 6.234375 -25.484375 8.296875 -26.640625 C 10.359375 -27.804688 12.75 -28.390625 15.46875 -28.390625 C 16.914062 -28.390625 18.269531 -28.234375 19.53125 -27.921875 C 20.800781 -27.617188 21.898438 -27.175781 22.828125 -26.59375 L 20.90625 -22.671875 C 19.519531 -23.578125 17.75 -24.03125 15.59375 -24.03125 C 12.90625 -24.03125 10.800781 -23.203125 9.28125 -21.546875 C 7.757812 -19.898438 7 -17.515625 7 -14.390625 L 7 -14.359375 C 7.820312 -15.316406 8.875 -16.039062 10.15625 -16.53125 C 11.4375 -17.019531 12.875 -17.265625 14.46875 -17.265625 Z M 13.59375 -3.671875 C 15.21875 -3.671875 16.535156 -4.101562 17.546875 -4.96875 C 18.566406 -5.84375 19.078125 -7 19.078125 -8.4375 C 19.078125 -9.90625 18.566406 -11.0625 17.546875 -11.90625 C 16.535156 -12.757812 15.175781 -13.1875 13.46875 -13.1875 C 11.789062 -13.1875 10.425781 -12.734375 9.375 -11.828125 C 8.320312 -10.921875 7.796875 -9.773438 7.796875 -8.390625 C 7.796875 -7.035156 8.304688 -5.910156 9.328125 -5.015625 C 10.359375 -4.117188 11.78125 -3.671875 13.59375 -3.671875 Z M 13.59375 -3.671875 "/></g></g></g><g fill="#312f30" fill-opacity="1"><g transform="translate(319.495722, 311.189256)"><g><path d="M 13.4375 0.40625 C 11.195312 0.40625 9.195312 -0.160156 7.4375 -1.296875 C 5.675781 -2.429688 4.289062 -4.082031 3.28125 -6.25 C 2.269531 -8.425781 1.765625 -11.007812 1.765625 -14 C 1.765625 -16.976562 2.269531 -19.550781 3.28125 -21.71875 C 4.289062 -23.894531 5.675781 -25.550781 7.4375 -26.6875 C 9.195312 -27.820312 11.195312 -28.390625 13.4375 -28.390625 C 15.675781 -28.390625 17.679688 -27.820312 19.453125 -26.6875 C 21.222656 -25.550781 22.613281 -23.894531 23.625 -21.71875 C 24.644531 -19.550781 25.15625 -16.976562 25.15625 -14 C 25.15625 -11.007812 24.644531 -8.425781 23.625 -6.25 C 22.613281 -4.082031 21.222656 -2.429688 19.453125 -1.296875 C 17.679688 -0.160156 15.675781 0.40625 13.4375 0.40625 Z M 13.4375 -4.125 C 15.4375 -4.125 17.015625 -4.945312 18.171875 -6.59375 C 19.328125 -8.25 19.90625 -10.71875 19.90625 -14 C 19.90625 -17.269531 19.328125 -19.734375 18.171875 -21.390625 C 17.015625 -23.046875 15.4375 -23.875 13.4375 -23.875 C 11.457031 -23.875 9.890625 -23.046875 8.734375 -21.390625 C 7.578125 -19.734375 7 -17.269531 7 -14 C 7 -10.71875 7.578125 -8.25 8.734375 -6.59375 C 9.890625 -4.945312 11.457031 -4.125 13.4375 -4.125 Z M 13.4375 -4.125 "/></g></g></g><g fill="#312f30" fill-opacity="1"><g transform="translate(352.483755, 311.189256)"><g><path d="M 8.4375 -16.875 C 7.050781 -16.875 5.796875 -17.148438 4.671875 -17.703125 C 3.554688 -18.265625 2.6875 -19.046875 2.0625 -20.046875 C 1.4375 -21.046875 1.125 -22.175781 1.125 -23.4375 C 1.125 -24.65625 1.4375 -25.765625 2.0625 -26.765625 C 2.6875 -27.765625 3.554688 -28.546875 4.671875 -29.109375 C 5.796875 -29.671875 7.050781 -29.953125 8.4375 -29.953125 C 9.851562 -29.953125 11.113281 -29.671875 12.21875 -29.109375 C 13.320312 -28.546875 14.1875 -27.765625 14.8125 -26.765625 C 15.4375 -25.765625 15.75 -24.65625 15.75 -23.4375 C 15.75 -22.175781 15.4375 -21.046875 14.8125 -20.046875 C 14.1875 -19.046875 13.320312 -18.265625 12.21875 -17.703125 C 11.113281 -17.148438 9.851562 -16.875 8.4375 -16.875 Z M 8.4375 -19.71875 C 9.613281 -19.71875 10.550781 -20.054688 11.25 -20.734375 C 11.957031 -21.410156 12.3125 -22.3125 12.3125 -23.4375 C 12.3125 -24.519531 11.953125 -25.398438 11.234375 -26.078125 C 10.515625 -26.765625 9.582031 -27.109375 8.4375 -27.109375 C 7.289062 -27.109375 6.359375 -26.765625 5.640625 -26.078125 C 4.921875 -25.398438 4.5625 -24.519531 4.5625 -23.4375 C 4.5625 -22.3125 4.910156 -21.410156 5.609375 -20.734375 C 6.316406 -20.054688 7.257812 -19.71875 8.4375 -19.71875 Z M 8.4375 -19.71875 "/></g></g></g></svg>