<svg xmlns="http://www.w3.org/2000/svg" xmlns:xlink="http://www.w3.org/1999/xlink" width="500" zoomAndPan="magnify" viewBox="0 0 375 374.999991" height="500" preserveAspectRatio="xMidYMid meet" version="1.0"><defs><g/><clipPath id="cbf57716f7"><path d="M 146 37.5 L 153 37.5 L 153 41 L 146 41 Z M 146 37.5 " clip-rule="nonzero"/></clipPath><clipPath id="337f4a3e4c"><path d="M 266 205 L 269.679688 205 L 269.679688 209 L 266 209 Z M 266 205 " clip-rule="nonzero"/></clipPath></defs><rect x="-37.5" width="450" fill="#ffffff" y="-37.499999" height="449.999989" fill-opacity="1"/><rect x="-37.5" width="450" fill="#000000" y="-37.499999" height="449.999989" fill-opacity="1"/><path fill="#ffffff" d="M 122.09375 239.109375 C 119.914062 236.871094 116.105469 233.179688 114.539062 232.191406 C 114.453125 232.148438 114.324219 232.113281 114.230469 232.113281 C 114.257812 233.171875 124.15625 242.761719 125.265625 242.800781 C 125.238281 242.414062 123.523438 240.578125 122.09375 239.109375 " fill-opacity="1" fill-rule="nonzero"/><path fill="#ffffff" d="M 134.949219 248.394531 C 132.660156 246.441406 128.515625 243.246094 126.464844 242.453125 C 126.316406 242.414062 126.085938 242.351562 126.011719 242.421875 C 125.613281 242.777344 128.214844 245.230469 130.890625 247.292969 C 134.324219 249.9375 137.453125 251.859375 138.015625 251.671875 C 138.199219 251.253906 136.175781 249.441406 134.949219 248.394531 " fill-opacity="1" fill-rule="nonzero"/><path fill="#ffffff" d="M 92.15625 198.421875 C 92.105469 198.371094 92.015625 198.320312 91.945312 198.316406 C 91.925781 199.707031 98.539062 212.355469 99.316406 212.414062 C 99.328125 211.851562 98.003906 209.085938 97.21875 207.484375 C 95.839844 204.6875 93.25 199.757812 92.15625 198.421875 " fill-opacity="1" fill-rule="nonzero"/><path fill="#ffffff" d="M 100.386719 211.992188 C 100.25 211.929688 100.078125 211.847656 99.996094 211.933594 C 99.136719 212.808594 106.898438 224.285156 108.738281 224.859375 C 109.449219 225.082031 108.675781 223.175781 106.855469 220.226562 C 105.152344 217.46875 102.023438 213.089844 100.386719 211.992188 " fill-opacity="1" fill-rule="nonzero"/><path fill="#ffffff" d="M 118.464844 231.601562 C 116.585938 229.09375 112.960938 225.15625 110.789062 224.265625 C 110.605469 224.21875 110.359375 224.15625 110.21875 224.253906 C 108.722656 225.289062 117.472656 235.53125 120.179688 235.914062 C 121.175781 236.050781 120.472656 234.277344 118.464844 231.601562 " fill-opacity="1" fill-rule="nonzero"/><path fill="#ffffff" d="M 86.324219 183.671875 C 86.410156 183.945312 86.542969 184.34375 86.710938 184.832031 C 86.578125 184.4375 86.441406 184.039062 86.320312 183.664062 L 86.324219 183.671875 " fill-opacity="1" fill-rule="nonzero"/><path fill="#ffffff" d="M 95.957031 203.09375 C 96.996094 203.679688 96.8125 201.34375 95.53125 197.652344 C 94.425781 194.46875 92.125 189.457031 90.476562 188.28125 C 90.378906 188.238281 90.238281 188.171875 90.132812 188.191406 C 88.414062 188.519531 93.582031 201.75 95.957031 203.09375 " fill-opacity="1" fill-rule="nonzero"/><path fill="#ffffff" d="M 105.621094 216.078125 C 107.042969 216.546875 106.941406 214.3125 105.382812 210.875 C 104.035156 207.90625 101.117188 203.28125 98.84375 202.296875 C 98.648438 202.253906 98.382812 202.191406 98.183594 202.316406 C 96.195312 203.5625 102.378906 215.011719 105.621094 216.078125 " fill-opacity="1" fill-rule="nonzero"/><path fill="#ffffff" d="M 116.972656 227.632812 C 119.042969 228.316406 119.203125 226.136719 117.328125 222.777344 C 115.558594 219.605469 112.0625 215.753906 109.503906 215.0625 C 109.253906 215.035156 108.917969 214.996094 108.65625 215.132812 C 106.210938 216.425781 112.738281 226.238281 116.972656 227.632812 " fill-opacity="1" fill-rule="nonzero"/><path fill="#ffffff" d="M 84.65625 173.242188 C 84.601562 173.191406 84.519531 173.132812 84.449219 173.113281 C 83.410156 173.761719 87.484375 188.597656 88.804688 188.988281 C 89.328125 188.664062 88.367188 184.488281 88.058594 183.214844 C 87.304688 180.097656 85.714844 174.632812 84.65625 173.242188 " fill-opacity="1" fill-rule="nonzero"/><path fill="#ffffff" d="M 95.066406 192.648438 C 96.742188 193.574219 97.351562 190.902344 96.425781 186.691406 C 95.691406 183.34375 93.644531 178.167969 91.40625 177.152344 C 91.253906 177.121094 91.046875 177.078125 90.894531 177.113281 C 88.015625 177.742188 91.484375 190.664062 95.066406 192.648438 " fill-opacity="1" fill-rule="nonzero"/><path fill="#ffffff" d="M 104.496094 205.953125 C 106.886719 207.167969 107.828125 204.542969 106.511719 200.332031 C 105.511719 197.140625 102.796875 192.277344 99.886719 191.453125 C 99.691406 191.433594 99.425781 191.40625 99.234375 191.453125 C 95.824219 192.261719 99.953125 203.644531 104.496094 205.953125 " fill-opacity="1" fill-rule="nonzero"/><path fill="#ffffff" d="M 115.910156 217.953125 C 119.058594 219.40625 120.375 216.886719 118.675781 212.675781 C 117.472656 209.691406 114.238281 205.226562 110.816406 204.640625 C 110.503906 204.632812 110.074219 204.621094 109.695312 204.800781 C 106.5 206.3125 110.914062 215.65625 115.910156 217.953125 " fill-opacity="1" fill-rule="nonzero"/><path fill="#ffffff" d="M 87.726562 178.042969 C 88.910156 179.097656 89.449219 176.464844 88.929688 172.167969 C 88.523438 168.8125 87.246094 163.5625 85.675781 162.394531 C 85.570312 162.351562 85.417969 162.289062 85.308594 162.308594 C 83.175781 162.691406 85.183594 175.777344 87.726562 178.042969 " fill-opacity="1" fill-rule="nonzero"/><path fill="#ffffff" d="M 99.925781 174.847656 C 99.558594 171.472656 97.773438 166.347656 94.957031 165.519531 C 94.757812 165.5 94.484375 165.480469 94.289062 165.527344 C 90.808594 166.339844 92.273438 177.78125 96.246094 180.828125 C 98.675781 182.691406 100.464844 179.789062 99.925781 174.847656 " fill-opacity="1" fill-rule="nonzero"/><path fill="#ffffff" d="M 110.046875 188.535156 C 109.375 185.164062 106.894531 180.136719 103.484375 179.515625 C 103.242188 179.511719 102.910156 179.511719 102.671875 179.570312 C 98.714844 180.589844 100.800781 191.121094 105.609375 194.398438 C 108.886719 196.636719 111.085938 193.730469 110.046875 188.535156 " fill-opacity="1" fill-rule="nonzero"/><path fill="#ffffff" d="M 122.1875 201.257812 C 121.289062 198.042969 118.277344 193.332031 114.402344 192.933594 C 114.125 192.945312 113.753906 192.960938 113.488281 193.039062 C 109.148438 194.277344 111.996094 204.261719 117.496094 207.09375 C 121.226562 209.015625 123.550781 206.125 122.1875 201.257812 " fill-opacity="1" fill-rule="nonzero"/><path fill="#ffffff" d="M 89.375 166.632812 C 91.054688 168.078125 92.46875 165.300781 92.398438 160.683594 C 92.351562 157.328125 91.335938 152.15625 89.226562 151.167969 C 89.074219 151.136719 88.859375 151.101562 88.707031 151.132812 C 85.703125 151.753906 86.226562 163.921875 89.375 166.632812 " fill-opacity="1" fill-rule="nonzero"/><path fill="#ffffff" d="M 105.738281 162.492188 C 105.671875 159.101562 104.121094 154.054688 100.878906 153.449219 C 100.757812 153.445312 100.59375 153.433594 100.472656 153.441406 C 96.167969 153.75 95.6875 164.070312 99.785156 168.167969 C 102.730469 171.117188 105.847656 168.144531 105.738281 162.492188 " fill-opacity="1" fill-rule="nonzero"/><path fill="#ffffff" d="M 115.628906 175.773438 C 115.265625 172.371094 113.054688 167.394531 109.277344 166.988281 C 109.136719 166.992188 108.949219 166.992188 108.808594 167.007812 C 103.945312 167.589844 104.332031 177.992188 109.367188 181.851562 C 112.953125 184.601562 116.234375 181.421875 115.628906 175.773438 " fill-opacity="1" fill-rule="nonzero"/><path fill="#ffffff" d="M 127.609375 188.5625 C 126.984375 185.164062 124.195312 180.292969 119.960938 180.085938 C 119.804688 180.101562 119.59375 180.109375 119.4375 180.132812 C 114.441406 180.921875 115.167969 190.582031 120.519531 194.488281 C 124.851562 197.648438 128.695312 194.433594 127.609375 188.5625 " fill-opacity="1" fill-rule="nonzero"/><path fill="#ffffff" d="M 93.109375 154.472656 C 95.246094 156.945312 97.828125 154.085938 98.230469 148.8125 C 98.484375 145.46875 97.671875 140.410156 95.074219 139.621094 C 94.972656 139.613281 94.84375 139.589844 94.742188 139.589844 C 91.132812 139.652344 89.910156 150.78125 93.109375 154.472656 " fill-opacity="1" fill-rule="nonzero"/><path fill="#ffffff" d="M 105.667969 155.59375 C 108.707031 159.039062 112.800781 155.929688 113.09375 149.960938 C 113.261719 146.585938 111.914062 141.652344 108.40625 141.253906 C 103.148438 141.480469 102.050781 151.5 105.667969 155.59375 " fill-opacity="1" fill-rule="nonzero"/><path fill="#ffffff" d="M 122.773438 162.789062 C 122.644531 159.375 120.648438 154.476562 116.605469 154.265625 C 110.695312 154.78125 110.453125 164.933594 114.941406 168.859375 C 118.675781 172.128906 122.996094 168.78125 122.773438 162.789062 " fill-opacity="1" fill-rule="nonzero"/><path fill="#ffffff" d="M 125.796875 181.21875 C 130.269531 185.070312 135.246094 181.648438 134.523438 175.210938 C 134.136719 171.785156 131.570312 166.957031 127.066406 166.941406 C 120.941406 167.695312 120.980469 177.074219 125.796875 181.21875 " fill-opacity="1" fill-rule="nonzero"/><path fill="#ffffff" d="M 105.777344 136.839844 C 106.261719 133.53125 105.625 128.613281 102.703125 128.035156 C 98.046875 127.976562 96.140625 138.714844 99.140625 142.445312 C 101.488281 145.363281 104.960938 142.433594 105.777344 136.839844 " fill-opacity="1" fill-rule="nonzero"/><path fill="#ffffff" d="M 143.734375 238.253906 C 147.402344 239.183594 148.855469 236.871094 146.847656 233.304688 C 145.425781 230.777344 141.609375 227.160156 137.582031 227.019531 C 137.03125 227.058594 136.464844 227.101562 135.914062 227.488281 C 132.800781 229.65625 137.988281 236.800781 143.734375 238.253906 " fill-opacity="1" fill-rule="nonzero"/><path fill="#ffffff" d="M 150.433594 222.863281 C 149.292969 220.078125 145.667969 216.164062 141.183594 216.191406 C 140.769531 216.242188 140.199219 216.308594 139.667969 216.5625 C 135.574219 218.496094 138.796875 225.933594 144.738281 228.265625 C 149.316406 230.0625 152.242188 227.285156 150.433594 222.863281 " fill-opacity="1" fill-rule="nonzero"/><path fill="#ffffff" d="M 155.851562 211.058594 C 154.953125 208.023438 151.5 203.835938 146.628906 204.039062 C 146.453125 204.066406 146.210938 204.089844 146.035156 204.128906 C 140.675781 205.261719 141.660156 213.214844 147.585938 216.640625 C 152.839844 219.675781 157.472656 216.546875 155.851562 211.058594 " fill-opacity="1" fill-rule="nonzero"/><path fill="#ffffff" d="M 153.597656 190.617188 C 153.40625 190.652344 153.148438 190.6875 152.960938 190.734375 C 147.171875 192.132812 147.5 200.753906 153.476562 204.300781 C 158.738281 207.425781 164.039062 203.804688 162.78125 197.953125 C 162.074219 194.6875 158.761719 190.25 153.597656 190.617188 " fill-opacity="1" fill-rule="nonzero"/><path fill="#ffffff" d="M 144.617188 246.667969 C 147.128906 246.996094 147.441406 245.09375 145.320312 242.34375 C 143.589844 240.089844 139.566406 236.777344 136.054688 236.472656 C 135.585938 236.484375 135.101562 236.496094 134.699219 236.808594 C 132.214844 238.726562 139.539062 246.007812 144.617188 246.667969 " fill-opacity="1" fill-rule="nonzero"/><path fill="#ffffff" d="M 147.363281 253.566406 C 148.761719 253.53125 148.222656 252.089844 146.015625 249.976562 C 144.085938 248.132812 139.871094 245.03125 136.773438 244.558594 C 136.386719 244.539062 135.988281 244.523438 135.738281 244.761719 C 134.105469 246.328125 143.773438 253.652344 147.363281 253.566406 " fill-opacity="1" fill-rule="nonzero"/><path fill="#ffffff" d="M 130.40625 218.507812 C 135.136719 220.832031 138.222656 217.765625 136.40625 212.542969 C 135.269531 209.273438 131.59375 204.582031 126.984375 204.390625 C 126.65625 204.417969 126.21875 204.460938 125.902344 204.554688 C 121.046875 206.007812 124.074219 215.398438 130.40625 218.507812 " fill-opacity="1" fill-rule="nonzero"/><path fill="#ffffff" d="M 129.554688 229.140625 C 133.277344 230.410156 134.824219 227.746094 132.792969 223.550781 C 131.339844 220.550781 127.441406 216.148438 123.324219 215.765625 C 122.945312 215.777344 122.429688 215.792969 121.976562 216.003906 C 118.0625 217.828125 123.375 227.039062 129.554688 229.140625 " fill-opacity="1" fill-rule="nonzero"/><path fill="#ffffff" d="M 88.03125 146.410156 C 88.335938 142.820312 88.0625 137.226562 86.503906 136.027344 C 86.386719 135.984375 86.21875 135.929688 86.09375 135.949219 C 83.457031 136.40625 82.707031 150.410156 85.191406 152.789062 C 86.363281 153.914062 87.640625 151.050781 88.03125 146.410156 " fill-opacity="1" fill-rule="nonzero"/><path fill="#ffffff" d="M 82.800781 146.765625 C 82.734375 146.710938 82.632812 146.628906 82.546875 146.636719 C 80.964844 146.8125 81.679688 162.050781 83.355469 163.800781 C 84.0625 164.539062 84.53125 161.824219 84.445312 157.484375 C 84.371094 153.871094 83.8125 148.152344 82.800781 146.765625 " fill-opacity="1" fill-rule="nonzero"/><path fill="#ffffff" d="M 141.316406 200.199219 C 140.519531 196.953125 137.320312 192.386719 132.707031 192.390625 C 132.371094 192.433594 131.921875 192.492188 131.601562 192.597656 C 126.730469 194.207031 128.199219 202.828125 133.910156 206.167969 C 138.65625 208.941406 142.671875 205.707031 141.316406 200.199219 " fill-opacity="1" fill-rule="nonzero"/><path fill="#ffffff" d="M 139.210938 192.949219 C 144.179688 196.488281 149.351562 192.890625 148.277344 186.636719 C 147.691406 183.21875 144.664062 178.488281 139.773438 178.671875 C 139.59375 178.699219 139.347656 178.726562 139.167969 178.765625 C 133.621094 179.976562 133.648438 188.992188 139.210938 192.949219 " fill-opacity="1" fill-rule="nonzero"/><path fill="#ffffff" d="M 130.265625 237.761719 C 132.652344 238.265625 132.917969 236.234375 130.871094 233.140625 C 129.210938 230.632812 125.402344 226.863281 122.128906 226.335938 C 121.691406 226.320312 121.242188 226.304688 120.871094 226.613281 C 118.636719 228.457031 125.660156 236.792969 130.265625 237.761719 " fill-opacity="1" fill-rule="nonzero"/><path fill="#ffffff" d="M 133.152344 245.394531 C 134.398438 245.445312 133.789062 243.8125 131.671875 241.421875 C 129.679688 239.171875 125.675781 235.695312 123.015625 235.019531 C 122.664062 234.976562 122.332031 234.933594 122.144531 235.171875 C 120.878906 236.769531 130.035156 245.269531 133.152344 245.394531 " fill-opacity="1" fill-rule="nonzero"/><path fill="#ffffff" d="M 82.457031 132.382812 C 82.441406 132.351562 82.421875 132.304688 82.410156 132.273438 C 82.378906 132.273438 82.332031 132.269531 82.300781 132.265625 C 81.476562 133.660156 80.675781 146.367188 81.320312 147.894531 C 81.355469 147.898438 81.394531 147.898438 81.429688 147.898438 C 81.789062 147.238281 82.09375 144.070312 82.242188 142.242188 C 82.492188 139.171875 82.773438 133.78125 82.457031 132.382812 " fill-opacity="1" fill-rule="nonzero"/><path fill="#ffffff" d="M 85.800781 131.71875 C 86.410156 128.488281 86.921875 123.40625 86.140625 122.222656 C 86.078125 122.175781 85.980469 122.113281 85.902344 122.121094 C 84.195312 122.3125 82.011719 135.894531 83.441406 137.421875 C 84.050781 138.070312 85.0625 135.617188 85.800781 131.71875 " fill-opacity="1" fill-rule="nonzero"/><path fill="#ffffff" d="M 91.570312 120.980469 C 92.476562 117.808594 93.214844 112.890625 92.011719 111.890625 C 91.960938 111.871094 91.890625 111.839844 91.839844 111.828125 C 89.492188 111.441406 86.011719 123.617188 87.652344 126.46875 C 88.503906 127.941406 90.296875 125.429688 91.570312 120.980469 " fill-opacity="1" fill-rule="nonzero"/><path fill="#ffffff" d="M 94 115.476562 C 95.011719 117.320312 97.507812 114.75 99.246094 110.085938 C 100.394531 106.992188 101.3125 102.273438 99.75 101.464844 C 96.832031 100.949219 92.210938 112.207031 94 115.476562 " fill-opacity="1" fill-rule="nonzero"/><path fill="#ffffff" d="M 93.582031 134.707031 C 94.164062 131.4375 94.140625 126.421875 92.257812 125.503906 C 92.183594 125.492188 92.085938 125.460938 92.007812 125.457031 C 88.96875 125.296875 86.734375 136.964844 89.164062 140.320312 C 90.570312 142.265625 92.71875 139.539062 93.582031 134.707031 " fill-opacity="1" fill-rule="nonzero"/><path fill="#ffffff" d="M 95.433594 128.644531 C 97.046875 131.019531 100.027344 128.230469 101.335938 123.117188 C 102.160156 119.90625 102.296875 115.058594 100.027344 114.34375 C 95.976562 114.019531 93.148438 125.28125 95.433594 128.644531 " fill-opacity="1" fill-rule="nonzero"/><path fill="#ffffff" d="M 122.199219 136.378906 C 122.539062 133.050781 121.359375 128.273438 117.679688 128.074219 C 112.503906 128.542969 110.496094 137.773438 113.582031 141.886719 C 116.5625 145.863281 121.554688 142.671875 122.199219 136.378906 " fill-opacity="1" fill-rule="nonzero"/><path fill="#ffffff" d="M 131.660156 148.648438 C 131.710938 145.261719 129.882812 140.488281 125.664062 140.464844 C 119.746094 141.214844 118.523438 150.519531 122.539062 154.632812 C 126.28125 158.46875 131.570312 155 131.660156 148.648438 " fill-opacity="1" fill-rule="nonzero"/><path fill="#ffffff" d="M 133.648438 167.027344 C 138.039062 170.691406 143.570312 166.972656 143.191406 160.613281 C 142.988281 157.191406 140.589844 152.445312 135.90625 152.613281 C 129.453125 153.628906 128.886719 163.058594 133.648438 167.027344 " fill-opacity="1" fill-rule="nonzero"/><path fill="#ffffff" d="M 148.101562 164.433594 C 141.679688 165.621094 141.230469 174.4375 145.972656 178.519531 C 150.882812 182.746094 157.246094 178.910156 156.445312 172.203125 C 156.035156 168.765625 153.175781 164.082031 148.101562 164.433594 " fill-opacity="1" fill-rule="nonzero"/><path fill="#ffffff" d="M 112.179688 115.570312 C 107.417969 115.804688 104.714844 125.578125 107.332031 129.398438 C 109.636719 132.757812 113.914062 129.734375 115.09375 123.914062 C 115.75 120.671875 115.28125 115.9375 112.179688 115.570312 " fill-opacity="1" fill-rule="nonzero"/><path fill="#ffffff" d="M 103.492188 116.761719 C 105.15625 119.527344 108.839844 116.710938 110.527344 111.378906 C 111.519531 108.246094 111.800781 103.601562 109.3125 103.09375 C 105.027344 103.078125 101.382812 113.257812 103.492188 116.761719 " fill-opacity="1" fill-rule="nonzero"/><path fill="#ffffff" d="M 115.914062 181.242188 L 115.863281 181.332031 L 115.875 181.339844 Z M 115.914062 181.242188 " fill-opacity="1" fill-rule="nonzero"/><path fill="#ffffff" d="M 119.078125 194.148438 L 119.171875 194.238281 L 119.085938 194.148438 C 119.085938 194.148438 119.078125 194.148438 119.078125 194.148438 " fill-opacity="1" fill-rule="nonzero"/><path fill="#ffffff" d="M 159.125 236.375 C 163.851562 238.230469 167.121094 235.679688 165.261719 231.59375 C 164.167969 229.179688 160.65625 225.867188 156.289062 226.0625 C 155.832031 226.132812 155.265625 226.214844 154.726562 226.492188 C 151.078125 228.335938 153.710938 234.25 159.125 236.375 " fill-opacity="1" fill-rule="nonzero"/><path fill="#ffffff" d="M 158.421875 245.902344 C 162.015625 246.597656 163.492188 244.445312 161.515625 241.382812 C 160.242188 239.410156 156.707031 236.292969 152.636719 236.339844 C 152.367188 236.355469 151.546875 236.414062 150.914062 236.871094 C 148.046875 238.9375 152.957031 244.847656 158.421875 245.902344 " fill-opacity="1" fill-rule="nonzero"/><path fill="#ffffff" d="M 140.65625 134.933594 C 140.828125 131.761719 139.238281 127.347656 135.148438 127.464844 C 130.164062 127.988281 127.71875 136.027344 131.242188 140.304688 C 134.597656 144.375 140.316406 141.113281 140.65625 134.933594 " fill-opacity="1" fill-rule="nonzero"/><path fill="#ffffff" d="M 127.316406 115.742188 C 122.398438 116.386719 120.105469 124.734375 122.800781 128.445312 C 125.457031 132.097656 130.429688 129.230469 131.382812 123.492188 C 131.910156 120.324219 131 115.824219 127.316406 115.742188 " fill-opacity="1" fill-rule="nonzero"/><path fill="#ffffff" d="M 84.558594 122.101562 C 85.117188 121.804688 86.101562 118.738281 86.636719 116.9375 C 86.851562 116.222656 88.707031 109.933594 88.433594 108.402344 C 88.410156 108.355469 88.363281 108.296875 88.3125 108.277344 C 88.289062 108.289062 88.25 108.300781 88.226562 108.316406 C 86.957031 109.171875 83.59375 121.800781 84.558594 122.101562 " fill-opacity="1" fill-rule="nonzero"/><path fill="#ffffff" d="M 170.566406 220.199219 C 169.691406 217.722656 166.644531 214.179688 161.835938 214.550781 C 161.472656 214.617188 160.988281 214.707031 160.640625 214.832031 C 156.148438 216.429688 157.460938 222.921875 162.800781 225.519531 C 167.402344 227.753906 172.371094 225.289062 170.566406 220.199219 " fill-opacity="1" fill-rule="nonzero"/><path fill="#ffffff" d="M 151.152344 258.671875 C 151.816406 258.566406 150.320312 257.292969 148.699219 256.136719 C 146.863281 254.828125 142.738281 252.191406 140.308594 251.59375 C 140.015625 251.554688 139.765625 251.519531 139.703125 251.679688 C 139.246094 252.832031 149.304688 258.972656 151.152344 258.671875 " fill-opacity="1" fill-rule="nonzero"/><path fill="#ffffff" d="M 158.964844 253.539062 C 161.492188 253.714844 161.832031 252.15625 159.78125 249.835938 C 158.433594 248.3125 154.882812 245.40625 151.082031 245.289062 C 150.574219 245.324219 150.09375 245.359375 149.695312 245.65625 C 147.375 247.390625 154.21875 253.207031 158.964844 253.539062 " fill-opacity="1" fill-rule="nonzero"/><path fill="#ffffff" d="M 116.839844 116.480469 C 118.683594 119.199219 122.988281 117.121094 124.414062 111.648438 C 124.933594 109.644531 125.507812 104.382812 121.953125 104.128906 C 117.460938 104.554688 114.574219 113.148438 116.839844 116.480469 " fill-opacity="1" fill-rule="nonzero"/><path fill="#ffffff" d="M 92.410156 106.992188 C 93.355469 104.664062 94.980469 99.96875 94.347656 98.867188 C 94.316406 98.84375 94.28125 98.804688 94.242188 98.792969 C 92.792969 98.296875 88.203125 109.796875 89.070312 111.75 C 89.496094 112.703125 90.898438 110.703125 92.410156 106.992188 " fill-opacity="1" fill-rule="nonzero"/><path fill="#ffffff" d="M 145.253906 139.199219 C 139.179688 140.316406 138.621094 148.476562 141.992188 151.988281 C 145.609375 155.757812 151.996094 153.105469 151.835938 146.410156 C 151.726562 142.015625 148.777344 138.78125 145.253906 139.199219 " fill-opacity="1" fill-rule="nonzero"/><path fill="#ffffff" d="M 170.328125 183.347656 C 169.804688 180.351562 167.160156 176.078125 162.011719 176.589844 C 155.914062 177.550781 155.816406 185.984375 160.535156 189.492188 C 165.054688 192.847656 171.460938 189.847656 170.328125 183.347656 " fill-opacity="1" fill-rule="nonzero"/><path fill="#ffffff" d="M 168.238281 213.089844 C 173.214844 216.207031 178.71875 212.984375 177.441406 207.699219 C 176.542969 203.988281 172.539062 201.210938 168.875 201.753906 C 168.6875 201.792969 168.4375 201.832031 168.253906 201.882812 C 163.207031 203.226562 163.195312 209.933594 168.238281 213.089844 " fill-opacity="1" fill-rule="nonzero"/><path fill="#ffffff" d="M 108.851562 91.5 C 105.675781 91.296875 101.347656 100.746094 102.550781 103.515625 C 103.421875 105.519531 106.292969 103.285156 108.242188 99.085938 C 109.433594 96.515625 110.652344 92.183594 108.851562 91.5 " fill-opacity="1" fill-rule="nonzero"/><path fill="#ffffff" d="M 161.382812 259.660156 C 162.621094 259.558594 162.203125 258.410156 160.367188 256.871094 C 157.871094 254.773438 153.847656 252.863281 151.757812 252.773438 C 151.375 252.78125 151.011719 252.789062 150.777344 253.011719 C 149.207031 254.488281 157.933594 259.957031 161.382812 259.660156 " fill-opacity="1" fill-rule="nonzero"/><path fill="#ffffff" d="M 119.175781 92.59375 C 115.613281 92.824219 111.609375 100.617188 113.222656 104.167969 C 114.511719 107.003906 118.402344 104.371094 120.164062 99.472656 C 121.121094 96.808594 121.449219 92.914062 119.175781 92.59375 " fill-opacity="1" fill-rule="nonzero"/><path fill="#ffffff" d="M 95.742188 101.398438 C 96.210938 102.644531 98.277344 100.433594 100.167969 96.667969 C 101.429688 94.152344 102.914062 90.078125 102.09375 89.316406 C 102.089844 89.316406 102.085938 89.308594 102.078125 89.308594 C 100.171875 88.570312 94.78125 98.851562 95.742188 101.398438 " fill-opacity="1" fill-rule="nonzero"/><path fill="#ffffff" d="M 157.308594 150.707031 C 151.847656 151.5625 150.285156 159.539062 154.8125 163.441406 C 159.253906 167.269531 165.273438 163.652344 164.726562 157.484375 C 164.453125 154.402344 161.96875 150.265625 157.308594 150.707031 " fill-opacity="1" fill-rule="nonzero"/><path fill="#ffffff" d="M 179.976562 239.527344 C 178.835938 236.773438 174.785156 234.523438 171.640625 234.90625 C 171.355469 234.957031 170.96875 235.027344 170.695312 235.125 C 167.210938 236.367188 168.082031 241.066406 173.417969 243.328125 C 178.179688 245.347656 181.34375 242.824219 179.976562 239.527344 " fill-opacity="1" fill-rule="nonzero"/><path fill="#ffffff" d="M 176.144531 248.570312 C 174.957031 246.757812 171.425781 244.332031 167.890625 244.496094 C 167.253906 244.5625 166.734375 244.738281 166.339844 245.023438 C 163.84375 246.835938 167.667969 251.253906 172.636719 252.292969 C 176.453125 253.09375 177.675781 250.910156 176.144531 248.570312 " fill-opacity="1" fill-rule="nonzero"/><path fill="#ffffff" d="M 144.882812 114.566406 C 140.769531 115.105469 137.792969 122.097656 141.0625 126.105469 C 144.078125 129.808594 149.347656 126.902344 149.867188 121.246094 C 150.136719 118.3125 148.554688 114.359375 144.882812 114.566406 " fill-opacity="1" fill-rule="nonzero"/><path fill="#ffffff" d="M 140.898438 110.148438 C 141.542969 106.472656 139.789062 103.320312 137.21875 103.53125 C 132.914062 104.253906 130.203125 111.429688 132.890625 114.988281 C 135.457031 118.390625 140.066406 114.917969 140.898438 110.148438 " fill-opacity="1" fill-rule="nonzero"/><path fill="#ffffff" d="M 95.792969 93.652344 C 96.324219 92.660156 98.976562 87.671875 98.882812 86.425781 C 98.871094 86.40625 98.859375 86.367188 98.835938 86.351562 C 98.003906 85.738281 92.421875 96.332031 92.863281 97.6875 C 93.039062 98.222656 94.160156 96.675781 95.792969 93.652344 " fill-opacity="1" fill-rule="nonzero"/><path fill="#ffffff" d="M 126.949219 103.488281 C 128.574219 106.3125 132.921875 104.160156 134.265625 98.816406 C 134.875 96.390625 134.78125 92.761719 132.023438 92.710938 C 128.027344 93.246094 125.1875 100.421875 126.949219 103.488281 " fill-opacity="1" fill-rule="nonzero"/><path fill="#ffffff" d="M 154.828125 125.664062 C 150.015625 126.421875 148.082031 133.902344 151.785156 137.441406 C 155.382812 140.875 160.964844 137.460938 160.835938 131.910156 C 160.773438 129.28125 159.089844 125.261719 154.828125 125.664062 " fill-opacity="1" fill-rule="nonzero"/><path fill="#ffffff" d="M 185.234375 228.507812 C 184.089844 225.550781 180.519531 223.535156 177.277344 224.011719 C 176.957031 224.078125 176.53125 224.164062 176.222656 224.277344 C 172.15625 225.734375 173.050781 231.027344 177.742188 233.261719 C 182.449219 235.5 186.859375 232.703125 185.234375 228.507812 " fill-opacity="1" fill-rule="nonzero"/><path fill="#ffffff" d="M 174.273438 256.222656 C 172.269531 254.160156 168.6875 252.589844 166.28125 252.71875 C 165.882812 252.761719 165.210938 252.832031 164.835938 253.230469 C 163.230469 254.917969 169.199219 259.148438 173.347656 259.261719 C 175.652344 259.328125 176.042969 258.046875 174.273438 256.222656 " fill-opacity="1" fill-rule="nonzero"/><path fill="#ffffff" d="M 118.921875 81.558594 C 116.28125 81.3125 111.363281 89.171875 112.347656 92.066406 C 113.035156 94.097656 116.082031 92.441406 118.375 87.90625 C 119.394531 85.890625 120.816406 81.972656 118.921875 81.558594 " fill-opacity="1" fill-rule="nonzero"/><path fill="#ffffff" d="M 165.199219 264.296875 C 165.785156 264.175781 164.90625 263.398438 162.84375 262.214844 C 162.335938 261.921875 157.804688 259.355469 154.941406 258.949219 C 154.640625 258.929688 154.359375 258.914062 154.261719 259.058594 C 153.609375 260.03125 163.320312 264.679688 165.199219 264.296875 " fill-opacity="1" fill-rule="nonzero"/><path fill="#ffffff" d="M 192.207031 216.6875 C 191.636719 214.375 189.078125 211.160156 184.359375 211.777344 C 184.355469 211.78125 184.355469 211.78125 184.355469 211.78125 C 184.351562 211.78125 184.351562 211.78125 184.351562 211.78125 C 184.351562 211.78125 184.347656 211.78125 184.347656 211.78125 C 184.347656 211.78125 184.34375 211.78125 184.34375 211.78125 C 183.621094 211.949219 182.121094 212.292969 181.101562 213.671875 C 178.671875 216.957031 181.960938 223.25 188.308594 222.410156 C 188.3125 222.410156 188.3125 222.410156 188.3125 222.410156 C 188.3125 222.410156 188.316406 222.410156 188.316406 222.410156 C 188.320312 222.410156 188.320312 222.410156 188.320312 222.410156 C 188.320312 222.410156 188.320312 222.410156 188.320312 222.40625 C 188.320312 222.40625 188.320312 222.40625 188.324219 222.40625 C 193.191406 221.289062 192.324219 217.152344 192.207031 216.6875 " fill-opacity="1" fill-rule="nonzero"/><path fill="#ffffff" d="M 185.222656 193.953125 C 184.757812 191.300781 182.132812 187.320312 177.058594 187.9375 C 171.152344 189.320312 171.179688 196.554688 175.792969 199.585938 C 180.519531 202.691406 186.160156 199.320312 185.222656 193.953125 " fill-opacity="1" fill-rule="nonzero"/><path fill="#ffffff" d="M 171.03125 162.109375 C 165.574219 163.117188 164.421875 170.957031 169.21875 174.449219 C 173.816406 177.792969 179.597656 174.023438 178.734375 168.246094 C 178.230469 164.867188 175.359375 161.570312 171.03125 162.109375 " fill-opacity="1" fill-rule="nonzero"/><path fill="#ffffff" d="M 89.960938 102.824219 C 90.757812 100.910156 92.636719 96.34375 92.875 95.207031 C 92.878906 95.179688 92.878906 95.140625 92.878906 95.109375 C 92.859375 95.109375 92.832031 95.109375 92.8125 95.109375 C 92.027344 96.082031 87.621094 106.507812 87.988281 107.152344 C 88.105469 106.992188 88.378906 106.609375 89.960938 102.824219 " fill-opacity="1" fill-rule="nonzero"/><path fill="#ffffff" d="M 153.722656 260.898438 C 148.519531 258.199219 147.035156 257.550781 146.269531 257.269531 C 146.265625 257.269531 146.265625 257.269531 146.265625 257.269531 C 146.265625 257.269531 146.265625 257.269531 146.261719 257.269531 C 146.1875 257.246094 146.085938 257.21875 146.011719 257.207031 C 146.007812 257.226562 146 257.25 145.996094 257.265625 C 147.078125 258.289062 156.164062 262.683594 157.238281 262.847656 C 157.195312 262.757812 157.164062 262.683594 153.722656 260.898438 " fill-opacity="1" fill-rule="nonzero"/><path fill="#ffffff" d="M 104.246094 90.738281 C 104.628906 92.089844 106.746094 90.757812 109.175781 86.683594 C 109.316406 86.449219 112.585938 80.9375 111.171875 80.066406 C 108.746094 79.683594 103.632812 88.570312 104.246094 90.738281 " fill-opacity="1" fill-rule="nonzero"/><path fill="#ffffff" d="M 175.222656 264.589844 C 175.222656 264.589844 175.226562 264.589844 175.226562 264.589844 C 175.230469 264.589844 175.230469 264.589844 175.230469 264.589844 C 175.316406 264.585938 175.425781 264.582031 175.507812 264.574219 C 176.671875 264.4375 176.355469 263.589844 174.703125 262.40625 C 172.363281 260.734375 168.851562 259.394531 166.875 259.417969 C 166.519531 259.441406 166.15625 259.464844 165.925781 259.65625 C 164.664062 260.699219 171.074219 264.507812 175.222656 264.589844 " fill-opacity="1" fill-rule="nonzero"/><path fill="#ffffff" d="M 129.433594 82.039062 C 129.035156 82.082031 128.433594 82.144531 127.421875 82.96875 C 123.792969 85.914062 121.75 92.914062 125.179688 93.164062 C 125.179688 93.164062 125.183594 93.164062 125.183594 93.164062 C 125.183594 93.164062 125.1875 93.164062 125.1875 93.164062 C 128.027344 92.875 129.878906 88.667969 130.082031 88.1875 C 131.335938 85.222656 131.371094 82.042969 129.433594 82.039062 " fill-opacity="1" fill-rule="nonzero"/><path fill="#ffffff" d="M 106.636719 77.652344 C 105.734375 77.445312 98.945312 86.433594 99.855469 88.28125 C 99.855469 88.28125 99.855469 88.28125 99.859375 88.28125 C 100.644531 88.738281 103.386719 84.578125 103.695312 84.101562 C 104.675781 82.597656 107.128906 78.519531 106.722656 77.703125 C 106.699219 77.6875 106.664062 77.660156 106.636719 77.652344 " fill-opacity="1" fill-rule="nonzero"/><path fill="#ffffff" d="M 166.789062 136.648438 C 160.933594 138.023438 160.820312 145.351562 164.285156 148.285156 C 167.886719 151.332031 173.914062 148.582031 173.515625 142.738281 C 173.242188 138.785156 170.226562 136.050781 166.789062 136.648438 " fill-opacity="1" fill-rule="nonzero"/><path fill="#ffffff" d="M 180.394531 147.429688 C 175.53125 148.695312 174.128906 154.933594 177.929688 158.378906 C 182.308594 162.34375 187.964844 158.398438 187.519531 153.230469 C 187.277344 150.417969 184.664062 146.835938 180.394531 147.429688 " fill-opacity="1" fill-rule="nonzero"/><path fill="#ffffff" d="M 193.667969 178.976562 C 193.171875 175.289062 189.417969 172.445312 185.945312 173.125 C 180.949219 174.441406 179.757812 180.949219 183.886719 184.355469 C 188.757812 188.367188 194.386719 184.316406 193.667969 178.976562 " fill-opacity="1" fill-rule="nonzero"/><path fill="#ffffff" d="M 200.160156 203.242188 C 199.558594 200.046875 195.871094 197.648438 192.574219 198.300781 C 187.675781 199.582031 186.734375 205.375 190.949219 208.300781 C 195.769531 211.644531 201.039062 207.894531 200.160156 203.242188 " fill-opacity="1" fill-rule="nonzero"/><path fill="#ffffff" d="M 114.171875 80.355469 C 114.414062 82.085938 117.21875 79.820312 119.34375 76.753906 C 120.871094 74.554688 122.421875 71.285156 121.367188 70.859375 C 119.128906 70.78125 113.816406 77.792969 114.171875 80.355469 " fill-opacity="1" fill-rule="nonzero"/><path fill="#ffffff" d="M 194.019531 246.136719 C 193.117188 243.914062 189.535156 242.132812 186.789062 242.539062 C 186.53125 242.589844 186.1875 242.660156 185.941406 242.75 C 183.027344 243.8125 183.421875 247.425781 187.636719 249.261719 C 191.949219 251.144531 195.171875 248.972656 194.019531 246.136719 " fill-opacity="1" fill-rule="nonzero"/><path fill="#ffffff" d="M 160.421875 263.65625 C 160.34375 263.644531 160.242188 263.632812 160.164062 263.632812 C 160.152344 263.652344 160.140625 263.679688 160.132812 263.699219 C 161.054688 264.605469 169.074219 267.410156 170.894531 267.6875 C 170.914062 267.671875 170.9375 267.648438 170.953125 267.632812 C 170.648438 267.441406 169.582031 266.980469 167.785156 266.265625 C 167.222656 266.042969 162.21875 264.066406 160.421875 263.65625 " fill-opacity="1" fill-rule="nonzero"/><path fill="#ffffff" d="M 123.097656 81.066406 C 123.699219 82.945312 126.652344 80.984375 128.738281 77.320312 C 129.875 75.332031 131.070312 72.066406 129.449219 71.785156 C 126.804688 71.976562 122.292969 78.566406 123.097656 81.066406 " fill-opacity="1" fill-rule="nonzero"/><path fill="#ffffff" d="M 179.257812 268.402344 C 179.703125 268.144531 177.796875 267.226562 177.203125 266.953125 C 174.910156 265.894531 171.429688 264.707031 169.808594 264.636719 C 169.550781 264.640625 169.28125 264.644531 169.203125 264.777344 C 168.628906 265.726562 178.023438 269.113281 179.257812 268.402344 " fill-opacity="1" fill-rule="nonzero"/><path fill="#ffffff" d="M 154.460938 101.910156 C 150.398438 102.816406 148.390625 109.042969 151.15625 112.160156 C 153.84375 115.195312 158.554688 112.382812 158.90625 107.53125 C 159.148438 104.21875 157.027344 101.542969 154.460938 101.910156 " fill-opacity="1" fill-rule="nonzero"/><path fill="#ffffff" d="M 146.957031 91.648438 C 143.335938 92.371094 140.894531 98.304688 142.945312 101.414062 C 144.964844 104.480469 149.363281 101.945312 150.1875 97.242188 C 150.746094 94.054688 149.207031 91.390625 146.957031 91.648438 " fill-opacity="1" fill-rule="nonzero"/><path fill="#ffffff" d="M 186.449219 257.480469 C 190.011719 258.222656 191.421875 256.4375 190.082031 254.453125 C 188.796875 252.554688 185.386719 251.09375 182.929688 251.386719 C 182.460938 251.46875 182.023438 251.546875 181.570312 251.859375 C 179.40625 253.34375 182.234375 256.601562 186.449219 257.480469 " fill-opacity="1" fill-rule="nonzero"/><path fill="#ffffff" d="M 108.546875 78.527344 C 108.707031 79.472656 110.59375 77.921875 112.84375 75 C 112.882812 74.953125 116.664062 70.027344 115.949219 69.238281 C 114.457031 68.828125 108.230469 76.644531 108.546875 78.527344 " fill-opacity="1" fill-rule="nonzero"/><path fill="#ffffff" d="M 187.21875 263.699219 C 189.226562 263.671875 189.59375 262.648438 188.09375 261.261719 C 186.90625 260.164062 184.089844 258.589844 181.199219 258.753906 C 180.855469 258.792969 180.222656 258.898438 179.894531 259.222656 C 178.460938 260.652344 183.527344 263.746094 187.21875 263.699219 " fill-opacity="1" fill-rule="nonzero"/><path fill="#ffffff" d="M 141.941406 81.636719 C 138.796875 81.949219 135.753906 88.246094 137.421875 90.992188 C 138.792969 93.25 142.585938 91.339844 143.8125 86.921875 C 144.414062 84.769531 144.40625 81.582031 141.941406 81.636719 " fill-opacity="1" fill-rule="nonzero"/><path fill="#ffffff" d="M 164.277344 112.328125 C 160.042969 113.089844 158.320312 119.554688 161.527344 122.652344 C 164.441406 125.472656 169.777344 122.992188 169.628906 117.714844 C 169.5625 115.296875 168.082031 111.867188 164.277344 112.328125 " fill-opacity="1" fill-rule="nonzero"/><path fill="#ffffff" d="M 199.480469 235.949219 C 198.878906 234.257812 196.453125 231.769531 192.496094 232.308594 C 192.214844 232.359375 191.789062 232.457031 191.363281 232.636719 C 188.039062 234.035156 188.6875 238.226562 192.5 239.984375 C 196.535156 241.84375 200.710938 239.429688 199.480469 235.949219 " fill-opacity="1" fill-rule="nonzero"/><path fill="#ffffff" d="M 101.550781 80.914062 C 103.152344 78.582031 105.121094 75.613281 105.386719 74.738281 C 105.375 74.710938 105.359375 74.671875 105.351562 74.644531 C 104.40625 74.96875 98.75 83.476562 98.976562 84.230469 C 99.082031 84.191406 99.363281 84.09375 101.550781 80.914062 " fill-opacity="1" fill-rule="nonzero"/><path fill="#ffffff" d="M 109.492188 72.449219 C 109.53125 72.402344 113.394531 67.75 113.398438 66.875 C 113.386719 66.859375 113.375 66.84375 113.363281 66.828125 C 112.265625 66.777344 105.664062 74.941406 106.226562 75.652344 C 106.710938 75.691406 108.480469 73.664062 109.492188 72.449219 " fill-opacity="1" fill-rule="nonzero"/><path fill="#ffffff" d="M 175.152344 268.414062 C 174.898438 268.398438 174.898438 268.398438 174.832031 268.460938 C 175.429688 269.046875 183.890625 271.136719 184.675781 270.890625 C 184.570312 270.835938 184.398438 270.738281 182.003906 270.074219 C 178.5625 269.117188 176.253906 268.558594 175.152344 268.414062 " fill-opacity="1" fill-rule="nonzero"/><path fill="#ffffff" d="M 195.21875 158.136719 C 190.582031 159.214844 189.386719 165.464844 193.21875 168.589844 C 197.339844 171.941406 202.980469 168.617188 202.234375 163.277344 C 201.875 160.707031 199.457031 157.414062 195.21875 158.136719 " fill-opacity="1" fill-rule="nonzero"/><path fill="#ffffff" d="M 202.917969 229.566406 C 202.917969 229.566406 202.921875 229.566406 202.921875 229.566406 C 202.921875 229.566406 202.921875 229.566406 202.925781 229.566406 C 202.925781 229.566406 202.925781 229.566406 202.929688 229.566406 C 202.933594 229.566406 202.933594 229.5625 202.933594 229.5625 C 202.9375 229.5625 202.9375 229.5625 202.9375 229.5625 C 202.941406 229.5625 202.941406 229.5625 202.941406 229.5625 C 207.273438 228.480469 206.59375 224.996094 206.5 224.601562 C 206.050781 222.671875 203.863281 220.042969 199.6875 220.703125 C 198.042969 221.042969 197.160156 221.914062 196.78125 222.402344 C 194.386719 225.488281 197.710938 230.363281 202.914062 229.570312 C 202.914062 229.570312 202.917969 229.570312 202.917969 229.566406 " fill-opacity="1" fill-rule="nonzero"/><path fill="#ffffff" d="M 139.554688 71.855469 C 137.007812 72.03125 133.507812 77.722656 134.355469 80.308594 C 135.058594 82.46875 138.304688 80.9375 140.074219 76.808594 C 140.878906 74.921875 141.453125 71.910156 139.554688 71.855469 " fill-opacity="1" fill-rule="nonzero"/><path fill="#ffffff" d="M 118.703125 69.085938 C 118.671875 70.167969 120.78125 68.699219 123.222656 65.941406 C 124.476562 64.523438 126.871094 61.445312 126.257812 60.988281 C 124.691406 60.828125 118.757812 67.183594 118.703125 69.085938 " fill-opacity="1" fill-rule="nonzero"/><path fill="#ffffff" d="M 189.296875 268.097656 C 190.023438 267.878906 189.585938 267.222656 188.175781 266.421875 C 186.988281 265.75 184.101562 264.492188 181.679688 264.546875 C 181.679688 264.546875 181.675781 264.546875 181.675781 264.546875 C 181.671875 264.546875 181.671875 264.546875 181.671875 264.546875 C 181.667969 264.546875 181.667969 264.546875 181.667969 264.546875 C 181.664062 264.546875 181.664062 264.546875 181.664062 264.546875 C 181.375 264.578125 180.894531 264.625 180.734375 264.871094 C 179.921875 266.09375 187.042969 268.78125 189.296875 268.097656 " fill-opacity="1" fill-rule="nonzero"/><path fill="#ffffff" d="M 176.097656 122.675781 C 176.097656 122.675781 176.097656 122.675781 176.09375 122.675781 C 176.09375 122.675781 176.09375 122.675781 176.089844 122.675781 C 176.085938 122.679688 176.085938 122.679688 176.085938 122.679688 C 176.082031 122.679688 176.082031 122.679688 176.082031 122.679688 C 176.082031 122.679688 176.078125 122.679688 176.078125 122.679688 C 176.078125 122.679688 176.074219 122.679688 176.074219 122.679688 C 176.074219 122.679688 176.070312 122.679688 176.070312 122.679688 C 170.886719 124.078125 170.929688 130.664062 174.078125 133.074219 C 177.65625 135.8125 182.542969 132.628906 182.125 127.835938 C 181.925781 125.527344 180.109375 122.085938 176.097656 122.675781 " fill-opacity="1" fill-rule="nonzero"/><path fill="#ffffff" d="M 169.453125 267.4375 L 169.785156 267.535156 C 169.539062 267.457031 169.285156 267.386719 169.042969 267.308594 L 169.453125 267.4375 " fill-opacity="1" fill-rule="nonzero"/><path fill="#ffffff" d="M 208.625 188.621094 C 208.011719 185.351562 204.773438 183.191406 201.546875 183.902344 C 196.328125 185.371094 196.101562 191.601562 200.019531 194.140625 C 204.222656 196.859375 209.53125 193.453125 208.625 188.621094 " fill-opacity="1" fill-rule="nonzero"/><path fill="#ffffff" d="M 125.15625 70.304688 C 125.421875 71.601562 127.910156 69.90625 130.183594 66.886719 C 131.261719 65.453125 133.136719 62.394531 132.050781 62.101562 C 130.335938 61.953125 124.703125 68.066406 125.15625 70.304688 " fill-opacity="1" fill-rule="nonzero"/><path fill="#ffffff" d="M 214.652344 211.929688 C 214.367188 209.464844 211.570312 207.136719 208.015625 207.746094 C 203.910156 208.886719 202.738281 213.398438 205.890625 215.933594 C 209.882812 219.140625 215.128906 216.015625 214.652344 211.929688 " fill-opacity="1" fill-rule="nonzero"/><path fill="#ffffff" d="M 192.5625 271.097656 C 192.90625 270.90625 191.359375 270.347656 190.878906 270.183594 C 188.910156 269.503906 185.785156 268.753906 184.445312 268.769531 C 184.246094 268.78125 183.917969 268.800781 183.917969 268.957031 C 183.910156 269.734375 191.585938 271.632812 192.5625 271.097656 " fill-opacity="1" fill-rule="nonzero"/><path fill="#ffffff" d="M 189.636719 132.855469 C 189.632812 132.855469 189.632812 132.855469 189.632812 132.855469 C 189.632812 132.855469 189.628906 132.855469 189.628906 132.855469 C 189.628906 132.855469 189.625 132.855469 189.625 132.855469 C 189.625 132.859375 189.621094 132.859375 189.621094 132.859375 C 189.621094 132.859375 189.621094 132.859375 189.617188 132.859375 C 189.613281 132.859375 189.613281 132.859375 189.613281 132.859375 C 189.613281 132.859375 189.609375 132.859375 189.609375 132.859375 C 185.085938 134.175781 184.144531 140.367188 188.058594 143.058594 C 192.160156 145.875 196.644531 141.992188 196 137.59375 C 195.65625 135.238281 193.25 132.277344 189.636719 132.855469 " fill-opacity="1" fill-rule="nonzero"/><path fill="#ffffff" d="M 134.109375 70.339844 C 134.550781 71.839844 137.183594 70.085938 139.050781 67.050781 C 139.914062 65.644531 141.246094 62.679688 139.828125 62.507812 C 137.511719 62.792969 133.503906 68.28125 134.109375 70.339844 " fill-opacity="1" fill-rule="nonzero"/><path fill="#ffffff" d="M 115.28125 67.0625 C 115.839844 67.296875 118.402344 64.714844 119.175781 63.921875 C 119.332031 63.757812 123 59.96875 122.824219 59.3125 C 122.804688 59.300781 122.78125 59.285156 122.761719 59.28125 C 122.003906 59.152344 114.757812 65.761719 115.28125 67.0625 " fill-opacity="1" fill-rule="nonzero"/><path fill="#ffffff" d="M 206.949219 251.535156 C 206.351562 250.25 204.164062 248.628906 201.164062 249.039062 C 200.742188 249.117188 200.320312 249.261719 200 249.429688 C 197.761719 250.632812 198.738281 253.335938 201.804688 254.414062 C 205.066406 255.566406 208.046875 253.894531 206.949219 251.535156 " fill-opacity="1" fill-rule="nonzero"/><path fill="#ffffff" d="M 160.832031 98.367188 C 163.207031 100.9375 167.253906 98.285156 167.292969 94.125 C 167.3125 92.125 166.132812 89.441406 163.453125 89.75 C 160.160156 90.363281 158.496094 95.839844 160.832031 98.367188 " fill-opacity="1" fill-rule="nonzero"/><path fill="#ffffff" d="M 199.644531 261.597656 C 202.4375 262.101562 204.121094 260.902344 202.976562 259.21875 C 201.980469 257.75 199.273438 256.734375 197.183594 257.039062 C 196.847656 257.105469 196.28125 257.214844 195.855469 257.554688 C 194.34375 258.753906 196.472656 261.019531 199.644531 261.597656 " fill-opacity="1" fill-rule="nonzero"/><path fill="#ffffff" d="M 156.09375 80.335938 C 152.785156 81.0625 151.21875 86.578125 153.058594 88.683594 C 154.757812 90.628906 158.324219 88.6875 158.847656 84.707031 C 159.15625 82.371094 158.191406 80.03125 156.09375 80.335938 " fill-opacity="1" fill-rule="nonzero"/><path fill="#ffffff" d="M 212.664062 242.230469 C 212.199219 240.855469 210.304688 239.003906 206.996094 239.542969 C 206.839844 239.574219 206.496094 239.667969 206.492188 239.667969 C 203.121094 240.695312 203.503906 244.109375 206.296875 245.5625 C 209.699219 247.332031 213.6875 245.246094 212.664062 242.230469 " fill-opacity="1" fill-rule="nonzero"/><path fill="#ffffff" d="M 151.269531 71.128906 C 148.730469 71.453125 146.230469 76.632812 147.554688 78.824219 C 148.664062 80.65625 151.769531 79.074219 152.792969 75.464844 C 153.304688 73.660156 153.324219 71.019531 151.269531 71.128906 " fill-opacity="1" fill-rule="nonzero"/><path fill="#ffffff" d="M 173.140625 99.390625 C 168.914062 100.496094 168.6875 106.101562 171.125 108.203125 C 173.648438 110.378906 177.988281 108.203125 177.785156 103.878906 C 177.648438 100.929688 175.5625 98.917969 173.140625 99.390625 " fill-opacity="1" fill-rule="nonzero"/><path fill="#ffffff" d="M 200.109375 266.917969 C 201.703125 266.816406 202.015625 266.078125 200.878906 265.121094 C 199.683594 264.117188 197.273438 263.222656 195.300781 263.460938 C 195 263.511719 194.492188 263.59375 194.210938 263.859375 C 193.035156 264.960938 197.171875 267.101562 200.109375 266.917969 " fill-opacity="1" fill-rule="nonzero"/><path fill="#ffffff" d="M 201.757812 270.433594 C 202.328125 270.261719 202.023438 269.847656 200.964844 269.359375 C 199.835938 268.835938 197.480469 268.101562 195.613281 268.222656 C 195.328125 268.25 194.960938 268.320312 194.847656 268.496094 C 194.292969 269.339844 200.039062 270.953125 201.757812 270.433594 " fill-opacity="1" fill-rule="nonzero"/><path fill="#ffffff" d="M 136.503906 60.613281 C 136.710938 61.535156 138.78125 60.160156 140.765625 57.792969 C 142.332031 55.929688 143.480469 53.886719 142.695312 53.820312 C 140.863281 53.980469 136.175781 59.125 136.503906 60.613281 " fill-opacity="1" fill-rule="nonzero"/><path fill="#ffffff" d="M 189.667969 271.476562 C 189.449219 271.472656 189.449219 271.472656 189.398438 271.519531 C 189.960938 271.875 197.230469 272.839844 197.765625 272.628906 C 197.574219 272.582031 197.328125 272.542969 195.390625 272.25 C 192.335938 271.785156 190.65625 271.527344 189.667969 271.476562 " fill-opacity="1" fill-rule="nonzero"/><path fill="#ffffff" d="M 149.4375 66.246094 C 150.328125 64.269531 150.414062 62.132812 149.117188 62.230469 C 146.828125 62.652344 143.964844 67.441406 144.867188 69.347656 C 145.597656 70.894531 148.117188 69.183594 149.4375 66.246094 " fill-opacity="1" fill-rule="nonzero"/><path fill="#ffffff" d="M 125.722656 58.582031 C 125.609375 59.214844 127.308594 58.109375 129.675781 56.019531 C 129.71875 55.984375 133.628906 52.496094 133.34375 52.035156 C 132.296875 51.839844 125.957031 57.289062 125.722656 58.582031 " fill-opacity="1" fill-rule="nonzero"/><path fill="#ffffff" d="M 210.804688 168.695312 C 205.875 170.179688 206.074219 175.875 208.984375 178.21875 C 212.386719 180.953125 217.996094 178.441406 217.269531 173.324219 C 216.800781 170.011719 213.902344 167.933594 210.804688 168.695312 " fill-opacity="1" fill-rule="nonzero"/><path fill="#ffffff" d="M 137.074219 53.214844 C 135.558594 53.1875 129.796875 58.664062 129.902344 60.03125 C 129.957031 60.742188 131.65625 59.847656 134.300781 57.160156 C 134.445312 57.015625 137.8125 53.582031 137.074219 53.214844 " fill-opacity="1" fill-rule="nonzero"/><path fill="#ffffff" d="M 217.109375 193.804688 C 212.675781 194.929688 212.152344 200.167969 215.285156 202.386719 C 218.792969 204.867188 223.859375 201.914062 223.261719 197.738281 C 222.984375 195.796875 221.066406 193.011719 217.109375 193.804688 " fill-opacity="1" fill-rule="nonzero"/><path fill="#ffffff" d="M 113.519531 64 C 113.53125 63.976562 113.527344 63.941406 113.53125 63.917969 C 112.820312 64.238281 107.082031 71.019531 107.070312 71.558594 C 107.234375 71.460938 107.660156 71.007812 109.539062 68.816406 C 112.617188 65.230469 113.273438 64.40625 113.519531 64 " fill-opacity="1" fill-rule="nonzero"/><path fill="#ffffff" d="M 204.40625 143.097656 C 199.4375 144.613281 199.851562 150.535156 203.050781 152.664062 C 206.753906 155.125 211.367188 151.988281 210.644531 147.503906 C 210.148438 144.410156 207.292969 142.394531 204.40625 143.097656 " fill-opacity="1" fill-rule="nonzero"/><path fill="#ffffff" d="M 184.875 108.988281 C 180.726562 110.175781 180.371094 115.671875 183.402344 117.867188 C 186.566406 120.164062 190.710938 117.234375 190.117188 113.117188 C 189.84375 111.230469 188.179688 108.4375 184.875 108.988281 " fill-opacity="1" fill-rule="nonzero"/><path fill="#ffffff" d="M 219.886719 231.566406 C 219.503906 229.691406 217.421875 228.003906 214.3125 228.570312 C 210.488281 229.460938 210.085938 233.253906 212.707031 235.066406 C 215.878906 237.25 220.574219 234.960938 219.886719 231.566406 " fill-opacity="1" fill-rule="nonzero"/><path fill="#ffffff" d="M 117.691406 61.367188 C 117.726562 61.332031 121.515625 57.6875 121.761719 57.050781 C 121.761719 57.046875 121.761719 57.046875 121.761719 57.046875 C 121.761719 57.046875 121.761719 57.046875 121.753906 57.011719 C 120.9375 56.980469 114.488281 63.269531 114.636719 63.949219 C 114.925781 63.972656 116.675781 62.34375 117.691406 61.367188 " fill-opacity="1" fill-rule="nonzero"/><path fill="#ffffff" d="M 197.242188 127.242188 C 200.808594 129.578125 204.511719 126.222656 203.84375 122.503906 C 203.492188 120.566406 201.496094 117.984375 198.316406 118.585938 C 194.859375 119.464844 193.625 124.875 197.242188 127.242188 " fill-opacity="1" fill-rule="nonzero"/><path fill="#ffffff" d="M 228.152344 219.371094 C 227.890625 217.417969 225.777344 215.679688 222.804688 216.269531 C 219.601562 217.082031 217.960938 220.957031 220.839844 223.113281 C 224.148438 225.589844 228.589844 222.710938 228.152344 219.371094 " fill-opacity="1" fill-rule="nonzero"/><path fill="#ffffff" d="M 198.304688 271.367188 C 197.988281 271.394531 197.902344 271.421875 197.871094 271.503906 C 198.167969 272.085938 204.03125 272.726562 204.78125 272.441406 C 204.785156 272.425781 204.789062 272.40625 204.792969 272.390625 C 204.730469 272.34375 204.570312 272.226562 203.136719 271.941406 C 202.601562 271.835938 199.859375 271.3125 198.304688 271.367188 " fill-opacity="1" fill-rule="nonzero"/><path fill="#ffffff" d="M 144.835938 60.039062 C 145.039062 61.226562 147.039062 60.167969 148.808594 57.449219 C 149.933594 55.722656 150.5625 53.878906 149.625 53.910156 C 147.925781 54.164062 144.570312 58.464844 144.835938 60.039062 " fill-opacity="1" fill-rule="nonzero"/><path fill="#ffffff" d="M 127.351562 54.171875 C 128.808594 52.996094 131.269531 50.949219 131.382812 50.492188 C 130.933594 50.089844 124.230469 55.503906 124.136719 56.34375 C 124.195312 56.402344 124.371094 56.578125 127.351562 54.171875 " fill-opacity="1" fill-rule="nonzero"/><path fill="#ffffff" d="M 169.746094 85.113281 C 171.558594 86.855469 174.738281 85.125 174.644531 81.683594 C 174.609375 80.339844 173.898438 77.890625 171.46875 78.238281 C 168.6875 78.824219 167.929688 83.371094 169.746094 85.113281 " fill-opacity="1" fill-rule="nonzero"/><path fill="#ffffff" d="M 214.285156 254.425781 C 214.105469 254.46875 213.863281 254.527344 213.691406 254.589844 C 211.515625 255.371094 212 257.378906 213.933594 258.253906 C 216.152344 259.25 219.304688 258.203125 218.582031 256.21875 C 218.238281 255.269531 216.808594 254.015625 214.285156 254.425781 " fill-opacity="1" fill-rule="nonzero"/><path fill="#ffffff" d="M 166.519531 73.089844 C 166.714844 71.183594 165.929688 69.378906 164.273438 69.652344 C 161.710938 70.277344 160.625 74.535156 162.078125 76.199219 C 163.445312 77.757812 166.191406 76.246094 166.519531 73.089844 " fill-opacity="1" fill-rule="nonzero"/><path fill="#ffffff" d="M 211.402344 264.644531 C 213.472656 265.023438 215.308594 264.253906 214.421875 262.90625 C 213.699219 261.8125 211.816406 261.1875 210.132812 261.480469 C 209.863281 261.539062 209.40625 261.636719 209.058594 261.882812 C 207.894531 262.710938 209.1875 264.230469 211.402344 264.644531 " fill-opacity="1" fill-rule="nonzero"/><path fill="#ffffff" d="M 224.503906 247.714844 C 224.246094 246.652344 222.894531 245.25 220.230469 245.75 C 217.082031 246.585938 217.242188 249.183594 219.125 250.277344 C 221.609375 251.722656 225.078125 250.066406 224.503906 247.714844 " fill-opacity="1" fill-rule="nonzero"/><path fill="#ffffff" d="M 219.96875 153.222656 C 215.65625 154.421875 215.859375 159.75 218.558594 161.757812 C 221.617188 164.03125 226.523438 161.472656 225.660156 156.988281 C 225.339844 155.320312 223.738281 152.378906 219.96875 153.222656 " fill-opacity="1" fill-rule="nonzero"/><path fill="#ffffff" d="M 147.992188 45.964844 C 146.6875 46.039062 141.625 50.335938 141.621094 51.378906 C 141.617188 51.902344 142.988281 51.214844 145.285156 49.15625 C 145.320312 49.125 148.59375 46.183594 147.992188 45.964844 " fill-opacity="1" fill-rule="nonzero"/><path fill="#ffffff" d="M 137.28125 50.582031 C 137.238281 51.019531 138.699219 50.167969 140.921875 48.460938 C 141.273438 48.1875 144.390625 45.785156 144.429688 45.300781 C 144.421875 45.292969 144.40625 45.28125 144.398438 45.269531 C 143.414062 45.207031 137.363281 49.726562 137.28125 50.582031 " fill-opacity="1" fill-rule="nonzero"/><path fill="#ffffff" d="M 224.855469 187.136719 C 227.796875 189.292969 232.683594 186.910156 232.074219 182.617188 C 231.839844 180.957031 230.371094 178.039062 226.507812 178.90625 C 221.808594 180.4375 222.523438 185.429688 224.855469 187.136719 " fill-opacity="1" fill-rule="nonzero"/><path fill="#ffffff" d="M 179.765625 94.058594 C 182.144531 96.015625 185.390625 93.683594 184.949219 90.332031 C 184.75 88.816406 183.511719 86.570312 181.035156 86.984375 C 178.230469 87.632812 177.421875 92.132812 179.765625 94.058594 " fill-opacity="1" fill-rule="nonzero"/><path fill="#ffffff" d="M 237.027344 205.738281 C 236.730469 203.589844 234.363281 202.1875 232.066406 202.800781 C 228.660156 203.90625 227.558594 207.804688 230.109375 209.75 C 233.222656 212.125 237.488281 209.046875 237.027344 205.738281 " fill-opacity="1" fill-rule="nonzero"/><path fill="#ffffff" d="M 211.820312 269.019531 C 212.808594 268.851562 212.941406 268.335938 212.148438 267.769531 C 211.492188 267.300781 209.804688 266.640625 208.054688 266.855469 C 207.480469 266.941406 207.242188 267.117188 207.140625 267.25 C 206.457031 268.132812 209.738281 269.371094 211.820312 269.019531 " fill-opacity="1" fill-rule="nonzero"/><path fill="#ffffff" d="M 156.894531 67.300781 C 157.792969 68.847656 160.121094 67.320312 160.847656 64.707031 C 161.332031 62.96875 160.953125 61.152344 159.640625 61.328125 C 157.640625 61.792969 155.898438 65.585938 156.894531 67.300781 " fill-opacity="1" fill-rule="nonzero"/><path fill="#ffffff" d="M 227.722656 235.507812 C 225.09375 236.292969 224.066406 238.882812 225.792969 240.371094 C 228.226562 242.46875 232.113281 240.40625 231.933594 237.824219 C 231.820312 236.167969 229.734375 235.023438 227.722656 235.507812 " fill-opacity="1" fill-rule="nonzero"/><path fill="#ffffff" d="M 194.585938 103.515625 C 194.589844 103.515625 194.589844 103.515625 194.589844 103.515625 C 194.589844 103.515625 194.589844 103.515625 194.589844 103.511719 C 194.59375 103.515625 194.59375 103.511719 194.59375 103.511719 C 194.59375 103.511719 194.597656 103.511719 194.597656 103.511719 C 196.835938 102.785156 197.335938 100.53125 197.128906 99.195312 C 196.785156 96.984375 194.621094 95.339844 192.675781 95.808594 C 192.28125 95.9375 191.460938 96.195312 190.78125 97.257812 C 188.890625 100.214844 191.269531 104.128906 194.585938 103.515625 " fill-opacity="1" fill-rule="nonzero"/><path fill="#ffffff" d="M 211.878906 136.058594 C 215.316406 138.648438 219.136719 135.5 218.457031 131.824219 C 218.050781 129.628906 215.878906 127.617188 213.070312 128.195312 C 209.671875 129.316406 208.980469 133.875 211.878906 136.058594 " fill-opacity="1" fill-rule="nonzero"/><path fill="#ffffff" d="M 134.976562 49.167969 C 135.285156 49.265625 137.4375 47.828125 138.347656 47.207031 C 138.382812 47.179688 142.152344 44.597656 142.253906 44.195312 C 141.527344 44.015625 134.929688 48.523438 134.976562 49.167969 " fill-opacity="1" fill-rule="nonzero"/><path fill="#ffffff" d="M 157.707031 53.421875 C 156.203125 53.753906 153.898438 57.238281 154.492188 58.796875 C 155.015625 60.175781 157.078125 58.390625 157.976562 56.226562 C 158.558594 54.832031 158.566406 53.332031 157.707031 53.421875 " fill-opacity="1" fill-rule="nonzero"/><path fill="#ffffff" d="M 152.824219 46.199219 C 151.78125 46.226562 147.601562 50.160156 147.625 51.4375 C 147.640625 52.25 149.511719 50.875 151.046875 49.195312 C 151.957031 48.199219 153.414062 46.296875 152.824219 46.199219 " fill-opacity="1" fill-rule="nonzero"/><path fill="#ffffff" d="M 212.152344 271.007812 C 211.128906 270.675781 209.222656 270.394531 208.207031 270.515625 C 208.023438 270.546875 207.710938 270.597656 207.664062 270.746094 C 207.445312 271.433594 211.992188 271.960938 212.824219 271.582031 C 213.160156 271.429688 212.695312 271.183594 212.152344 271.007812 " fill-opacity="1" fill-rule="nonzero"/><path fill="#ffffff" d="M 122.933594 54.378906 C 122.941406 54.363281 122.953125 54.339844 122.960938 54.324219 C 122.527344 54.515625 117.15625 59.433594 116.878906 60.039062 C 116.976562 59.964844 116.976562 59.964844 119.195312 57.902344 C 122.03125 55.261719 122.707031 54.636719 122.933594 54.378906 " fill-opacity="1" fill-rule="nonzero"/><path fill="#ffffff" d="M 127.382812 51.683594 C 130.875 49.023438 131.136719 48.714844 131.328125 48.492188 C 130.957031 48.289062 124.957031 52.882812 124.910156 53.402344 C 124.96875 53.410156 125.105469 53.421875 127.382812 51.683594 " fill-opacity="1" fill-rule="nonzero"/><path fill="#ffffff" d="M 149.398438 43.105469 C 149.542969 43.289062 150.46875 42.78125 152.6875 41.296875 C 153.15625 40.984375 155.503906 39.402344 155.613281 39.105469 C 155.605469 39.097656 155.597656 39.089844 155.59375 39.085938 C 155.152344 39.027344 149.484375 42.347656 149.398438 43.105469 " fill-opacity="1" fill-rule="nonzero"/><path fill="#ffffff" d="M 240.285156 226.433594 C 240.289062 226.398438 240.113281 223.027344 236.382812 224.03125 C 232.089844 225.34375 233.949219 228.777344 234.355469 229.191406 C 235.742188 230.613281 240.09375 229.859375 240.285156 226.433594 " fill-opacity="1" fill-rule="nonzero"/><path fill="#ffffff" d="M 158.425781 46.152344 C 157.28125 46.382812 154.703125 49.59375 154.84375 50.617188 C 154.949219 51.390625 156.417969 50.550781 157.652344 48.734375 C 157.949219 48.292969 159.390625 46.101562 158.425781 46.152344 " fill-opacity="1" fill-rule="nonzero"/><path fill="#ffffff" d="M 214.25 272.496094 C 212.339844 272.417969 211.480469 272.40625 210.851562 272.457031 C 210.527344 272.488281 210.515625 272.511719 210.496094 272.546875 C 210.925781 272.792969 214.929688 272.730469 215.507812 272.585938 C 215.472656 272.558594 215.457031 272.550781 214.25 272.496094 " fill-opacity="1" fill-rule="nonzero"/><path fill="#ffffff" d="M 240 195.015625 C 240.574219 195.445312 242.148438 196.289062 244.390625 194.8125 C 245.128906 194.328125 246.3125 193.195312 246.011719 191.058594 C 245.609375 188.257812 243.355469 187.875 241.550781 188.402344 C 237.902344 189.683594 238.28125 193.722656 240 195.015625 " fill-opacity="1" fill-rule="nonzero"/><path fill="#ffffff" d="M 234.355469 170.683594 C 236.140625 172.164062 241.125 171.320312 240.628906 166.523438 C 240.621094 166.480469 239.984375 162.175781 235.796875 163.246094 C 231.324219 164.589844 232.855469 169.441406 234.355469 170.683594 " fill-opacity="1" fill-rule="nonzero"/><path fill="#ffffff" d="M 227.75 144.972656 C 228.09375 145.207031 229.917969 146.308594 231.992188 144.867188 C 232.902344 144.238281 233.890625 143.0625 233.453125 141.023438 C 232.882812 138.378906 230.988281 137.175781 228.511719 137.890625 C 224.875 139.195312 225.695312 143.570312 227.75 144.972656 " fill-opacity="1" fill-rule="nonzero"/><path fill="#ffffff" d="M 205.601562 111.578125 C 207.671875 112.785156 211.382812 111.667969 210.582031 107.945312 C 210.167969 106.019531 208.53125 104.328125 206.210938 104.832031 C 202.554688 105.855469 203.507812 110.355469 205.601562 111.578125 " fill-opacity="1" fill-rule="nonzero"/><path fill="#ffffff" d="M 141.269531 42.929688 C 141.269531 42.921875 141.257812 42.910156 141.253906 42.902344 C 140.652344 42.921875 135.492188 46.066406 134.777344 47.003906 C 135.089844 46.960938 135.828125 46.546875 137.707031 45.355469 C 140.375 43.667969 141.175781 43.125 141.269531 42.929688 " fill-opacity="1" fill-rule="nonzero"/><path fill="#ffffff" d="M 221.226562 264.792969 C 221.027344 264.839844 220.691406 264.917969 220.449219 265.089844 C 219.84375 265.511719 220.050781 266.394531 221.578125 266.746094 C 222.878906 267.042969 224.660156 266.5625 224.058594 265.582031 C 223.6875 264.984375 222.671875 264.507812 221.226562 264.792969 " fill-opacity="1" fill-rule="nonzero"/><path fill="#ffffff" d="M 153.261719 43.535156 C 153.75 43.359375 154.417969 43.019531 155.988281 41.765625 C 157.273438 40.734375 158.742188 39.496094 158.445312 39.421875 C 158.445312 39.421875 158.441406 39.421875 158.4375 39.421875 C 157.796875 39.460938 152.714844 43.007812 153.261719 43.535156 " fill-opacity="1" fill-rule="nonzero"/><path fill="#ffffff" d="M 146.972656 42.324219 C 147.515625 42.175781 148.386719 41.726562 150.300781 40.601562 C 153.527344 38.710938 153.566406 38.601562 153.601562 38.5 C 153.128906 38.433594 147.351562 41.574219 146.972656 42.324219 " fill-opacity="1" fill-rule="nonzero"/><path fill="#ffffff" d="M 225.589844 258.757812 C 225.488281 258.78125 225.390625 258.808594 225.292969 258.839844 C 224 259.238281 223.328125 260.554688 224.964844 261.359375 C 226.410156 262.066406 228.847656 261.210938 228.40625 259.832031 C 228.324219 259.578125 227.804688 258.324219 225.589844 258.757812 " fill-opacity="1" fill-rule="nonzero"/><path fill="#ffffff" d="M 169.78125 64.492188 C 170.5 65.417969 172.644531 65.125 172.890625 62.21875 C 172.894531 62.191406 172.878906 59.621094 171.175781 59.863281 C 169.230469 60.28125 168.96875 63.445312 169.78125 64.492188 " fill-opacity="1" fill-rule="nonzero"/><path fill="#ffffff" d="M 177.324219 72.527344 C 177.335938 72.535156 178.429688 73.441406 179.453125 72.714844 C 179.824219 72.457031 180.804688 71.769531 180.695312 70.152344 C 180.6875 70.027344 180.46875 67.152344 178.242188 67.535156 C 176.058594 68.046875 176.007812 71.414062 177.324219 72.527344 " fill-opacity="1" fill-rule="nonzero"/><path fill="#ffffff" d="M 231.691406 251.082031 C 229.519531 251.691406 229.425781 253.394531 230.515625 254.179688 C 231.734375 255.0625 234.734375 254.261719 234.484375 252.347656 C 234.332031 251.179688 233.261719 250.695312 231.691406 251.082031 " fill-opacity="1" fill-rule="nonzero"/><path fill="#ffffff" d="M 220.382812 120.011719 C 222.050781 121.074219 225.765625 120.367188 225.125 116.570312 C 225.019531 115.949219 223.839844 112.96875 220.78125 113.851562 C 217.253906 115.0625 218.921875 119.082031 220.382812 120.011719 " fill-opacity="1" fill-rule="nonzero"/><path fill="#ffffff" d="M 245.84375 211.152344 C 242.273438 212.355469 243.183594 215.433594 243.75 216.152344 C 245.078125 217.84375 249.179688 216.804688 249.394531 213.421875 C 249.425781 212.898438 248.914062 210.257812 245.84375 211.152344 " fill-opacity="1" fill-rule="nonzero"/><path fill="#ffffff" d="M 129.925781 48.5 C 132.761719 46.414062 132.761719 46.414062 132.9375 46.261719 C 132.953125 46.246094 132.976562 46.222656 132.984375 46.203125 C 132.53125 46.394531 128.453125 49.433594 128.132812 49.816406 C 128.769531 49.429688 129.328125 48.941406 129.925781 48.5 " fill-opacity="1" fill-rule="nonzero"/><g clip-path="url(#cbf57716f7)"><path fill="#ffffff" d="M 152.328125 37.773438 C 152.113281 37.652344 146.921875 40.191406 146.3125 40.863281 C 146.476562 40.914062 147.273438 40.523438 149.109375 39.566406 C 151.683594 38.230469 152.253906 37.910156 152.328125 37.773438 " fill-opacity="1" fill-rule="nonzero"/></g><path fill="#ffffff" d="M 221.132812 270.171875 C 221.988281 270.050781 222.160156 269.828125 221.664062 269.46875 C 221.65625 269.460938 220.578125 268.792969 219.035156 269.066406 C 218.851562 269.101562 218.46875 269.179688 218.347656 269.34375 C 218.050781 269.738281 219.621094 270.382812 221.132812 270.171875 " fill-opacity="1" fill-rule="nonzero"/><path fill="#ffffff" d="M 167.566406 54.71875 C 167.753906 53.683594 167.753906 52.476562 166.691406 52.601562 C 165.082031 52.910156 164.441406 55.980469 165.027344 56.738281 C 165.578125 57.449219 167.164062 56.9375 167.566406 54.71875 " fill-opacity="1" fill-rule="nonzero"/><path fill="#ffffff" d="M 242.050781 243.207031 C 242.023438 242.4375 241.648438 241.226562 239.449219 241.757812 C 236.238281 242.746094 237.554688 244.976562 237.851562 245.242188 C 238.921875 246.207031 242.121094 245.316406 242.050781 243.207031 " fill-opacity="1" fill-rule="nonzero"/><path fill="#ffffff" d="M 160.46875 41.480469 C 160.53125 41.414062 160.613281 41.332031 160.675781 41.265625 C 162.15625 39.734375 162.066406 39.5625 161.871094 39.566406 C 161.109375 39.683594 158.164062 42.410156 158.121094 43.035156 C 158.101562 43.316406 158.664062 43.316406 160.46875 41.480469 " fill-opacity="1" fill-rule="nonzero"/><path fill="#ffffff" d="M 187.222656 80.613281 C 188.605469 81.53125 191.242188 80.660156 190.671875 77.898438 C 190.375 76.457031 189.433594 75.066406 187.691406 75.492188 C 185.042969 76.285156 185.960938 79.777344 187.222656 80.613281 " fill-opacity="1" fill-rule="nonzero"/><path fill="#ffffff" d="M 199.117188 88.582031 C 200.777344 89.554688 203.300781 88.347656 202.542969 85.796875 C 202.234375 84.761719 201.40625 83.09375 199.3125 83.570312 C 196.605469 84.320312 197.761719 87.78125 199.117188 88.582031 " fill-opacity="1" fill-rule="nonzero"/><path fill="#ffffff" d="M 243.464844 153.238281 C 244.957031 154.601562 248.765625 154.152344 248.4375 149.867188 C 248.34375 148.660156 246.878906 147.675781 246.863281 147.664062 C 245.925781 147.082031 245.039062 147.324219 244.5625 147.453125 C 241.28125 148.535156 242.210938 152.089844 243.464844 153.238281 " fill-opacity="1" fill-rule="nonzero"/><path fill="#ffffff" d="M 219.082031 271.5 C 218.949219 271.523438 218.679688 271.570312 218.683594 271.640625 C 218.695312 271.738281 219.320312 271.847656 220.3125 271.855469 C 220.800781 271.859375 221.945312 271.792969 222 271.664062 C 221.96875 271.632812 221.914062 271.609375 221.53125 271.546875 C 221.519531 271.542969 220.140625 271.339844 219.082031 271.5 " fill-opacity="1" fill-rule="nonzero"/><path fill="#ffffff" d="M 162.910156 49.15625 C 162.976562 49.347656 163.199219 49.734375 163.796875 49.292969 C 164.132812 49.046875 164.621094 48.601562 165.027344 47.589844 C 165.320312 46.863281 165.699219 45.660156 164.949219 45.714844 C 163.945312 45.875 162.628906 48.355469 162.910156 49.15625 " fill-opacity="1" fill-rule="nonzero"/><path fill="#ffffff" d="M 249.949219 178.839844 C 250.773438 179.414062 252.40625 179.441406 252.976562 179.042969 C 253.511719 178.667969 255.144531 177.53125 254.808594 175.453125 C 254.542969 173.777344 253.308594 172.398438 251.152344 173.085938 C 247.75 174.339844 248.730469 177.988281 249.949219 178.839844 " fill-opacity="1" fill-rule="nonzero"/><path fill="#ffffff" d="M 138.664062 43.207031 C 138.691406 43.191406 141.375 41.628906 141.675781 41.34375 C 141.671875 41.335938 141.675781 41.324219 141.675781 41.316406 C 141.234375 41.394531 137.175781 43.742188 136.636719 44.304688 C 136.640625 44.3125 136.640625 44.324219 136.644531 44.328125 C 136.8125 44.28125 137.304688 44 138.664062 43.207031 " fill-opacity="1" fill-rule="nonzero"/><path fill="#ffffff" d="M 255.746094 197.238281 C 253.210938 198.074219 252.980469 200.6875 254.175781 201.886719 C 255.503906 203.222656 258.671875 201.796875 258.628906 199.34375 C 258.621094 198.855469 258.441406 196.472656 255.746094 197.238281 " fill-opacity="1" fill-rule="nonzero"/><path fill="#ffffff" d="M 250.671875 232.4375 C 250.679688 231.808594 250.464844 230.40625 248.359375 230.957031 C 245.902344 231.699219 245.964844 233.789062 246.648438 234.507812 C 247.691406 235.609375 250.65625 234.402344 250.671875 232.4375 " fill-opacity="1" fill-rule="nonzero"/><path fill="#ffffff" d="M 236.121094 128.070312 C 237.847656 129.167969 240.835938 127.820312 240.082031 125.109375 C 239.886719 124.410156 239.054688 122.179688 236.5 122.890625 C 233.621094 123.847656 234.699219 127.167969 236.121094 128.070312 " fill-opacity="1" fill-rule="nonzero"/><path fill="#ffffff" d="M 212.601562 96.332031 C 213.84375 97.121094 216.550781 96.625 215.894531 93.875 C 215.890625 93.847656 215.121094 91.105469 212.679688 91.820312 C 209.996094 92.738281 211.640625 95.722656 212.601562 96.332031 " fill-opacity="1" fill-rule="nonzero"/><path fill="#ffffff" d="M 165.300781 41.019531 C 165.414062 40.859375 166.414062 39.480469 165.925781 39.480469 C 165.207031 39.632812 163.691406 41.699219 163.71875 42.15625 C 163.71875 42.167969 163.933594 42.875 165.300781 41.019531 " fill-opacity="1" fill-rule="nonzero"/><path fill="#ffffff" d="M 230.203125 267.089844 C 230.125 267.105469 230.050781 267.125 229.976562 267.152344 C 229.289062 267.382812 229.460938 267.738281 229.792969 267.90625 C 230.335938 268.179688 231.675781 267.957031 231.484375 267.375 C 231.484375 267.371094 231.199219 266.886719 230.203125 267.089844 " fill-opacity="1" fill-rule="nonzero"/><path fill="#ffffff" d="M 257.925781 218.910156 C 256.617188 219.390625 255.695312 221.011719 256.546875 222.015625 C 257.410156 223.039062 259.742188 222.085938 259.910156 220.253906 C 260.039062 218.851562 259.007812 218.570312 257.925781 218.910156 " fill-opacity="1" fill-rule="nonzero"/><path fill="#ffffff" d="M 227.589844 103.964844 C 229.171875 104.75 230.941406 103.507812 230.203125 101.589844 C 229.722656 100.339844 228.613281 99.753906 227.449219 100.125 C 225.324219 100.925781 226.441406 103.398438 227.589844 103.964844 " fill-opacity="1" fill-rule="nonzero"/><path fill="#ffffff" d="M 234.71875 262.21875 C 233.707031 262.476562 233.542969 263.109375 233.878906 263.4375 C 234.457031 264.003906 236.0625 263.503906 236.023438 262.769531 C 236.007812 262.460938 235.714844 262 234.71875 262.21875 " fill-opacity="1" fill-rule="nonzero"/><path fill="#ffffff" d="M 259.601562 161.378906 C 260.589844 162.117188 262.925781 161.273438 262.582031 159.136719 C 262.414062 158.066406 261.859375 156.898438 260.1875 157.417969 C 258.011719 158.191406 258.671875 160.683594 259.601562 161.378906 " fill-opacity="1" fill-rule="nonzero"/><path fill="#ffffff" d="M 265.515625 182.535156 C 263.425781 183.28125 263.910156 185.566406 264.621094 186.078125 C 264.628906 186.085938 265.535156 186.695312 266.652344 185.871094 C 266.898438 185.6875 267.660156 185.125 267.542969 183.917969 C 267.46875 183.1875 267.113281 182.035156 265.515625 182.535156 " fill-opacity="1" fill-rule="nonzero"/><path fill="#ffffff" d="M 240.988281 255.640625 C 239.433594 256.105469 240.039062 257.15625 240.046875 257.167969 C 240.449219 257.667969 242.167969 257.285156 242.261719 256.265625 C 242.289062 255.96875 242.21875 255.3125 240.988281 255.640625 " fill-opacity="1" fill-rule="nonzero"/><path fill="#ffffff" d="M 192.960938 67.855469 C 193.652344 68.25 195.09375 67.851562 194.613281 66.351562 C 194.460938 65.871094 193.984375 64.785156 192.875 65.082031 C 191.375 65.566406 192.300781 67.476562 192.960938 67.855469 " fill-opacity="1" fill-rule="nonzero"/><path fill="#ffffff" d="M 228.957031 270.160156 C 228.828125 270.097656 228.453125 269.96875 227.796875 270.101562 C 227.691406 270.121094 227.472656 270.171875 227.433594 270.246094 C 227.332031 270.433594 228.335938 270.542969 228.902344 270.351562 C 229.082031 270.289062 229.097656 270.226562 228.957031 270.160156 " fill-opacity="1" fill-rule="nonzero"/><path fill="#ffffff" d="M 183.234375 60.722656 C 183.730469 61.144531 185.097656 61.097656 184.902344 59.453125 C 184.898438 59.4375 184.632812 57.828125 183.425781 58.117188 C 182.246094 58.472656 182.667969 60.238281 183.234375 60.722656 " fill-opacity="1" fill-rule="nonzero"/><path fill="#ffffff" d="M 172.59375 46.246094 C 172.65625 45.867188 172.734375 44.992188 172.148438 45.070312 C 171.390625 45.234375 171.210938 46.78125 171.507812 47.125 C 171.777344 47.441406 172.4375 47.242188 172.59375 46.246094 " fill-opacity="1" fill-rule="nonzero"/><path fill="#ffffff" d="M 176.085938 53.832031 C 176.234375 53.960938 176.632812 54.207031 177.097656 53.785156 C 177.292969 53.609375 177.519531 53.253906 177.464844 52.582031 C 177.441406 52.257812 177.292969 51.214844 176.476562 51.394531 C 175.414062 51.695312 175.621094 53.441406 176.085938 53.832031 " fill-opacity="1" fill-rule="nonzero"/><path fill="#ffffff" d="M 252.289062 135.847656 C 253.140625 136.355469 255.4375 135.960938 254.929688 133.609375 C 254.925781 133.589844 254.402344 131.585938 252.53125 132.15625 C 250.40625 132.917969 251.414062 135.328125 252.289062 135.847656 " fill-opacity="1" fill-rule="nonzero"/><path fill="#ffffff" d="M 204.816406 74.886719 C 205.632812 75.195312 205.847656 74.953125 206.125 74.648438 C 206.261719 74.496094 206.542969 74.066406 206.230469 73.316406 C 205.890625 72.496094 205.140625 72.066406 204.410156 72.277344 C 204.375 72.289062 204.328125 72.304688 204.296875 72.320312 C 203.328125 72.730469 203.675781 74.457031 204.816406 74.886719 " fill-opacity="1" fill-rule="nonzero"/><path fill="#ffffff" d="M 248.957031 247.265625 C 247.867188 247.59375 247.53125 248.492188 247.835938 248.9375 C 248.125 249.363281 248.988281 249.148438 248.996094 249.144531 C 249.003906 249.140625 249.914062 248.660156 250.039062 248.042969 C 250.101562 247.753906 250.035156 246.984375 248.957031 247.265625 " fill-opacity="1" fill-rule="nonzero"/><path fill="#ffffff" d="M 257.992188 237.414062 C 256.882812 237.804688 256.960938 238.746094 257.109375 238.945312 C 257.417969 239.359375 258.667969 238.972656 258.859375 238.089844 C 258.894531 237.917969 259.023438 237.082031 257.992188 237.414062 " fill-opacity="1" fill-rule="nonzero"/><g clip-path="url(#337f4a3e4c)"><path fill="#ffffff" d="M 268.019531 205.714844 C 266.894531 206.113281 266.660156 207.457031 267.164062 208.011719 C 267.71875 208.628906 269.3125 207.839844 269.363281 206.667969 C 269.382812 206.144531 269.238281 205.320312 268.019531 205.714844 " fill-opacity="1" fill-rule="nonzero"/></g><path fill="#ffffff" d="M 243.324219 111.269531 C 244.128906 111.671875 245.589844 111.035156 245.058594 109.671875 C 244.851562 109.144531 244.351562 108.308594 243.28125 108.636719 C 241.714844 109.199219 242.632812 110.921875 243.324219 111.269531 " fill-opacity="1" fill-rule="nonzero"/><path fill="#ffffff" d="M 218.222656 81.699219 C 218.28125 81.71875 218.796875 81.910156 219.144531 81.578125 C 219.425781 81.304688 219.492188 80.984375 219.34375 80.625 C 219.339844 80.609375 218.882812 79.527344 217.945312 79.777344 C 217.902344 79.792969 217.855469 79.8125 217.8125 79.832031 C 216.933594 80.242188 217.570312 81.4375 218.222656 81.699219 " fill-opacity="1" fill-rule="nonzero"/><g fill="#ffffff" fill-opacity="1"><g transform="translate(4.432421, 308.103736)"><g><path d="M 7.328125 -19.328125 L 7.328125 -12.359375 L 18.375 -12.359375 L 18.375 -8.765625 L 7.328125 -8.765625 L 7.328125 0 L 3.078125 0 L 3.078125 -22.890625 L 19.78125 -22.890625 L 19.78125 -19.328125 Z M 7.328125 -19.328125 "/></g></g></g><g fill="#ffffff" fill-opacity="1"><g transform="translate(32.447474, 308.103736)"><g><path d="M 3.078125 -22.890625 L 7.328125 -22.890625 L 7.328125 0 L 3.078125 0 Z M 3.078125 -22.890625 "/></g></g></g><g fill="#ffffff" fill-opacity="1"><g transform="translate(50.068102, 308.103736)"><g><path d="M 23.421875 -22.890625 L 23.421875 0 L 19.921875 0 L 7.296875 -15.5 L 7.296875 0 L 3.078125 0 L 3.078125 -22.890625 L 6.578125 -22.890625 L 19.203125 -7.390625 L 19.203125 -22.890625 Z M 23.421875 -22.890625 "/></g></g></g><g fill="#ffffff" fill-opacity="1"><g transform="translate(83.737962, 308.103736)"><g><path d="M 17.921875 -5.296875 L 6.46875 -5.296875 L 4.21875 0 L -0.15625 0 L 10.140625 -22.890625 L 14.328125 -22.890625 L 24.65625 0 L 20.203125 0 Z M 16.515625 -8.640625 L 12.203125 -18.640625 L 7.921875 -8.640625 Z M 16.515625 -8.640625 "/></g></g></g><g fill="#ffffff" fill-opacity="1"><g transform="translate(115.41394, 308.103736)"><g><path d="M 23.421875 -22.890625 L 23.421875 0 L 19.921875 0 L 7.296875 -15.5 L 7.296875 0 L 3.078125 0 L 3.078125 -22.890625 L 6.578125 -22.890625 L 19.203125 -7.390625 L 19.203125 -22.890625 Z M 23.421875 -22.890625 "/></g></g></g><g fill="#ffffff" fill-opacity="1"><g transform="translate(149.083805, 308.103736)"><g><path d="M 13.671875 0.328125 C 11.359375 0.328125 9.269531 -0.175781 7.40625 -1.1875 C 5.539062 -2.207031 4.078125 -3.609375 3.015625 -5.390625 C 1.960938 -7.179688 1.4375 -9.203125 1.4375 -11.453125 C 1.4375 -13.691406 1.96875 -15.703125 3.03125 -17.484375 C 4.101562 -19.273438 5.570312 -20.675781 7.4375 -21.6875 C 9.300781 -22.707031 11.390625 -23.21875 13.703125 -23.21875 C 15.578125 -23.21875 17.285156 -22.890625 18.828125 -22.234375 C 20.378906 -21.578125 21.691406 -20.628906 22.765625 -19.390625 L 20.015625 -16.8125 C 18.359375 -18.59375 16.320312 -19.484375 13.90625 -19.484375 C 12.332031 -19.484375 10.921875 -19.140625 9.671875 -18.453125 C 8.429688 -17.773438 7.460938 -16.820312 6.765625 -15.59375 C 6.066406 -14.375 5.71875 -12.992188 5.71875 -11.453125 C 5.71875 -9.898438 6.066406 -8.515625 6.765625 -7.296875 C 7.460938 -6.078125 8.429688 -5.125 9.671875 -4.4375 C 10.921875 -3.75 12.332031 -3.40625 13.90625 -3.40625 C 16.320312 -3.40625 18.359375 -4.304688 20.015625 -6.109375 L 22.765625 -3.5 C 21.691406 -2.257812 20.375 -1.3125 18.8125 -0.65625 C 17.257812 0 15.546875 0.328125 13.671875 0.328125 Z M 13.671875 0.328125 "/></g></g></g><g fill="#ffffff" fill-opacity="1"><g transform="translate(180.040669, 308.103736)"><g><path d="M 3.078125 -22.890625 L 7.328125 -22.890625 L 7.328125 0 L 3.078125 0 Z M 3.078125 -22.890625 "/></g></g></g><g fill="#ffffff" fill-opacity="1"><g transform="translate(197.661295, 308.103736)"><g><path d="M 17.921875 -5.296875 L 6.46875 -5.296875 L 4.21875 0 L -0.15625 0 L 10.140625 -22.890625 L 14.328125 -22.890625 L 24.65625 0 L 20.203125 0 Z M 16.515625 -8.640625 L 12.203125 -18.640625 L 7.921875 -8.640625 Z M 16.515625 -8.640625 "/></g></g></g><g fill="#ffffff" fill-opacity="1"><g transform="translate(229.337272, 308.103736)"><g><path d="M 3.078125 -22.890625 L 7.328125 -22.890625 L 7.328125 -3.59375 L 19.296875 -3.59375 L 19.296875 0 L 3.078125 0 Z M 3.078125 -22.890625 "/></g></g></g><g fill="#ffffff" fill-opacity="1"><g transform="translate(258.997313, 311.189284)"><g><path d="M 13.671875 -16.4375 C 16.253906 -16.113281 18.222656 -15.234375 19.578125 -13.796875 C 20.941406 -12.359375 21.625 -10.554688 21.625 -8.390625 C 21.625 -6.765625 21.210938 -5.285156 20.390625 -3.953125 C 19.566406 -2.617188 18.320312 -1.554688 16.65625 -0.765625 C 14.988281 0.015625 12.957031 0.40625 10.5625 0.40625 C 8.5625 0.40625 6.632812 0.117188 4.78125 -0.453125 C 2.925781 -1.023438 1.347656 -1.820312 0.046875 -2.84375 L 2.28125 -6.875 C 3.289062 -6.019531 4.519531 -5.347656 5.96875 -4.859375 C 7.425781 -4.367188 8.925781 -4.125 10.46875 -4.125 C 12.3125 -4.125 13.757812 -4.5 14.8125 -5.25 C 15.863281 -6.007812 16.390625 -7.046875 16.390625 -8.359375 C 16.390625 -9.660156 15.890625 -10.675781 14.890625 -11.40625 C 13.890625 -12.144531 12.363281 -12.515625 10.3125 -12.515625 L 7.75 -12.515625 L 7.75 -16.078125 L 14.109375 -23.625 L 1.40625 -23.625 L 1.40625 -27.984375 L 20.46875 -27.984375 L 20.46875 -24.515625 Z M 13.671875 -16.4375 "/></g></g></g><g fill="#ffffff" fill-opacity="1"><g transform="translate(288.346897, 311.189284)"><g><path d="M 14.46875 -17.265625 C 16.3125 -17.265625 17.960938 -16.910156 19.421875 -16.203125 C 20.890625 -15.503906 22.035156 -14.5 22.859375 -13.1875 C 23.691406 -11.882812 24.109375 -10.378906 24.109375 -8.671875 C 24.109375 -6.859375 23.65625 -5.265625 22.75 -3.890625 C 21.84375 -2.523438 20.613281 -1.46875 19.0625 -0.71875 C 17.519531 0.03125 15.789062 0.40625 13.875 0.40625 C 10.03125 0.40625 7.050781 -0.789062 4.9375 -3.1875 C 2.820312 -5.59375 1.765625 -9.035156 1.765625 -13.515625 C 1.765625 -16.660156 2.335938 -19.34375 3.484375 -21.5625 C 4.628906 -23.789062 6.234375 -25.484375 8.296875 -26.640625 C 10.359375 -27.804688 12.75 -28.390625 15.46875 -28.390625 C 16.914062 -28.390625 18.269531 -28.234375 19.53125 -27.921875 C 20.800781 -27.617188 21.898438 -27.175781 22.828125 -26.59375 L 20.90625 -22.671875 C 19.519531 -23.578125 17.75 -24.03125 15.59375 -24.03125 C 12.90625 -24.03125 10.800781 -23.203125 9.28125 -21.546875 C 7.757812 -19.898438 7 -17.515625 7 -14.390625 L 7 -14.359375 C 7.820312 -15.316406 8.875 -16.039062 10.15625 -16.53125 C 11.4375 -17.019531 12.875 -17.265625 14.46875 -17.265625 Z M 13.59375 -3.671875 C 15.21875 -3.671875 16.535156 -4.101562 17.546875 -4.96875 C 18.566406 -5.84375 19.078125 -7 19.078125 -8.4375 C 19.078125 -9.90625 18.566406 -11.0625 17.546875 -11.90625 C 16.535156 -12.757812 15.175781 -13.1875 13.46875 -13.1875 C 11.789062 -13.1875 10.425781 -12.734375 9.375 -11.828125 C 8.320312 -10.921875 7.796875 -9.773438 7.796875 -8.390625 C 7.796875 -7.035156 8.304688 -5.910156 9.328125 -5.015625 C 10.359375 -4.117188 11.78125 -3.671875 13.59375 -3.671875 Z M 13.59375 -3.671875 "/></g></g></g><g fill="#ffffff" fill-opacity="1"><g transform="translate(319.495722, 311.189284)"><g><path d="M 13.4375 0.40625 C 11.195312 0.40625 9.195312 -0.160156 7.4375 -1.296875 C 5.675781 -2.429688 4.289062 -4.082031 3.28125 -6.25 C 2.269531 -8.425781 1.765625 -11.007812 1.765625 -14 C 1.765625 -16.976562 2.269531 -19.550781 3.28125 -21.71875 C 4.289062 -23.894531 5.675781 -25.550781 7.4375 -26.6875 C 9.195312 -27.820312 11.195312 -28.390625 13.4375 -28.390625 C 15.675781 -28.390625 17.679688 -27.820312 19.453125 -26.6875 C 21.222656 -25.550781 22.613281 -23.894531 23.625 -21.71875 C 24.644531 -19.550781 25.15625 -16.976562 25.15625 -14 C 25.15625 -11.007812 24.644531 -8.425781 23.625 -6.25 C 22.613281 -4.082031 21.222656 -2.429688 19.453125 -1.296875 C 17.679688 -0.160156 15.675781 0.40625 13.4375 0.40625 Z M 13.4375 -4.125 C 15.4375 -4.125 17.015625 -4.945312 18.171875 -6.59375 C 19.328125 -8.25 19.90625 -10.71875 19.90625 -14 C 19.90625 -17.269531 19.328125 -19.734375 18.171875 -21.390625 C 17.015625 -23.046875 15.4375 -23.875 13.4375 -23.875 C 11.457031 -23.875 9.890625 -23.046875 8.734375 -21.390625 C 7.578125 -19.734375 7 -17.269531 7 -14 C 7 -10.71875 7.578125 -8.25 8.734375 -6.59375 C 9.890625 -4.945312 11.457031 -4.125 13.4375 -4.125 Z M 13.4375 -4.125 "/></g></g></g><g fill="#ffffff" fill-opacity="1"><g transform="translate(352.483755, 311.189284)"><g><path d="M 8.4375 -16.875 C 7.050781 -16.875 5.796875 -17.148438 4.671875 -17.703125 C 3.554688 -18.265625 2.6875 -19.046875 2.0625 -20.046875 C 1.4375 -21.046875 1.125 -22.175781 1.125 -23.4375 C 1.125 -24.65625 1.4375 -25.765625 2.0625 -26.765625 C 2.6875 -27.765625 3.554688 -28.546875 4.671875 -29.109375 C 5.796875 -29.671875 7.050781 -29.953125 8.4375 -29.953125 C 9.851562 -29.953125 11.113281 -29.671875 12.21875 -29.109375 C 13.320312 -28.546875 14.1875 -27.765625 14.8125 -26.765625 C 15.4375 -25.765625 15.75 -24.65625 15.75 -23.4375 C 15.75 -22.175781 15.4375 -21.046875 14.8125 -20.046875 C 14.1875 -19.046875 13.320312 -18.265625 12.21875 -17.703125 C 11.113281 -17.148438 9.851562 -16.875 8.4375 -16.875 Z M 8.4375 -19.71875 C 9.613281 -19.71875 10.550781 -20.054688 11.25 -20.734375 C 11.957031 -21.410156 12.3125 -22.3125 12.3125 -23.4375 C 12.3125 -24.519531 11.953125 -25.398438 11.234375 -26.078125 C 10.515625 -26.765625 9.582031 -27.109375 8.4375 -27.109375 C 7.289062 -27.109375 6.359375 -26.765625 5.640625 -26.078125 C 4.921875 -25.398438 4.5625 -24.519531 4.5625 -23.4375 C 4.5625 -22.3125 4.910156 -21.410156 5.609375 -20.734375 C 6.316406 -20.054688 7.257812 -19.71875 8.4375 -19.71875 Z M 8.4375 -19.71875 "/></g></g></g></svg>